<svg width="18" height="18" viewBox="0 0 18 18" fill="none" xmlns="http://www.w3.org/2000/svg">
<g clip-path="url(#clip0_17280_139)">
<path fill-rule="evenodd" clip-rule="evenodd" d="M2.22115 11.6129C1.07486 11.0318 0.286133 9.84146 0.286133 8.47254C0.286133 7.10362 1.07489 5.9128 2.22115 5.3314V0.871917C2.22115 0.527094 2.50116 0.24707 2.84596 0.24707H13.3157C13.4873 0.24707 13.6358 0.3094 13.7563 0.429964L15.6742 2.34785C15.7948 2.46841 15.8571 2.61693 15.8571 2.78849V5.59667C16.1859 5.39609 16.6117 5.37608 16.9681 5.58209L17.2479 5.74247C17.7671 6.04155 17.9461 6.71045 17.647 7.22962L15.8571 10.3291V17.1294C15.8571 17.4725 15.5766 17.753 15.2336 17.753H2.84596C2.50084 17.753 2.22115 17.4722 2.22115 17.1294V11.6129ZM2.78586 5.10428C3.10881 5.00609 3.45114 4.95326 3.80544 4.95326C5.74365 4.95326 7.32376 6.5344 7.32376 8.47254C7.32376 10.4107 5.74368 11.9908 3.80544 11.9908C3.45114 11.9908 3.10881 11.938 2.78586 11.8399V17.1294C2.78586 17.1621 2.81307 17.1882 2.84596 17.1882H15.2336C15.2659 17.1882 15.2924 17.1618 15.2924 17.1294V11.307L13.5522 14.3206C13.5273 14.3635 13.4912 14.3999 13.4483 14.4247L11.7734 15.3916C11.6861 15.442 11.5784 15.442 11.4911 15.3916C11.4037 15.3411 11.3499 15.2479 11.3499 15.147V13.2121C11.3499 13.1621 11.3632 13.1135 11.3878 13.0709L15.2924 6.31046V2.93006H13.6277C13.3791 2.93006 13.1741 2.72511 13.1741 2.47646V0.811776H2.84596C2.81278 0.811776 2.78586 0.838706 2.78586 0.871917V5.10428ZM14.8931 2.36535L13.7388 1.21109V2.36535H14.8931ZM16.8284 7.51791L17.1577 6.94769C17.3015 6.69792 17.2164 6.37611 16.9666 6.23218L16.687 6.07187L16.6859 6.07124C16.4364 5.92667 16.1158 6.01325 15.9721 6.26274L15.6426 6.83327L16.8284 7.51791ZM11.9146 13.7012V14.658L12.7434 14.1796L11.9146 13.7012ZM3.80544 11.4261C5.43259 11.4261 6.75905 10.0996 6.75905 8.47254C6.75905 6.84545 5.43259 5.51796 3.80544 5.51796C2.17825 5.51796 0.850843 6.84541 0.850843 8.47254C0.850843 10.0996 2.17825 11.4261 3.80544 11.4261ZM4.09994 3.13205C3.94411 3.13205 3.81758 3.00555 3.81758 2.84969C3.81758 2.69387 3.94411 2.56734 4.09994 2.56734H11.8824C12.0382 2.56734 12.1647 2.69387 12.1647 2.84969C12.1647 3.00555 12.0382 3.13205 11.8824 3.13205H4.09994ZM5.40943 5.02925C5.2536 5.02925 5.12707 4.90272 5.12707 4.74689C5.12707 4.59107 5.2536 4.46454 5.40943 4.46454H13.1918C13.3477 4.46454 13.4742 4.59107 13.4742 4.74689C13.4742 4.90272 13.3477 5.02925 13.1918 5.02925H5.40943ZM4.09994 14.5152C3.94411 14.5152 3.81758 14.3887 3.81758 14.2329C3.81758 14.077 3.94411 13.9505 4.09994 13.9505H10.7569C10.9127 13.9505 11.0393 14.077 11.0393 14.2329C11.0393 14.3887 10.9127 14.5152 10.7569 14.5152H4.09994ZM4.09994 16.4124C3.94411 16.4124 3.81758 16.2859 3.81758 16.13C3.81758 15.9742 3.94411 15.8477 4.09994 15.8477H11.8824C12.0382 15.8477 12.1647 15.9742 12.1647 16.13C12.1647 16.2859 12.0382 16.4124 11.8824 16.4124H4.09994ZM7.74104 10.7208C7.58521 10.7208 7.45869 10.5943 7.45869 10.4385C7.45869 10.2826 7.58521 10.1561 7.74104 10.1561H12.0719C12.2277 10.1561 12.3542 10.2826 12.3542 10.4385C12.3542 10.5943 12.2277 10.7208 12.0719 10.7208H7.74104ZM5.26292 12.618C5.10706 12.618 4.98056 12.4915 4.98056 12.3357C4.98056 12.1798 5.10706 12.0533 5.26292 12.0533H10.932C11.0878 12.0533 11.2143 12.1798 11.2143 12.3357C11.2143 12.4915 11.0878 12.618 10.932 12.618H5.26292ZM7.74104 6.92645C7.58521 6.92645 7.45869 6.79992 7.45869 6.64409C7.45869 6.48823 7.58521 6.36174 7.74104 6.36174H13.1918C13.3477 6.36174 13.4742 6.48823 13.4742 6.64409C13.4742 6.79992 13.3477 6.92645 13.1918 6.92645H7.74104ZM8.22923 8.82361C8.0734 8.82361 7.94688 8.69712 7.94688 8.54126C7.94688 8.38544 8.0734 8.25891 8.22923 8.25891H13.1918C13.3477 8.25891 13.4742 8.38544 13.4742 8.54126C13.4742 8.69712 13.3477 8.82361 13.1918 8.82361H8.22923Z" fill="#919EB0"/>
<path d="M2.5 8.5L3.5 9.5L5.5 7.5" stroke="#919EB0" stroke-width="0.7" stroke-linecap="round"/>
</g>
<defs>
<clipPath id="clip0_17280_139">
<rect width="18" height="18" fill="white"/>
</clipPath>
</defs>
</svg>
