<svg width="348" height="186" viewBox="0 0 348 186" fill="none" xmlns="http://www.w3.org/2000/svg">
<path d="M11.7587 128.031C11.4225 127.337 11.2488 126.549 11.2554 125.749C11.2554 123.687 12.335 122.016 13.6667 122.016C14.9984 122.016 16.0779 123.687 16.0779 125.749C16.0846 126.549 15.9109 127.337 15.5747 128.031C15.9047 128.728 16.0779 129.514 16.0779 130.313C16.0779 131.112 15.9047 131.898 15.5747 132.595C15.9047 133.292 16.0779 134.078 16.0779 134.877C16.0779 135.676 15.9047 136.461 15.5747 137.158C15.9047 137.856 16.0779 138.641 16.0779 139.44C16.0779 140.239 15.9047 141.025 15.5747 141.722C15.9109 142.416 16.0846 143.204 16.0779 144.004C16.0779 146.066 14.9984 147.738 13.6667 147.738C12.335 147.738 11.2554 146.066 11.2554 144.004C11.2488 143.204 11.4225 142.416 11.7587 141.722C11.4287 141.025 11.2554 140.239 11.2554 139.44C11.2554 138.641 11.4287 137.856 11.7587 137.158C11.4287 136.461 11.2554 135.676 11.2554 134.877C11.2554 134.078 11.4287 133.292 11.7587 132.595C11.4287 131.898 11.2554 131.112 11.2554 130.313C11.2554 129.514 11.4287 128.728 11.7587 128.031Z" fill="#A7A7A7"/>
<path d="M295.27 142.151C295.187 141.927 295.144 141.671 295.146 141.412C295.146 140.745 295.412 140.203 295.741 140.203C296.07 140.203 296.336 140.745 296.336 141.412C296.338 141.671 296.295 141.927 296.212 142.151C296.293 142.377 296.336 142.632 296.336 142.89C296.336 143.149 296.293 143.404 296.212 143.629C296.293 143.855 296.336 144.11 296.336 144.368C296.336 144.627 296.293 144.882 296.212 145.107C296.293 145.333 296.336 145.588 296.336 145.846C296.336 146.105 296.293 146.36 296.212 146.585C296.295 146.81 296.338 147.065 296.336 147.324C296.336 147.992 296.07 148.534 295.741 148.534C295.412 148.534 295.146 147.992 295.146 147.324C295.144 147.065 295.187 146.81 295.27 146.585C295.189 146.36 295.146 146.105 295.146 145.846C295.146 145.588 295.189 145.333 295.27 145.107C295.189 144.882 295.146 144.627 295.146 144.368C295.146 144.11 295.189 143.855 295.27 143.629C295.189 143.404 295.146 143.149 295.146 142.89C295.146 142.632 295.189 142.377 295.27 142.151Z" fill="#A7A7A7"/>
<path d="M2.92293 84.6329C2.5332 84.1369 2.17822 83.6147 1.86053 83.0699L9.35639 81.8395L1.24941 81.8998C0.471706 80.2086 0.047451 78.3767 0.00258064 76.516C-0.0422878 74.6554 0.293167 72.8051 0.988451 71.0785L11.8649 76.7175L1.24941 70.5605C2.18914 68.9376 4.03808 66.3132 5.54772 65.1998C7.05736 64.0863 8.78023 63.2955 10.609 62.8765C12.4378 62.4576 14.3333 62.4194 16.1775 62.7646C18.0216 63.1097 19.7749 63.8306 21.3282 64.8825C22.8814 65.9344 24.2013 67.2946 25.2055 68.8785C26.2098 70.4624 26.877 72.236 27.1656 74.0889C27.4541 75.9417 27.3578 77.8341 26.8826 79.6481C26.4075 81.4622 25.5637 83.159 24.4038 84.6329C25.0113 85.4047 25.5338 86.2397 25.9622 87.1235L16.232 92.1757L26.6071 88.6956C27.3356 90.8479 27.5156 93.1477 27.1309 95.387C26.7462 97.6263 25.8089 99.7344 24.4038 101.521C25.9892 103.535 26.9754 105.955 27.2497 108.503C27.524 111.051 27.0753 113.625 25.9549 115.931C24.8345 118.236 23.0877 120.18 20.914 121.54C18.7404 122.9 16.2278 123.621 13.6634 123.621C11.099 123.621 8.58631 122.9 6.41269 121.54C4.23906 120.18 2.49218 118.236 1.37179 115.931C0.251396 113.625 -0.197308 111.051 0.0769939 108.503C0.351297 105.955 1.33753 103.535 2.92293 101.521C1.02852 99.1132 -0.0014019 96.1394 -0.0014019 93.0767C-0.0014019 90.014 1.02852 87.0402 2.92293 84.6329Z" fill="#DFDFDF"/>
<path d="M291.529 126.531C291.376 126.357 291.237 126.174 291.113 125.983L294.05 125.552L290.873 125.573C290.568 124.98 290.402 124.338 290.385 123.685C290.367 123.033 290.499 122.384 290.771 121.778L295.034 123.756L291.102 121.172C291.471 120.603 291.966 120.107 292.558 119.717C293.149 119.327 293.825 119.049 294.541 118.902C295.258 118.755 296.001 118.742 296.724 118.863C297.446 118.984 298.134 119.237 298.742 119.606C299.351 119.975 299.868 120.452 300.262 121.007C300.655 121.562 300.917 122.184 301.03 122.834C301.143 123.484 301.105 124.147 300.919 124.783C300.733 125.419 300.402 126.014 299.948 126.531C300.186 126.802 300.391 127.095 300.558 127.405L296.745 129.176L300.811 127.956C301.097 128.711 301.167 129.517 301.016 130.302C300.866 131.088 300.498 131.827 299.948 132.453C300.569 133.159 300.956 134.008 301.063 134.901C301.171 135.795 300.995 136.698 300.556 137.506C300.116 138.314 299.432 138.996 298.58 139.473C297.728 139.95 296.743 140.203 295.738 140.203C294.733 140.203 293.749 139.95 292.897 139.473C292.045 138.996 291.36 138.314 290.921 137.506C290.482 136.698 290.306 135.795 290.414 134.901C290.521 134.008 290.908 133.159 291.529 132.453C290.787 131.609 290.383 130.566 290.383 129.492C290.383 128.418 290.787 127.375 291.529 126.531Z" fill="#DFDFDF"/>
<path opacity="0.1" d="M27.3281 93.278C27.3328 96.3215 26.3024 99.2775 24.4038 101.667C25.9892 103.668 26.9754 106.072 27.2497 108.604C27.524 111.135 27.0753 113.692 25.9549 115.983C24.8345 118.273 23.0877 120.204 20.914 121.555C18.7404 122.906 16.2278 123.623 13.6634 123.623C11.099 123.623 8.58631 122.906 6.41269 121.555C4.23906 120.204 2.49218 118.273 1.37179 115.983C0.251396 113.692 -0.197306 111.135 0.0769978 108.604C0.351299 106.072 1.33753 103.668 2.92293 101.667C1.09144 99.3582 27.3281 91.7552 27.3281 93.278Z" fill="#DFDFDF"/>
<path opacity="0.1" d="M301.094 129.562C301.096 130.63 300.692 131.666 299.948 132.504C300.569 133.206 300.956 134.049 301.063 134.936C301.171 135.824 300.995 136.721 300.556 137.524C300.116 138.327 299.432 139.004 298.58 139.478C297.728 139.952 296.743 140.203 295.738 140.203C294.733 140.203 293.749 139.952 292.897 139.478C292.045 139.004 291.36 138.327 290.921 137.524C290.482 136.721 290.306 135.824 290.414 134.936C290.521 134.049 290.908 133.206 291.529 132.504C290.811 131.694 301.094 129.028 301.094 129.562Z" fill="#DFDFDF"/>
<path d="M215.448 27.2442H272.623M211.672 20.566C211.672 16.6705 214.369 8.87932 225.157 8.87932C225.876 6.09677 229.795 0.642973 239.72 1.08818C243.136 1.45932 250.508 4.20504 252.665 12.2188C255.902 12.033 262.482 13.4424 262.914 20.566H286.647" stroke="#9F9F9F" stroke-linecap="round"/>
<path d="M106.515 35.5726H82.0111M108.133 32.5371C108.133 30.7664 106.977 27.225 102.354 27.225C102.045 25.9602 100.366 23.4812 96.1122 23.6835C94.6481 23.8522 91.4889 25.1003 90.5642 28.7429C89.1772 28.6585 86.357 29.2991 86.1721 32.5371H76.0008" stroke="#9F9F9F" stroke-width="0.8" stroke-linecap="round"/>
<path d="M256.891 34.3828H275.932" stroke="#9F9F9F" stroke-linecap="round"/>
<path d="M89.0938 39.1484H80.7632" stroke="#9F9F9F" stroke-width="0.8" stroke-linecap="round"/>
<path d="M151.117 170.245H162.406C162.408 170.245 162.41 170.243 162.41 170.241V170.241C162.41 167.58 164.567 165.422 167.229 165.422H168.883C171.545 165.422 173.702 167.58 173.702 170.241V170.241C173.702 170.243 173.704 170.245 173.706 170.245H180.054" stroke="#A7A7A7"/>
<path d="M245.977 179.893H257.265C257.267 179.893 257.269 179.892 257.269 179.89V179.89C257.269 177.228 259.427 175.07 262.088 175.07H263.742C266.404 175.07 268.562 177.228 268.562 179.89V179.89C268.562 179.892 268.563 179.893 268.565 179.893H274.914" stroke="#A7A7A7"/>
<path d="M51 185.062H62.3133C62.3154 185.062 62.3171 185.061 62.3171 185.059V185.059C62.3171 182.299 64.554 180.062 67.3133 180.062H68.6379C71.3973 180.062 73.6341 182.299 73.6341 185.059V185.059C73.6341 185.061 73.6358 185.062 73.6379 185.062H80" stroke="#A7A7A7"/>
<rect x="323.141" y="89.8594" width="3.21524" height="57.8743" fill="#A7A7A7"/>
<circle cx="324.5" cy="73.5625" r="23.5" fill="#D9D9D9"/>
<path d="M316.821 66.0582C316.821 66.6866 316.693 67.2248 316.437 67.6728C316.184 68.119 315.837 68.4607 315.398 68.698C314.961 68.9353 314.465 69.054 313.91 69.054C313.356 69.054 312.859 68.9353 312.42 68.698C311.982 68.4588 311.636 68.1161 311.38 67.67C311.127 67.222 311 66.6847 311 66.0582C311 65.4298 311.127 64.8926 311.38 64.4465C311.636 63.9984 311.982 63.6558 312.42 63.4185C312.859 63.1812 313.356 63.0625 313.91 63.0625C314.465 63.0625 314.961 63.1812 315.398 63.4185C315.837 63.6558 316.184 63.9984 316.437 64.4465C316.693 64.8926 316.821 65.4298 316.821 66.0582ZM315.667 66.0582C315.667 65.6159 315.592 65.2429 315.441 64.9391C315.293 64.6335 315.087 64.4028 314.823 64.2471C314.559 64.0896 314.255 64.0108 313.91 64.0108C313.566 64.0108 313.262 64.0896 312.998 64.2471C312.734 64.4028 312.527 64.6335 312.376 64.9391C312.228 65.2429 312.154 65.6159 312.154 66.0582C312.154 66.5006 312.228 66.8746 312.376 67.1802C312.527 67.484 312.734 67.7146 312.998 67.8722C313.262 68.0279 313.566 68.1057 313.91 68.1057C314.255 68.1057 314.559 68.0279 314.823 67.8722C315.087 67.7146 315.293 67.484 315.441 67.1802C315.592 66.8746 315.667 66.5006 315.667 66.0582Z" fill="#838282"/>
<path d="M323.565 66.0582C323.565 66.6866 323.438 67.2248 323.182 67.6728C322.928 68.119 322.582 68.4607 322.143 68.698C321.706 68.9353 321.21 69.054 320.655 69.054C320.1 69.054 319.604 68.9353 319.164 68.698C318.727 68.4588 318.381 68.1161 318.125 67.67C317.872 67.222 317.745 66.6847 317.745 66.0582C317.745 65.4298 317.872 64.8926 318.125 64.4465C318.381 63.9984 318.727 63.6558 319.164 63.4185C319.604 63.1812 320.1 63.0625 320.655 63.0625C321.21 63.0625 321.706 63.1812 322.143 63.4185C322.582 63.6558 322.928 63.9984 323.182 64.4465C323.438 64.8926 323.565 65.4298 323.565 66.0582ZM322.412 66.0582C322.412 65.6159 322.337 65.2429 322.186 64.9391C322.038 64.6335 321.831 64.4028 321.567 64.2471C321.304 64.0896 320.999 64.0108 320.655 64.0108C320.311 64.0108 320.007 64.0896 319.743 64.2471C319.479 64.4028 319.272 64.6335 319.121 64.9391C318.973 65.2429 318.898 65.6159 318.898 66.0582C318.898 66.5006 318.973 66.8746 319.121 67.1802C319.272 67.484 319.479 67.7146 319.743 67.8722C320.007 68.0279 320.311 68.1057 320.655 68.1057C320.999 68.1057 321.304 68.0279 321.567 67.8722C321.831 67.7146 322.038 67.484 322.186 67.1802C322.337 66.8746 322.412 66.5006 322.412 66.0582Z" fill="#838282"/>
<path d="M324.65 68.9742V63.1422H327.026C327.512 63.1422 327.92 63.2258 328.25 63.3928C328.582 63.5599 328.833 63.7896 329.002 64.082C329.173 64.3724 329.259 64.7027 329.259 65.0729C329.259 65.4469 329.173 65.7792 329.002 66.0696C328.831 66.3601 328.578 66.5888 328.244 66.7559C327.91 66.9211 327.499 67.0036 327.01 67.0036H325.436V66.1351H326.855C327.14 66.1351 327.373 66.0896 327.554 65.9984C327.736 65.9073 327.87 65.782 327.956 65.6225C328.045 65.4631 328.089 65.2799 328.089 65.0729C328.089 64.866 328.045 64.6838 327.956 64.5262C327.87 64.3686 327.735 64.2462 327.551 64.1588C327.37 64.0696 327.136 64.025 326.849 64.025H325.798V68.9742H324.65Z" fill="#838282"/>
<path d="M333.698 64.7455C333.669 64.4968 333.547 64.3031 333.333 64.1645C333.12 64.026 332.844 63.9567 332.504 63.9567C332.265 63.9567 332.059 63.9899 331.888 64.0563C331.717 64.1228 331.586 64.213 331.495 64.3269C331.405 64.4408 331.358 64.5708 331.356 64.717C331.356 64.8385 331.386 64.9438 331.446 65.0331C331.508 65.1223 331.591 65.1982 331.697 65.2609C331.802 65.3216 331.918 65.3729 332.046 65.4147C332.174 65.4564 332.303 65.4915 332.433 65.52L333.026 65.6567C333.266 65.708 333.496 65.7773 333.716 65.8646C333.939 65.9519 334.138 66.062 334.313 66.1949C334.49 66.3278 334.631 66.4882 334.734 66.6762C334.837 66.8641 334.888 67.0843 334.888 67.3368C334.888 67.6785 334.793 67.9794 334.604 68.2395C334.414 68.4977 334.14 68.6999 333.781 68.8461C333.424 68.9904 332.992 69.0625 332.485 69.0625C331.992 69.0625 331.565 68.9923 331.202 68.8518C330.841 68.7113 330.558 68.5063 330.354 68.2367C330.152 67.9671 330.043 67.6387 330.026 67.2514H331.155C331.172 67.4545 331.24 67.6235 331.359 67.7583C331.479 67.8931 331.635 67.9937 331.826 68.0601C332.02 68.1266 332.237 68.1598 332.476 68.1598C332.725 68.1598 332.944 68.1256 333.132 68.0573C333.321 67.987 333.47 67.8902 333.577 67.7668C333.684 67.6415 333.739 67.4953 333.741 67.3283C333.739 67.1764 333.69 67.0511 333.596 66.9524C333.501 66.8518 333.368 66.7682 333.197 66.7018C333.027 66.6335 332.83 66.5727 332.603 66.5195L331.882 66.3487C331.36 66.2253 330.948 66.0383 330.645 65.7877C330.344 65.5352 330.193 65.2001 330.193 64.7825C330.193 64.4389 330.294 64.138 330.496 63.8798C330.701 63.6216 330.978 63.4213 331.328 63.2789C331.679 63.1346 332.076 63.0625 332.519 63.0625C332.969 63.0625 333.363 63.1346 333.701 63.2789C334.041 63.4213 334.308 63.6197 334.502 63.8741C334.696 64.1266 334.796 64.417 334.802 64.7455H333.698Z" fill="#838282"/>
<path d="M337.232 63.1422L337.13 67.2599H336.134L336.035 63.1422H337.232ZM336.632 69.0369C336.444 69.0369 336.283 68.9761 336.149 68.8546C336.017 68.7331 335.951 68.585 335.951 68.4104C335.951 68.2395 336.017 68.0933 336.149 67.9718C336.283 67.8503 336.444 67.7896 336.632 67.7896C336.815 67.7896 336.974 67.8503 337.108 67.9718C337.244 68.0933 337.312 68.2395 337.312 68.4104C337.312 68.5262 337.28 68.6316 337.216 68.7265C337.155 68.8214 337.072 68.8973 336.969 68.9543C336.868 69.0093 336.756 69.0369 336.632 69.0369Z" fill="#838282"/>
<path d="M339.92 63.1422L339.818 67.2599H338.822L338.723 63.1422H339.92ZM339.32 69.0369C339.132 69.0369 338.971 68.9761 338.837 68.8546C338.705 68.7331 338.639 68.585 338.639 68.4104C338.639 68.2395 338.705 68.0933 338.837 67.9718C338.971 67.8503 339.132 67.7896 339.32 67.7896C339.503 67.7896 339.662 67.8503 339.796 67.9718C339.932 68.0933 340 68.2395 340 68.4104C340 68.5262 339.968 68.6316 339.904 68.7265C339.842 68.8214 339.76 68.8973 339.657 68.9543C339.556 69.0093 339.443 69.0369 339.32 69.0369Z" fill="#838282"/>
<path d="M317.394 76.0754V79.75H316.723L315.124 77.4372H315.097V79.75H314.32V76.0754H315.002L316.588 78.3864H316.62V76.0754H317.394ZM321.412 77.9127C321.412 78.3134 321.336 78.6543 321.185 78.9354C321.034 79.2165 320.828 79.4312 320.567 79.5795C320.308 79.7267 320.016 79.8002 319.692 79.8002C319.365 79.8002 319.072 79.7261 318.813 79.5778C318.553 79.4294 318.348 79.2147 318.197 78.9336C318.046 78.6525 317.971 78.3122 317.971 77.9127C317.971 77.512 318.046 77.1711 318.197 76.89C318.348 76.6089 318.553 76.3947 318.813 76.2476C319.072 76.0993 319.365 76.0251 319.692 76.0251C320.016 76.0251 320.308 76.0993 320.567 76.2476C320.828 76.3947 321.034 76.6089 321.185 76.89C321.336 77.1711 321.412 77.512 321.412 77.9127ZM320.625 77.9127C320.625 77.6531 320.586 77.4342 320.508 77.256C320.432 77.0778 320.323 76.9426 320.183 76.8505C320.043 76.7584 319.88 76.7123 319.692 76.7123C319.504 76.7123 319.34 76.7584 319.2 76.8505C319.06 76.9426 318.951 77.0778 318.874 77.256C318.797 77.4342 318.759 77.6531 318.759 77.9127C318.759 78.1722 318.797 78.3911 318.874 78.5694C318.951 78.7476 319.06 78.8828 319.2 78.9749C319.34 79.067 319.504 79.113 319.692 79.113C319.88 79.113 320.043 79.067 320.183 78.9749C320.323 78.8828 320.432 78.7476 320.508 78.5694C320.586 78.3911 320.625 78.1722 320.625 77.9127ZM326.4 77.3618H325.614C325.599 77.2602 325.57 77.1699 325.526 77.0909C325.482 77.0108 325.425 76.9426 325.355 76.8864C325.286 76.8301 325.206 76.7871 325.115 76.7572C325.025 76.7273 324.928 76.7123 324.822 76.7123C324.632 76.7123 324.467 76.7596 324.325 76.8541C324.184 76.9474 324.075 77.0837 323.997 77.2632C323.919 77.4414 323.88 77.6579 323.88 77.9127C323.88 78.1746 323.919 78.3947 323.997 78.573C324.076 78.7512 324.186 78.8858 324.327 78.9767C324.468 79.0676 324.632 79.113 324.817 79.113C324.921 79.113 325.017 79.0993 325.106 79.0718C325.196 79.0443 325.275 79.0042 325.345 78.9516C325.414 78.8977 325.471 78.8325 325.517 78.756C325.563 78.6794 325.596 78.5921 325.614 78.494L326.4 78.4976C326.379 78.6663 326.328 78.8289 326.247 78.9856C326.167 79.1411 326.059 79.2805 325.922 79.4037C325.787 79.5257 325.626 79.6226 325.438 79.6944C325.251 79.765 325.04 79.8002 324.805 79.8002C324.477 79.8002 324.184 79.7261 323.925 79.5778C323.668 79.4294 323.465 79.2147 323.315 78.9336C323.167 78.6525 323.093 78.3122 323.093 77.9127C323.093 77.512 323.168 77.1711 323.319 76.89C323.47 76.6089 323.674 76.3947 323.932 76.2476C324.191 76.0993 324.482 76.0251 324.805 76.0251C325.017 76.0251 325.215 76.055 325.397 76.1148C325.58 76.1746 325.742 76.262 325.883 76.3768C326.024 76.4904 326.139 76.6298 326.227 76.7949C326.317 76.9599 326.374 77.1489 326.4 77.3618ZM327.521 79.75H326.688L327.957 76.0754H328.958L330.225 79.75H329.392L328.472 76.9151H328.443L327.521 79.75ZM327.469 78.3056H329.435V78.9121H327.469V78.3056ZM330.667 79.75V76.0754H332.139C332.409 76.0754 332.634 76.1154 332.815 76.1956C332.996 76.2757 333.131 76.387 333.222 76.5293C333.313 76.6705 333.359 76.8331 333.359 77.0173C333.359 77.1609 333.33 77.2871 333.273 77.3959C333.215 77.5036 333.136 77.5921 333.036 77.6615C332.936 77.7297 332.823 77.7781 332.695 77.8068V77.8427C332.835 77.8487 332.966 77.8882 333.088 77.9611C333.211 78.0341 333.311 78.1364 333.387 78.2679C333.464 78.3983 333.502 78.5538 333.502 78.7344C333.502 78.9294 333.454 79.1035 333.357 79.2566C333.261 79.4085 333.119 79.5287 332.932 79.6172C332.744 79.7057 332.512 79.75 332.237 79.75H330.667ZM331.444 79.1148H332.078C332.294 79.1148 332.452 79.0736 332.551 78.991C332.65 78.9073 332.7 78.7961 332.7 78.6573C332.7 78.5556 332.676 78.4659 332.627 78.3882C332.578 78.3104 332.508 78.2494 332.417 78.2051C332.327 78.1609 332.22 78.1388 332.095 78.1388H331.444V79.1148ZM331.444 77.613H332.02C332.127 77.613 332.221 77.5945 332.304 77.5574C332.387 77.5191 332.453 77.4653 332.501 77.3959C332.55 77.3266 332.575 77.2434 332.575 77.1465C332.575 77.0138 332.527 76.9067 332.433 76.8254C332.339 76.744 332.207 76.7033 332.034 76.7033H331.444V77.613ZM336.001 77.1322C335.987 76.9874 335.925 76.875 335.816 76.7949C335.707 76.7147 335.56 76.6746 335.373 76.6746C335.246 76.6746 335.139 76.6926 335.052 76.7285C334.965 76.7632 334.898 76.8116 334.851 76.8738C334.806 76.936 334.783 77.0066 334.783 77.0855C334.78 77.1513 334.794 77.2087 334.824 77.2578C334.855 77.3068 334.898 77.3493 334.951 77.3852C335.005 77.4199 335.068 77.4504 335.138 77.4767C335.209 77.5018 335.284 77.5233 335.364 77.5413L335.694 77.6202C335.855 77.6561 336.002 77.7039 336.136 77.7638C336.27 77.8236 336.386 77.8971 336.484 77.9844C336.582 78.0718 336.658 78.1746 336.712 78.2931C336.767 78.4115 336.795 78.5472 336.796 78.7004C336.795 78.9252 336.737 79.1202 336.624 79.2853C336.511 79.4492 336.349 79.5766 336.136 79.6675C335.924 79.7572 335.669 79.802 335.37 79.802C335.073 79.802 334.815 79.7566 334.594 79.6657C334.376 79.5748 334.204 79.4402 334.081 79.262C333.959 79.0825 333.895 78.8606 333.889 78.5963H334.641C334.649 78.7195 334.685 78.8224 334.747 78.9049C334.81 78.9862 334.895 79.0478 335 79.0897C335.106 79.1304 335.227 79.1507 335.361 79.1507C335.492 79.1507 335.606 79.1316 335.703 79.0933C335.801 79.055 335.877 79.0018 335.931 78.9336C335.985 78.8654 336.012 78.7871 336.012 78.6986C336.012 78.616 335.987 78.5467 335.938 78.4904C335.89 78.4342 335.82 78.3864 335.727 78.3469C335.634 78.3074 335.521 78.2715 335.387 78.2392L334.987 78.1388C334.678 78.0634 334.433 77.9456 334.254 77.7853C334.074 77.625 333.985 77.4091 333.986 77.1376C333.985 76.9151 334.044 76.7207 334.164 76.5544C334.285 76.3882 334.45 76.2584 334.661 76.1651C334.871 76.0718 335.111 76.0251 335.379 76.0251C335.651 76.0251 335.889 76.0718 336.093 76.1651C336.297 76.2584 336.456 76.3882 336.57 76.5544C336.684 76.7207 336.742 76.9133 336.746 77.1322H336.001ZM316.827 85.75V82.0754H319.26V82.7159H317.604V83.5915H319.098V84.2321H317.604V85.75H316.827ZM323.159 83.9127C323.159 84.3134 323.083 84.6543 322.931 84.9354C322.781 85.2165 322.575 85.4312 322.314 85.5795C322.055 85.7267 321.763 85.8002 321.438 85.8002C321.112 85.8002 320.819 85.7261 320.559 85.5778C320.3 85.4294 320.095 85.2147 319.944 84.9336C319.793 84.6525 319.718 84.3122 319.718 83.9127C319.718 83.512 319.793 83.1711 319.944 82.89C320.095 82.6089 320.3 82.3947 320.559 82.2476C320.819 82.0993 321.112 82.0251 321.438 82.0251C321.763 82.0251 322.055 82.0993 322.314 82.2476C322.575 82.3947 322.781 82.6089 322.931 82.89C323.083 83.1711 323.159 83.512 323.159 83.9127ZM322.371 83.9127C322.371 83.6531 322.333 83.4342 322.255 83.256C322.178 83.0778 322.07 82.9426 321.93 82.8505C321.79 82.7584 321.626 82.7123 321.438 82.7123C321.251 82.7123 321.087 82.7584 320.947 82.8505C320.807 82.9426 320.698 83.0778 320.62 83.256C320.544 83.4342 320.505 83.6531 320.505 83.9127C320.505 84.1722 320.544 84.3911 320.62 84.5694C320.698 84.7476 320.807 84.8828 320.947 84.9749C321.087 85.067 321.251 85.113 321.438 85.113C321.626 85.113 321.79 85.067 321.93 84.9749C322.07 84.8828 322.178 84.7476 322.255 84.5694C322.333 84.3911 322.371 84.1722 322.371 83.9127ZM326.004 82.0754H326.781V84.4617C326.781 84.7297 326.717 84.9641 326.589 85.1651C326.463 85.366 326.285 85.5227 326.056 85.6352C325.828 85.7464 325.562 85.802 325.258 85.802C324.953 85.802 324.686 85.7464 324.458 85.6352C324.229 85.5227 324.052 85.366 323.925 85.1651C323.798 84.9641 323.735 84.7297 323.735 84.4617V82.0754H324.512V84.3953C324.512 84.5353 324.542 84.6597 324.603 84.7685C324.665 84.8774 324.753 84.9629 324.865 85.0251C324.977 85.0873 325.108 85.1184 325.258 85.1184C325.409 85.1184 325.54 85.0873 325.651 85.0251C325.763 84.9629 325.85 84.8774 325.911 84.7685C325.973 84.6597 326.004 84.5353 326.004 84.3953V82.0754ZM330.494 82.0754V85.75H329.823L328.224 83.4372H328.197V85.75H327.421V82.0754H328.102L329.688 84.3864H329.721V82.0754H330.494ZM332.439 85.75H331.136V82.0754H332.449C332.819 82.0754 333.137 82.1489 333.404 82.2961C333.671 82.442 333.876 82.6519 334.019 82.9258C334.164 83.1998 334.236 83.5275 334.236 83.9091C334.236 84.2919 334.164 84.6208 334.019 84.8959C333.876 85.1711 333.669 85.3822 333.4 85.5293C333.132 85.6764 332.812 85.75 332.439 85.75ZM331.913 85.0843H332.406C332.636 85.0843 332.829 85.0437 332.986 84.9623C333.144 84.8798 333.262 84.7524 333.341 84.5801C333.421 84.4067 333.461 84.183 333.461 83.9091C333.461 83.6376 333.421 83.4157 333.341 83.2434C333.262 83.0712 333.144 82.9444 332.988 82.863C332.831 82.7817 332.638 82.741 332.408 82.741H331.913V85.0843Z" fill="#838282"/>
<path d="M10 148.062H327.908C331.875 148.396 339.638 150.862 338.958 158.062" stroke="#A7A7A7"/>
<path d="M267.622 128.035C268.029 128.057 268.437 128.057 268.843 128.035C269.301 127.988 269.983 128.335 270 127.433C270.016 126.462 269.275 126.808 268.792 126.787C267.848 126.745 266.899 126.787 265.942 126.77C265.71 126.77 265.309 126.884 265.332 126.487C265.348 126.219 265.684 126.243 265.914 126.242C266.997 126.242 268.08 126.23 269.171 126.242C269.662 126.242 270.002 126.219 270 125.603C269.998 124.988 269.603 124.993 269.143 124.995C268.06 124.995 266.979 124.995 265.896 124.995C265.659 124.995 265.346 124.995 265.334 124.722C265.321 124.406 265.659 124.465 265.875 124.463C266.993 124.454 268.115 124.437 269.224 124.463C269.784 124.479 270.008 124.33 269.998 123.774C269.988 123.217 269.733 123.147 269.246 123.156C268.165 123.177 267.082 123.171 265.989 123.156C265.753 123.156 265.352 123.282 265.336 122.924C265.319 122.567 265.71 122.632 265.963 122.63C267.046 122.63 268.129 122.592 269.21 122.63C269.869 122.657 269.988 122.391 269.99 121.851C269.992 121.312 269.871 121.036 269.206 121.065C268.188 121.11 267.17 121.065 266.162 121.08C264.878 121.099 264.11 121.728 264.045 122.909C263.985 124.013 263.985 125.119 264.045 126.223C264.104 127.347 264.886 127.995 266.091 128.026C266.606 128.046 267.115 128.035 267.622 128.035Z" fill="white"/>
<rect x="56" y="112.062" width="1" height="11" fill="#A8A8A8"/>
<g opacity="0.7">
<path d="M81.5469 127.526C81.5469 127.526 121.339 134.129 121.816 133.843C122.294 133.557 127.447 111.323 127.447 111.323C127.447 111.323 94.541 105.406 94.0081 105.406C93.4751 105.406 86.3182 111.132 86.2228 111.514C86.1274 111.895 81.5469 127.526 81.5469 127.526Z" fill="#9A9A9A"/>
<path d="M202.93 133.163C203.884 133.258 252.074 132.226 252.074 132.226L248.448 121.139C248.448 121.139 241.768 111.038 238.237 111.222C234.707 111.406 213.709 108.001 210.085 110.515C206.461 113.028 203.216 111.024 201.499 117.036C199.781 123.048 198.441 123.721 199.779 127.345C201.117 130.968 202.93 133.163 202.93 133.163Z" fill="#9A9A9A"/>
<path d="M118.059 131.516C118.079 122.455 110.752 115.093 101.693 115.073C92.6344 115.053 85.2748 122.382 85.2548 131.444C85.2349 140.506 92.5622 147.868 101.621 147.888C110.679 147.908 118.039 140.578 118.059 131.516Z" fill="#4D4D4D"/>
<path d="M101.646 142.886C107.949 142.886 113.058 137.775 113.058 131.471C113.058 125.166 107.949 120.055 101.646 120.055C95.3437 120.055 90.2344 125.166 90.2344 131.471C90.2344 137.775 95.3437 142.886 101.646 142.886Z" fill="#9E9DA2"/>
<path d="M101.655 139.113C105.871 139.113 109.288 135.695 109.288 131.478C109.288 127.262 105.871 123.844 101.655 123.844C97.4404 123.844 94.0234 127.262 94.0234 131.478C94.0234 135.695 97.4404 139.113 101.655 139.113Z" fill="#D8D9DD"/>
<path d="M244.332 131.516C244.352 122.455 237.025 115.093 227.966 115.073C218.908 115.053 211.548 122.382 211.528 131.444C211.508 140.506 218.836 147.868 227.894 147.888C236.953 147.908 244.312 140.578 244.332 131.516Z" fill="#4D4D4D"/>
<path d="M227.92 142.902C234.223 142.902 239.332 137.791 239.332 131.486C239.332 125.181 234.223 120.07 227.92 120.07C221.617 120.07 216.508 125.181 216.508 131.486C216.508 137.791 221.617 142.902 227.92 142.902Z" fill="#9E9DA2"/>
<path d="M227.913 139.113C232.129 139.113 235.546 135.695 235.546 131.478C235.546 127.262 232.129 123.844 227.913 123.844C223.698 123.844 220.281 127.262 220.281 131.478C220.281 135.695 223.698 139.113 227.913 139.113Z" fill="#D8D9DD"/>
<path d="M265.584 115.862C264.197 106.718 259.715 104.797 246.454 102.145C231.822 99.2189 213.246 89.6764 213.246 89.6764C213.246 89.6764 181.565 74.1538 173.804 72.3725C166.043 70.5913 146.958 71.1002 130.926 71.2274C114.895 71.3547 105.479 75.8078 97.3363 82.1696C89.1933 88.5312 75.0704 93.3661 75.0704 93.3661L72.5048 93.8242C69.8665 94.2953 67.9453 96.5899 67.9453 99.2699V121.96C67.9453 124.53 69.6759 126.777 72.1598 127.433L81.432 129.882C82.1872 130.012 82.8893 129.475 82.9726 128.714C83.9881 119.431 92.0126 112.376 101.582 112.388C111.757 112.4 120.102 120.761 120.095 130.936C120.094 132.092 119.987 133.223 119.784 134.321C119.573 135.454 120.444 136.498 121.596 136.498H206.931C208.589 136.498 209.877 135.041 209.657 133.398C209.551 132.607 209.496 131.8 209.493 130.981C209.463 120.931 217.59 112.599 227.638 112.392C238.054 112.177 246.566 120.556 246.566 130.924C246.566 131.61 246.528 132.288 246.455 132.955C246.249 134.844 247.71 136.498 249.61 136.498H261.881C264.112 136.498 265.921 134.69 265.921 132.459V120.573C265.921 118.997 265.82 117.421 265.584 115.862Z" fill="#DEDEDE"/>
<path d="M68.4916 101.953H78.5982C79.4639 101.953 80.0503 102.835 79.7157 103.633L78.5803 106.342C77.4979 108.925 74.9714 110.605 72.1714 110.605H68.4916C67.7714 110.605 67.1875 110.021 67.1875 109.301V103.257C67.1875 102.537 67.7714 101.953 68.4916 101.953Z" fill="#8D8D8D"/>
<path d="M249.502 106.15C255.068 107.002 261.478 112.273 261.478 112.273C263.01 113.919 261.744 116.592 259.5 116.451L248.648 115.765C246.394 115.622 244.472 114.081 243.843 111.911C242.788 108.267 243.686 105.259 249.502 106.15Z" fill="#F3FCFF"/>
<path d="M68.0012 122.805C67.3055 122.788 66.8123 123.487 67.0689 124.134C67.7948 125.963 69.3515 127.401 71.342 127.927L81.7315 130.671C82.5776 130.817 83.3643 130.215 83.4577 129.362C83.6501 127.603 84.07 125.916 84.6832 124.327C84.8909 123.788 84.4991 123.208 83.9221 123.194L68.0012 122.805Z" fill="#CDCDCD"/>
<path d="M246.652 127.086C245.863 127.067 245.254 127.759 245.355 128.542C245.467 129.412 245.525 130.3 245.525 131.2C245.525 131.962 245.484 132.714 245.403 133.454C245.174 135.55 246.796 137.386 248.904 137.386H262.52C264.995 137.386 267.002 135.379 267.002 132.903V129.379C267.002 128.38 266.205 127.564 265.206 127.539L246.652 127.086Z" fill="#CDCDCD"/>
<path opacity="0.5" d="M213.263 94.9309C213.082 94.8316 195.044 84.9354 183.082 79.3949C171.239 73.9098 158.019 74.4913 157.449 74.5201C155.93 74.4852 124.3 73.7993 114.576 76.83C104.781 79.8832 92.0229 93.7912 91.4846 94.3817L91.3359 94.5448L94.7668 110.643L95.1342 110.622C105.111 110.059 112.749 112.715 117.219 118.301C120.598 122.524 121.016 126.984 121.02 127.028L121.052 127.411L157.025 128.336V128.338L157.441 128.346L157.884 128.358V128.355L208.008 129.333L208.014 128.902C208.265 112.613 213.414 95.6027 213.466 95.4329L213.569 95.0988L213.263 94.9309ZM121.829 126.572C121.656 125.364 120.898 121.542 117.919 117.8C114.708 113.768 108.21 109.121 95.4537 109.745L92.2684 94.7991C93.7451 93.2119 105.814 80.4608 114.832 77.6499C123.855 74.8377 153.161 75.2967 157.025 75.3704V127.476L121.829 126.572ZM207.163 128.457L157.884 127.496V75.3632C160.203 75.2962 172.039 75.2267 182.721 80.1742C193.802 85.3068 210.123 94.1929 212.546 95.5173C211.827 97.9733 207.472 113.446 207.163 128.457Z" fill="#D8D8D8"/>
<path opacity="0.5" d="M67.0625 124.133C67.7884 125.962 69.3451 127.4 71.3356 127.926L81.725 130.67C82.5712 130.816 83.3579 130.214 83.4513 129.361C83.5255 128.682 83.6345 128.014 83.7747 127.358L67.0625 124.133Z" fill="#D0D0D0"/>
<path opacity="0.5" d="M245.503 132.164C245.483 132.597 245.451 133.027 245.404 133.453C245.175 135.549 246.797 137.385 248.906 137.385H262.521C264.997 137.385 267.004 135.378 267.004 132.903V132.164H245.503Z" fill="#D0D0D0"/>
<path d="M210.299 132.154C210.297 131.225 210.363 130.31 210.493 129.415C210.65 128.339 209.848 127.365 208.762 127.339L120.005 125.172C119.037 125.149 118.339 126.073 118.603 127.004C119.064 128.63 119.31 130.342 119.309 132.108C119.308 133.278 119.2 134.424 118.995 135.535C118.781 136.695 119.657 137.77 120.837 137.77H207.691C209.395 137.77 210.683 136.263 210.461 134.573C210.357 133.781 210.302 132.974 210.299 132.154Z" fill="#CDCDCD"/>
<path opacity="0.5" d="M210.289 132.155C210.289 132.14 210.29 132.125 210.29 132.109H119.299C119.298 133.28 119.191 134.425 118.986 135.536C118.771 136.697 119.647 137.771 120.827 137.771H207.681C209.385 137.771 210.673 136.264 210.451 134.575C210.347 133.783 210.292 132.975 210.289 132.155Z" fill="#D0D0D0"/>
<path d="M111.416 101.378H100.342C100.08 101.378 99.8672 101.165 99.8672 100.903V99.9126C99.8672 99.6503 100.08 99.4375 100.342 99.4375H111.416C111.678 99.4375 111.891 99.6502 111.891 99.9126V100.903C111.891 101.165 111.678 101.378 111.416 101.378Z" fill="#CDCDCD"/>
<path d="M172.463 102.354H161.389C161.127 102.354 160.914 102.142 160.914 101.879V100.889C160.914 100.627 161.127 100.414 161.389 100.414H172.463C172.725 100.414 172.938 100.627 172.938 100.889V101.879C172.938 102.142 172.725 102.354 172.463 102.354Z" fill="#CDCDCD"/>
<path d="M101.988 96.4497L151.039 96.9132C151.039 96.9132 154.042 96.8324 154.45 94.0074C154.859 91.1823 154.824 79.0825 154.824 79.0825C154.824 79.0825 154.468 76.6532 152.141 76.622C150.727 76.603 138.877 75.7561 127.35 77.1601C117.948 78.3055 109.249 82.6 102.655 89.1964L99.1734 92.6794C99.1734 92.6794 96.8251 96.4009 101.988 96.4497Z" fill="#A8A8A8"/>
<path d="M160.281 80.6162V93.3025C160.281 94.9507 161.546 96.3045 163.145 96.3689L201.688 97.9187C202.573 97.9543 203.439 97.5545 203.946 96.8071C204.638 95.7874 204.718 94.1099 201.265 91.8609C195.258 87.95 179.978 79.4911 174.325 78.6725C170.727 78.1515 166.019 77.9253 163.073 77.8295C161.545 77.7801 160.281 79.0421 160.281 80.6162Z" fill="#A8A8A8"/>
</g>
</svg>
