<svg width="19" height="18" viewBox="0 0 19 18" fill="none" xmlns="http://www.w3.org/2000/svg">
<path d="M12.3919 11.8928C14.369 8.88722 14.1204 9.2622 14.1774 9.18383C14.8972 8.20023 15.2777 7.04257 15.2777 5.83594C15.2777 2.63602 12.5974 0 9.29002 0C5.99346 0 3.30234 2.63081 3.30234 5.83594C3.30234 7.0418 3.69078 8.22976 4.43419 9.22662L6.18811 11.8929C4.31288 12.172 1.125 13.004 1.125 14.8359C1.125 15.5037 1.57491 16.4554 3.71828 17.197C5.21491 17.7148 7.19364 18 9.29002 18C13.2101 18 17.455 16.9287 17.455 14.8359C17.455 13.0037 14.2709 12.1726 12.3919 11.8928ZM5.34356 8.6465C5.33757 8.63743 5.33133 8.62857 5.3248 8.61985C4.70618 7.79537 4.39101 6.81824 4.39101 5.83594C4.39101 3.19859 6.58308 1.05469 9.29002 1.05469C11.9913 1.05469 14.189 3.19954 14.189 5.83594C14.189 6.81982 13.8798 7.7638 13.2947 8.56656C13.2422 8.63357 13.5158 8.22182 9.29002 14.6457L5.34356 8.6465ZM9.29002 16.9453C5.00814 16.9453 2.21367 15.726 2.21367 14.8359C2.21367 14.2377 3.64955 13.2541 6.83137 12.8707L8.83096 15.9104C8.9309 16.0623 9.104 16.1543 9.28998 16.1543C9.47596 16.1543 9.6491 16.0623 9.749 15.9104L11.7486 12.8707C14.9305 13.2541 16.3664 14.2377 16.3664 14.8359C16.3664 15.7184 13.597 16.9453 9.29002 16.9453Z" fill="#BABABA"/>
<path d="M9.29003 3.19922C7.7893 3.19922 6.56836 4.38205 6.56836 5.83594C6.56836 7.28982 7.7893 8.47266 9.29003 8.47266C10.7908 8.47266 12.0117 7.28982 12.0117 5.83594C12.0117 4.38205 10.7908 3.19922 9.29003 3.19922ZM9.29003 7.41797C8.38959 7.41797 7.65703 6.70827 7.65703 5.83594C7.65703 4.96361 8.38959 4.25391 9.29003 4.25391C10.1905 4.25391 10.923 4.96361 10.923 5.83594C10.923 6.70827 10.1905 7.41797 9.29003 7.41797Z" fill="#BABABA"/>
</svg>
