<svg width="84" height="84" viewBox="0 0 84 84" fill="none" xmlns="http://www.w3.org/2000/svg">
<rect width="84" height="84" rx="42" fill="#CCCCCC"/>
<path d="M51.9794 32.8615H27.2656L29.7556 27.734C30.0694 27.0877 30.7244 26.6777 31.4431 26.6777H47.8019C48.5206 26.6777 49.1756 27.0877 49.4894 27.734L51.9794 32.8615Z" fill="#304878"/>
<path d="M64.125 44.4076V47.3226C64.125 48.3576 63.285 49.1976 62.25 49.1976H61.7325C61.7325 44.8651 58.2075 41.3413 53.875 41.3413C49.5425 41.3413 46.0188 44.8651 46.0188 49.1976H37.9825C37.9825 44.8651 34.4575 41.3413 30.125 41.3413C25.7925 41.3413 22.2688 44.8651 22.2688 49.1976H21.75C20.715 49.1976 19.875 48.3576 19.875 47.3226V38.4863C19.875 37.4501 20.715 36.6113 21.75 36.6113H56.3275C60.6275 36.6113 64.125 40.1088 64.125 44.4076Z" fill="#304878"/>
<path d="M53.8764 53.3046C56.1446 53.3046 57.9833 51.4659 57.9833 49.1977C57.9833 46.9295 56.1446 45.0908 53.8764 45.0908C51.6082 45.0908 49.7695 46.9295 49.7695 49.1977C49.7695 51.4659 51.6082 53.3046 53.8764 53.3046Z" fill="#304878"/>
<path d="M30.1264 53.3046C32.3946 53.3046 34.2333 51.4659 34.2333 49.1977C34.2333 46.9295 32.3946 45.0908 30.1264 45.0908C27.8582 45.0908 26.0195 46.9295 26.0195 49.1977C26.0195 51.4659 27.8582 53.3046 30.1264 53.3046Z" fill="#304878"/>
<path d="M14.0086 38.1765C14.9115 31.5418 18.1608 25.4245 23.1575 20.9517C28.1543 16.479 34.5928 13.9245 41.2868 13.7587C46.4867 13.6307 51.6044 14.9394 56.0592 17.4912L54.1627 17.9095C53.1514 18.1325 52.5124 19.1331 52.7354 20.1442C52.9542 21.1627 53.9852 21.7969 54.9703 21.5714L61.1028 20.2189C62.0759 20.0287 62.7553 19.0065 62.5547 18.0359L61.3828 11.8527C61.1899 10.8352 60.2083 10.1667 59.1914 10.3596C58.1739 10.5525 57.5054 11.5336 57.6983 12.551L58.0297 14.2992C52.9584 11.3681 47.1237 9.86261 41.194 10.0099C33.61 10.1975 26.3163 13.0911 20.6563 18.1576C14.9963 23.2241 11.3158 30.154 10.2928 37.6709C9.28151 45.1019 10.9094 52.6733 14.8765 58.9903C15.4306 59.8747 16.5979 60.1269 17.4616 59.5809C18.3386 59.0302 18.603 57.8728 18.0523 56.9959C14.5518 51.4218 13.1156 44.7383 14.0086 38.1765Z" fill="white"/>
<path d="M69.1234 25.0099C68.5727 24.1329 67.4153 23.8685 66.5383 24.4193C65.6613 24.97 65.3969 26.1274 65.9477 27.0043C69.4483 32.5783 70.8843 39.2618 69.9913 45.8235C69.0884 52.4583 65.8393 58.5756 60.8424 63.0483C55.6753 67.6774 48.941 70.2539 42.0128 70.2499C37.0537 70.2498 32.1945 68.9463 27.9403 66.5089L29.8373 66.0906C30.8485 65.8676 31.4875 64.8669 31.2645 63.8558C31.0414 62.8444 30.0403 62.2054 29.0297 62.4287L22.8969 63.7812C21.9239 63.9714 21.2448 64.9936 21.4454 65.9642L22.6173 72.1473C22.8054 73.1711 23.816 73.8363 24.8086 73.6404C25.8261 73.4476 26.4946 72.4664 26.3018 71.4491L25.9708 69.7024C30.8153 72.5024 36.3569 74.0001 42.0133 73.9999C49.8622 74.0043 57.4907 71.0857 63.3436 65.8424C69.0036 60.7759 72.6841 53.8461 73.7071 46.3292C74.7184 38.8983 73.0906 31.3269 69.1234 25.0099Z" fill="white"/>
</svg>
