<svg width="56" height="56" viewBox="0 0 56 56" fill="none" xmlns="http://www.w3.org/2000/svg">
<path d="M0 7.5C0 5.575 1.575 4 3.5 4H42C43.925 4 45.5 5.575 45.5 7.5C45.5 9.425 43.925 11 42 11H3.5C1.575 11 0 9.425 0 7.5ZM3.5 25H42C43.925 25 45.5 23.425 45.5 21.5C45.5 19.575 43.925 18 42 18H3.5C1.575 18 0 19.575 0 21.5C0 23.425 1.575 25 3.5 25ZM24.5 32H3.5C1.575 32 0 33.575 0 35.5C0 37.425 1.575 39 3.5 39H24.5C26.425 39 28 37.425 28 35.5C28 33.575 26.425 32 24.5 32Z" fill="white"/>
<path d="M40.5 29C35.2903 29 31 33.2903 31 38.5C31 43.7097 35.2903 48 40.5 48C45.7097 48 50 43.7097 50 38.5C50 33.2903 45.7097 29 40.5 29ZM44.3 39.7258H41.7258V42.2387C41.7258 42.9129 41.1742 43.4645 40.5 43.4645C39.8258 43.4645 39.2742 42.9129 39.2742 42.2387V39.7258H36.7613C36.0871 39.7258 35.5355 39.1742 35.5355 38.5C35.5355 37.8258 36.0871 37.2742 36.7613 37.2742H39.2742V34.7613C39.2742 34.0871 39.8258 33.5355 40.5 33.5355C41.1742 33.5355 41.7258 34.0871 41.7258 34.7613V37.2742H44.2387C44.9129 37.2742 45.4645 37.8258 45.4645 38.5C45.4645 39.1742 44.9742 39.7258 44.3 39.7258Z" fill="white"/>
</svg>
