<svg width="9" height="9" viewBox="0 0 9 9" fill="none" xmlns="http://www.w3.org/2000/svg">
<g clip-path="url(#clip0_20586_575)">
<mask id="mask0_20586_575" style="mask-type:luminance" maskUnits="userSpaceOnUse" x="0" y="0" width="9" height="9">
<path d="M9 0H0V9H9V0Z" fill="white"/>
</mask>
<g mask="url(#mask0_20586_575)">
<path d="M1.60714 0C0.722346 0 0 0.722346 0 1.60714V7.39286C0 8.27762 0.722346 9 1.60714 9H7.39286C8.27762 9 9 8.27762 9 7.39286V4.17857C9 4.09332 8.96612 4.01156 8.90589 3.95129C8.84559 3.89101 8.76381 3.85714 8.67857 3.85714C8.59333 3.85714 8.51156 3.89101 8.45126 3.95129C8.39102 4.01156 8.35714 4.09332 8.35714 4.17857V7.39286C8.35714 7.9326 7.9326 8.35714 7.39286 8.35714H1.60714C1.06737 8.35714 0.642857 7.9326 0.642857 7.39286V1.60714C0.642857 1.06737 1.06737 0.642857 1.60714 0.642857H4.5C4.58525 0.642857 4.66701 0.608993 4.72728 0.548713C4.78756 0.488433 4.82143 0.406677 4.82143 0.321429C4.82143 0.236181 4.78756 0.154424 4.72728 0.0941445C4.66701 0.0338647 4.58525 0 4.5 0H1.60714Z" fill="white"/>
<mask id="mask1_20586_575" style="mask-type:luminance" maskUnits="userSpaceOnUse" x="0" y="0" width="9" height="9">
<path d="M1.60714 0C0.722346 0 0 0.722346 0 1.60714V7.39286C0 8.27762 0.722346 9 1.60714 9H7.39286C8.27762 9 9 8.27762 9 7.39286V4.17857C9 4.09332 8.96612 4.01156 8.90589 3.95129C8.84559 3.89101 8.76381 3.85714 8.67857 3.85714C8.59333 3.85714 8.51156 3.89101 8.45126 3.95129C8.39102 4.01156 8.35714 4.09332 8.35714 4.17857V7.39286C8.35714 7.9326 7.9326 8.35714 7.39286 8.35714H1.60714C1.06737 8.35714 0.642857 7.9326 0.642857 7.39286V1.60714C0.642857 1.06737 1.06737 0.642857 1.60714 0.642857H4.5C4.58525 0.642857 4.66701 0.608993 4.72728 0.548713C4.78756 0.488433 4.82143 0.406677 4.82143 0.321429C4.82143 0.236181 4.78756 0.154424 4.72728 0.0941445C4.66701 0.0338647 4.58525 0 4.5 0H1.60714Z" fill="white"/>
</mask>
<g mask="url(#mask1_20586_575)">
<path d="M1.60836 -11.7549C-5.7686 -11.7549 -11.7539 -5.76963 -11.7539 1.60733H11.7563C11.7563 7.21474 7.21572 11.7553 1.60836 11.7553V-11.7549ZM-11.7539 1.60733V7.39307H11.7563V1.60733H-11.7539ZM-11.7539 7.39307C-11.7539 14.77 -5.7686 20.7553 1.60836 20.7553V-2.75492C7.21572 -2.75492 11.7563 1.78567 11.7563 7.39307H-11.7539ZM1.60836 20.7553H7.39405V-2.75492H1.60836V20.7553ZM7.39405 20.7553C14.771 20.7553 20.7563 14.77 20.7563 7.39307H-2.75389C-2.75389 1.78567 1.7867 -2.75492 7.39405 -2.75492V20.7553ZM20.7563 7.39307V4.17876H-2.75389V7.39307H20.7563ZM20.7563 4.17876C20.7563 0.975881 19.4839 -2.09584 17.2192 -4.36064L0.594959 12.2636C-1.54929 10.1194 -2.75389 7.21114 -2.75389 4.17876H20.7563ZM17.2192 -4.36064C14.9544 -6.6254 11.8827 -7.89774 8.67976 -7.89774V15.6125C5.64739 15.6125 2.73919 14.4079 0.594959 12.2636L17.2192 -4.36064ZM8.67976 -7.89774C5.47689 -7.89774 2.40518 -6.6254 0.14039 -4.36064L16.7646 12.2636C14.6203 14.4079 11.7122 15.6125 8.67976 15.6125V-7.89774ZM0.14039 -4.36064C-2.12441 -2.09584 -3.39675 0.975881 -3.39675 4.17876H20.1134C20.1134 7.21114 18.9088 10.1194 16.7646 12.2636L0.14039 -4.36064ZM-3.39675 4.17876V7.39307H20.1134V4.17876H-3.39675ZM-3.39675 7.39307C-3.39675 1.44065 1.44168 -3.39778 7.39405 -3.39778V20.1125C14.426 20.1125 20.1134 14.425 20.1134 7.39307H-3.39675ZM7.39405 -3.39778H1.60836V20.1125H7.39405V-3.39778ZM1.60836 -3.39778C7.56074 -3.39778 12.3991 1.44066 12.3991 7.39307H-11.111C-11.111 14.425 -5.42358 20.1125 1.60836 20.1125V-3.39778ZM12.3991 7.39307V1.60733H-11.111V7.39307H12.3991ZM12.3991 1.60733C12.3991 7.55976 7.56074 12.3982 1.60836 12.3982V-11.112C-5.42358 -11.112 -11.111 -5.42461 -11.111 1.60733H12.3991ZM1.60836 12.3982H4.50121V-11.112H1.60836V12.3982ZM4.50121 12.3982C7.7041 12.3982 10.7758 11.1258 13.0406 8.86103L-3.58362 -7.76319C-1.43938 -9.90744 1.46882 -11.112 4.50121 -11.112V12.3982ZM13.0406 8.86103C15.3054 6.59625 16.5777 3.52448 16.5777 0.321611H-6.93248C-6.93248 -2.71076 -5.72786 -5.61897 -3.58362 -7.76319L13.0406 8.86103ZM16.5777 0.321611C16.5777 -2.88125 15.3054 -5.95298 13.0406 -8.21775L-3.58362 8.40647C-5.72786 6.26219 -6.93248 3.35399 -6.93248 0.321611H16.5777ZM13.0406 -8.21775C10.7758 -10.4825 7.7041 -11.7549 4.50121 -11.7549V11.7553C1.46882 11.7553 -1.43938 10.5507 -3.58362 8.40647L13.0406 -8.21775ZM4.50121 -11.7549H1.60836V11.7553H4.50121V-11.7549Z" fill="white"/>
</g>
<path d="M7.69791 6.35769e-08C7.36305 -0.000103686 7.02773 0.126773 6.77387 0.380429L6.47237 0.681429L8.27096 2.57462L8.61842 2.22644C9.12596 1.72015 9.12743 0.888814 8.62138 0.381027C8.62157 0.381027 8.62118 0.381027 8.62138 0.381027C8.36764 0.127209 8.03278 0.000103814 7.69791 6.35769e-08ZM6.0402 1.11381L3.77061 3.38206C3.72168 3.43091 3.69075 3.49491 3.68286 3.56361L3.50198 5.15939C3.49675 5.20512 3.5019 5.25146 3.51706 5.29493C3.53222 5.3384 3.55699 5.37788 3.58953 5.41043C3.62206 5.44298 3.66153 5.46777 3.70498 5.48293C3.74842 5.4981 3.79473 5.50325 3.84045 5.49801L5.43549 5.31705C5.50409 5.30933 5.56805 5.27859 5.61696 5.22986L7.83818 3.007L6.0402 1.11381Z" fill="#4D6081"/>
<mask id="mask2_20586_575" style="mask-type:luminance" maskUnits="userSpaceOnUse" x="3" y="0" width="6" height="6">
<path d="M7.69791 6.35769e-08C7.36305 -0.000103686 7.02773 0.126773 6.77387 0.380429L6.47237 0.681429L8.27096 2.57462L8.61842 2.22644C9.12596 1.72015 9.12743 0.888814 8.62138 0.381027C8.62157 0.381027 8.62118 0.381027 8.62138 0.381027C8.36764 0.127209 8.03278 0.000103814 7.69791 6.35769e-08ZM6.0402 1.11381L3.77061 3.38206C3.72168 3.43091 3.69075 3.49491 3.68286 3.56361L3.50198 5.15939C3.49675 5.20512 3.5019 5.25146 3.51706 5.29493C3.53222 5.3384 3.55699 5.37788 3.58953 5.41043C3.62206 5.44298 3.66153 5.46777 3.70498 5.48293C3.74842 5.4981 3.79473 5.50325 3.84045 5.49801L5.43549 5.31705C5.50409 5.30933 5.56805 5.27859 5.61696 5.22986L7.83818 3.007L6.0402 1.11381Z" fill="white"/>
</mask>
<g mask="url(#mask2_20586_575)">
<path d="M6.77422 0.380236L15.08 8.69872L15.0829 8.69576L6.77422 0.380236ZM6.47272 0.681233L-1.83303 -7.63718L-9.94727 0.464663L-2.04953 8.77772L6.47272 0.681233ZM8.27131 2.57442L-0.250929 10.6709L8.06469 19.4239L16.5925 10.8775L8.27131 2.57442ZM8.61877 2.22624L0.316989 -6.09617L0.307298 -6.08651L0.297628 -6.07682L8.61877 2.22624ZM8.62173 0.380833L16.9482 -7.91689L13.5076 -11.3694L8.63349 -11.3742L8.62173 0.380833ZM8.62173 0.380833L0.307063 8.691L3.75527 12.1408L8.63291 12.1359L8.62173 0.380833ZM6.04057 1.11362L14.5642 -6.98141L6.26015 -15.7251L-2.26908 -7.20094L6.04057 1.11362ZM3.77098 3.38186L12.0765 11.7006L12.0806 11.6965L3.77098 3.38186ZM3.68323 3.56342L-7.99517 2.22232L-7.99613 2.23091L-7.99709 2.23951L3.68323 3.56342ZM3.50236 5.1592L15.1811 6.49642L15.1819 6.48979L15.1827 6.48311L3.50236 5.1592ZM3.84083 5.49781L2.51571 -6.18236L2.50905 -6.1816L2.50239 -6.18084L3.84083 5.49781ZM5.43587 5.31686L4.1195 -6.36431L4.11075 -6.36332L5.43587 5.31686ZM5.61734 5.22967L13.9139 13.5573L13.9232 13.548L13.9324 13.5388L5.61734 5.22967ZM7.83854 3.00681L16.1537 11.3159L24.2483 3.21537L16.3622 -5.08826L7.83854 3.00681ZM7.70193 -11.7553C4.41139 -11.7563 1.03621 -10.5039 -1.5345 -7.93528L15.0829 8.69576C13.02 10.7571 10.3155 11.7558 7.6946 11.7549L7.70193 -11.7553ZM-1.53156 -7.93817L-1.83303 -7.63718L14.7785 8.9997L15.08 8.69872L-1.53156 -7.93817ZM-2.04953 8.77772L-0.250929 10.6709L16.7936 -5.52206L14.995 -7.41521L-2.04953 8.77772ZM16.5925 10.8775L16.9399 10.5293L0.297628 -6.07682L-0.0497943 -5.72864L16.5925 10.8775ZM16.9206 10.5487C22.0198 5.462 22.0384 -2.80915 16.9482 -7.91689L0.295345 8.67859C-3.78279 4.58638 -3.76722 -2.02208 0.316989 -6.09617L16.9206 10.5487ZM8.63349 -11.3742C8.62546 -11.3742 8.61742 -11.3742 8.60938 -11.3742L8.63291 12.1359C8.62526 12.1359 8.61761 12.1359 8.60996 12.1359L8.63349 -11.3742ZM16.9352 -7.92923C14.3725 -10.4932 11.002 -11.7542 7.70193 -11.7553L7.6946 11.7549C5.06426 11.7541 2.36241 10.7473 0.307063 8.691L16.9352 -7.92923ZM-2.26908 -7.20094L-4.53866 -4.93271L12.0806 11.6965L14.3502 9.42823L-2.26908 -7.20094ZM-4.53454 -4.93683C-6.46465 -3.00978 -7.68415 -0.485977 -7.99517 2.22232L15.3616 4.90452C15.0663 7.47542 13.9087 9.87122 12.0765 11.7006L-4.53454 -4.93683ZM-7.99709 2.23951L-8.17799 3.83528L15.1827 6.48311L15.3635 4.88734L-7.99709 2.23951ZM-8.17645 3.82197C-8.38294 5.62503 -8.17979 7.45157 -7.58219 9.1653L14.617 1.42415C15.1843 3.051 15.3771 4.78483 15.1811 6.49642L-8.17645 3.82197ZM-7.58219 9.1653C-6.98453 10.8792 -6.00769 12.4363 -4.72412 13.7205L11.9039 -2.89996C13.1224 -1.68091 14.0497 -0.20273 14.617 1.42415L-7.58219 9.1653ZM-4.72412 13.7205C-3.44054 15.0046 -1.88332 15.9827 -0.168399 16.5812L7.57908 -5.61575C9.20711 -5.04752 10.6854 -4.11903 11.9039 -2.89996L-4.72412 13.7205ZM-0.168399 16.5812C1.54651 17.1798 3.37455 17.3833 5.17927 17.1765L2.50239 -6.18084C4.21567 -6.37719 5.9511 -6.18399 7.57908 -5.61575L-0.168399 16.5812ZM5.16595 17.178L6.76098 16.997L4.11075 -6.36332L2.51571 -6.18236L5.16595 17.178ZM6.75223 16.9981C9.46021 16.6929 11.9843 15.4798 13.9139 13.5573L-2.67924 -3.09796C-0.847443 -4.92293 1.54872 -6.0746 4.1195 -6.36431L6.75223 16.9981ZM13.9324 13.5388L16.1537 11.3159L-0.476565 -5.30227L-2.6978 -3.07942L13.9324 13.5388ZM16.3622 -5.08826L14.5642 -6.98141L-2.48306 9.20869L-0.685057 11.1019L16.3622 -5.08826Z" fill="white"/>
</g>
</g>
</g>
<defs>
<clipPath id="clip0_20586_575">
<rect width="9" height="9" fill="white"/>
</clipPath>
</defs>
</svg>
