<svg width="9" height="9" viewBox="0 0 9 9" fill="none" xmlns="http://www.w3.org/2000/svg">
<g clip-path="url(#clip0_20591_713)">
<path d="M5.75806 9H1.24194C0.912627 8.99979 0.596875 8.88383 0.364019 8.67758C0.131162 8.47134 0.000239236 8.19167 0 7.9V3.1C0.000239236 2.80833 0.131162 2.52866 0.364019 2.32242C0.596875 2.11617 0.912627 2.00021 1.24194 2H5.75806C6.08737 2.00021 6.40312 2.11617 6.63598 2.32242C6.86884 2.52866 6.99976 2.80833 7 3.1V7.9C6.99976 8.19167 6.86884 8.47134 6.63598 8.67758C6.40312 8.88383 6.08737 8.99979 5.75806 9ZM1.24194 2.6C1.09229 2.60021 0.948842 2.65296 0.843026 2.74668C0.737211 2.8404 0.677658 2.96746 0.677419 3.1V7.9C0.677658 8.03254 0.737211 8.1596 0.843026 8.25332C0.948842 8.34704 1.09229 8.39979 1.24194 8.4H5.75806C5.90771 8.39979 6.05116 8.34704 6.15697 8.25332C6.26279 8.1596 6.32234 8.03254 6.32258 7.9V3.1C6.32234 2.96746 6.26279 2.8404 6.15697 2.74668C6.05116 2.65296 5.90771 2.60021 5.75806 2.6H1.24194Z" fill="#919191"/>
<path d="M7.35541 7H6.58121C6.50421 7 6.43037 6.96839 6.37592 6.91213C6.32148 6.85587 6.29089 6.77957 6.29089 6.7C6.29089 6.62044 6.32148 6.54413 6.37592 6.48787C6.43037 6.43161 6.50421 6.4 6.58121 6.4H7.35541C7.48367 6.39979 7.60663 6.34704 7.69733 6.25332C7.78803 6.1596 7.83907 6.03254 7.83928 5.9V1.1C7.83907 0.967457 7.78803 0.840403 7.69733 0.74668C7.60663 0.652958 7.48367 0.600212 7.35541 0.6H3.48444C3.35617 0.600212 3.23321 0.652958 3.14252 0.74668C3.05182 0.840403 3.00077 0.967457 3.00057 1.1V1.9C3.00057 1.97956 2.96998 2.05587 2.91553 2.11213C2.86109 2.16839 2.78724 2.2 2.71024 2.2C2.63325 2.2 2.5594 2.16839 2.50496 2.11213C2.45051 2.05587 2.41992 1.97956 2.41992 1.9V1.1C2.42013 0.808327 2.53235 0.528661 2.73194 0.322417C2.93153 0.116172 3.20217 0.000211895 3.48444 0H7.35541C7.63767 0.000211895 7.90831 0.116172 8.10791 0.322417C8.3075 0.528661 8.41972 0.808327 8.41992 1.1V5.9C8.41972 6.19167 8.3075 6.47134 8.10791 6.67758C7.90831 6.88383 7.63767 6.99979 7.35541 7Z" fill="#919191"/>
<path d="M3.35059 6.93945C3.26693 6.93945 3.1867 6.90622 3.12754 6.84707C3.06839 6.78791 3.03516 6.70768 3.03516 6.62402V4.10059C3.03516 4.01693 3.06839 3.9367 3.12754 3.87754C3.1867 3.81839 3.26693 3.78516 3.35059 3.78516C3.43424 3.78516 3.51447 3.81839 3.57363 3.87754C3.63278 3.9367 3.66602 4.01693 3.66602 4.10059V6.62402C3.66602 6.70768 3.63278 6.78791 3.57363 6.84707C3.51447 6.90622 3.43424 6.93945 3.35059 6.93945Z" fill="#919191"/>
<path d="M4.61426 5.67725H2.09082C2.00716 5.67725 1.92693 5.64401 1.86778 5.58486C1.80862 5.5257 1.77539 5.44547 1.77539 5.36182C1.77539 5.27816 1.80862 5.19793 1.86778 5.13877C1.92693 5.07962 2.00716 5.04639 2.09082 5.04639H4.61426C4.69792 5.04639 4.77815 5.07962 4.8373 5.13877C4.89646 5.19793 4.92969 5.27816 4.92969 5.36182C4.92969 5.44547 4.89646 5.5257 4.8373 5.58486C4.77815 5.64401 4.69792 5.67725 4.61426 5.67725Z" fill="#919191"/>
</g>
<defs>
<clipPath id="clip0_20591_713">
<rect width="9" height="9" fill="white"/>
</clipPath>
</defs>
</svg>
