<svg width="9" height="9" viewBox="0 0 9 9" fill="none" xmlns="http://www.w3.org/2000/svg">
<mask id="path-1-inside-1_20591_719" fill="white">
<path d="M7.99584 1.9582C7.99584 1.50135 7.66545 1.12968 7.25936 1.12968H5.98752V0.969697C5.98752 0.435023 5.60083 0 5.12551 0H3.87033C3.39502 0 3.00833 0.435023 3.00833 0.969715V1.12969H1.73645C1.33037 1.12969 1 1.50137 1 1.95822C1 2.32288 1.21059 2.63304 1.50208 2.74345V8.03027C1.50208 8.56498 1.88877 9 2.36406 9H6.63177C7.10706 9 7.49373 8.56498 7.49373 8.03027V2.74345C7.78525 2.63304 7.99584 2.32288 7.99584 1.9582ZM3.47708 0.969715C3.47708 0.725801 3.6535 0.527344 3.87033 0.527344H5.12551C5.34236 0.527344 5.51877 0.725801 5.51877 0.969715V1.12969H3.47708V0.969715ZM6.63177 8.47266H2.36408C2.14725 8.47266 1.97084 8.2742 1.97084 8.03027V2.78671H7.025V8.03027C7.02498 8.2742 6.84859 8.47266 6.63177 8.47266ZM7.25936 2.25937H1.73645C1.58884 2.25937 1.46875 2.12426 1.46875 1.9582C1.46875 1.79212 1.58884 1.65702 1.73645 1.65702H7.25936C7.40698 1.65702 7.52709 1.79212 7.52709 1.9582C7.52709 2.12428 7.407 2.25937 7.25936 2.25937Z"/>
</mask>
<path d="M7.99584 1.9582C7.99584 1.50135 7.66545 1.12968 7.25936 1.12968H5.98752V0.969697C5.98752 0.435023 5.60083 0 5.12551 0H3.87033C3.39502 0 3.00833 0.435023 3.00833 0.969715V1.12969H1.73645C1.33037 1.12969 1 1.50137 1 1.95822C1 2.32288 1.21059 2.63304 1.50208 2.74345V8.03027C1.50208 8.56498 1.88877 9 2.36406 9H6.63177C7.10706 9 7.49373 8.56498 7.49373 8.03027V2.74345C7.78525 2.63304 7.99584 2.32288 7.99584 1.9582ZM3.47708 0.969715C3.47708 0.725801 3.6535 0.527344 3.87033 0.527344H5.12551C5.34236 0.527344 5.51877 0.725801 5.51877 0.969715V1.12969H3.47708V0.969715ZM6.63177 8.47266H2.36408C2.14725 8.47266 1.97084 8.2742 1.97084 8.03027V2.78671H7.025V8.03027C7.02498 8.2742 6.84859 8.47266 6.63177 8.47266ZM7.25936 2.25937H1.73645C1.58884 2.25937 1.46875 2.12426 1.46875 1.9582C1.46875 1.79212 1.58884 1.65702 1.73645 1.65702H7.25936C7.40698 1.65702 7.52709 1.79212 7.52709 1.9582C7.52709 2.12428 7.407 2.25937 7.25936 2.25937Z" fill="#919191"/>
<path d="M5.98752 1.12968H4.98752V2.12968H5.98752V1.12968ZM3.00833 1.12969V2.12969H4.00833V1.12969H3.00833ZM1.50208 2.74345H2.50208V2.0529L1.8563 1.80829L1.50208 2.74345ZM7.49373 2.74345L7.13955 1.80828L6.49373 2.05287V2.74345H7.49373ZM5.51877 1.12969V2.12969H6.51877V1.12969H5.51877ZM3.47708 1.12969H2.47708V2.12969H3.47708V1.12969ZM1.97084 2.78671V1.78671H0.970844V2.78671H1.97084ZM7.025 2.78671H8.025V1.78671H7.025V2.78671ZM7.025 8.03027L8.025 8.03033V8.03027H7.025ZM8.99584 1.9582C8.99584 1.06301 8.32518 0.129676 7.25936 0.129676V2.12968C7.14442 2.12968 7.06628 2.07501 7.03249 2.03699C7.00017 2.00064 6.99584 1.9702 6.99584 1.9582H8.99584ZM7.25936 0.129676H5.98752V2.12968H7.25936V0.129676ZM6.98752 1.12968V0.969697H4.98752V1.12968H6.98752ZM6.98752 0.969697C6.98752 -0.00331792 6.26055 -1 5.12551 -1V1C5.08946 1 5.05623 0.991311 5.03046 0.979031C5.00594 0.967342 4.99271 0.954744 4.98736 0.948724C4.97777 0.937938 4.98752 0.942798 4.98752 0.969697H6.98752ZM5.12551 -1H3.87033V1H5.12551V-1ZM3.87033 -1C2.73528 -1 2.00833 -0.00330479 2.00833 0.969715H4.00833C4.00833 0.942799 4.01808 0.937934 4.00849 0.948721C4.00314 0.954742 3.98991 0.96734 3.96538 0.97903C3.93962 0.99131 3.90639 1 3.87033 1V-1ZM2.00833 0.969715V1.12969H4.00833V0.969715H2.00833ZM3.00833 0.129693H1.73645V2.12969H3.00833V0.129693ZM1.73645 0.129693C0.670604 0.129693 0 1.06308 0 1.95822H2C2 1.97021 1.99568 2.00063 1.96336 2.03699C1.92956 2.07502 1.85142 2.12969 1.73645 2.12969V0.129693ZM0 1.95822C0 2.69297 0.426769 3.40548 1.14786 3.67862L1.8563 1.80829C1.92678 1.83499 1.96388 1.87615 1.97994 1.90084C1.9969 1.9269 2 1.94778 2 1.95822H0ZM0.502078 2.74345V8.03027H2.50208V2.74345H0.502078ZM0.502078 8.03027C0.502078 9.00328 1.22901 10 2.36406 10V8C2.40013 8 2.43337 8.00869 2.45913 8.02097C2.48366 8.03267 2.49689 8.04527 2.50224 8.05129C2.51183 8.06207 2.50208 8.0572 2.50208 8.03027H0.502078ZM2.36406 10H6.63177V8H2.36406V10ZM6.63177 10C7.76684 10 8.49373 9.00325 8.49373 8.03027H6.49373C6.49373 8.05721 6.48398 8.06209 6.49357 8.0513C6.49892 8.04527 6.51215 8.03267 6.53669 8.02098C6.56246 8.00869 6.5957 8 6.63177 8V10ZM8.49373 8.03027V2.74345H6.49373V8.03027H8.49373ZM7.84792 3.67863C8.56907 3.4055 8.99584 2.69298 8.99584 1.9582H6.99584C6.99584 1.94778 6.99893 1.9269 7.0159 1.90082C7.03197 1.87613 7.06909 1.83496 7.13955 1.80828L7.84792 3.67863ZM4.47708 0.969715C4.47708 1.16419 4.31319 1.52734 3.87033 1.52734V-0.472656C2.99381 -0.472656 2.47708 0.287416 2.47708 0.969715H4.47708ZM3.87033 1.52734H5.12551V-0.472656H3.87033V1.52734ZM5.12551 1.52734C4.68265 1.52734 4.51877 1.16416 4.51877 0.969715H6.51877C6.51877 0.287441 6.00207 -0.472656 5.12551 -0.472656V1.52734ZM4.51877 0.969715V1.12969H6.51877V0.969715H4.51877ZM5.51877 0.129693H3.47708V2.12969H5.51877V0.129693ZM4.47708 1.12969V0.969715H2.47708V1.12969H4.47708ZM6.63177 7.47266H2.36408V9.47266H6.63177V7.47266ZM2.36408 7.47266C2.80701 7.47266 2.97084 7.8359 2.97084 8.03027H0.970844C0.970844 8.7125 1.48749 9.47266 2.36408 9.47266V7.47266ZM2.97084 8.03027V2.78671H0.970844V8.03027H2.97084ZM1.97084 3.78671H7.025V1.78671H1.97084V3.78671ZM6.025 2.78671V8.03027H8.025V2.78671H6.025ZM6.025 8.0302C6.02501 7.83594 6.18878 7.47266 6.63177 7.47266V9.47266C7.5084 9.47266 8.02496 8.71245 8.025 8.03033L6.025 8.0302ZM7.25936 1.25937H1.73645V3.25937H7.25936V1.25937ZM1.73645 1.25937C2.2486 1.25937 2.46875 1.68596 2.46875 1.9582H0.46875C0.46875 2.56257 0.929085 3.25937 1.73645 3.25937V1.25937ZM2.46875 1.9582C2.46875 2.23039 2.24864 2.65702 1.73645 2.65702V0.657019C0.92905 0.657019 0.46875 1.35386 0.46875 1.9582H2.46875ZM1.73645 2.65702H7.25936V0.657019H1.73645V2.65702ZM7.25936 2.65702C6.7473 2.65702 6.52709 2.23051 6.52709 1.9582H8.52709C8.52709 1.35374 8.06667 0.657019 7.25936 0.657019V2.65702ZM6.52709 1.9582C6.52709 1.68586 6.74735 1.25937 7.25936 1.25937V3.25937C8.06665 3.25937 8.52709 2.5627 8.52709 1.9582H6.52709Z" fill="#919191" mask="url(#path-1-inside-1_20591_719)"/>
<mask id="path-3-inside-2_20591_719" fill="white">
<path d="M3.11719 3.38916C2.98775 3.38916 2.88281 3.50721 2.88281 3.65283V7.60675C2.88281 7.75237 2.98775 7.87042 3.11719 7.87042C3.24663 7.87042 3.35156 7.75237 3.35156 7.60675V3.65283C3.35156 3.50721 3.24663 3.38916 3.11719 3.38916Z"/>
</mask>
<path d="M3.11719 3.38916C2.98775 3.38916 2.88281 3.50721 2.88281 3.65283V7.60675C2.88281 7.75237 2.98775 7.87042 3.11719 7.87042C3.24663 7.87042 3.35156 7.75237 3.35156 7.60675V3.65283C3.35156 3.50721 3.24663 3.38916 3.11719 3.38916Z" fill="#919191"/>
<path d="M3.11719 2.38916C2.32799 2.38916 1.88281 3.06891 1.88281 3.65283H3.88281C3.88281 3.94552 3.64751 4.38916 3.11719 4.38916V2.38916ZM1.88281 3.65283V7.60675H3.88281V3.65283H1.88281ZM1.88281 7.60675C1.88281 8.19067 2.32799 8.87042 3.11719 8.87042V6.87042C3.64751 6.87042 3.88281 7.31406 3.88281 7.60675H1.88281ZM3.11719 8.87042C3.90638 8.87042 4.35156 8.19067 4.35156 7.60675H2.35156C2.35156 7.31406 2.58687 6.87042 3.11719 6.87042V8.87042ZM4.35156 7.60675V3.65283H2.35156V7.60675H4.35156ZM4.35156 3.65283C4.35156 3.06891 3.90638 2.38916 3.11719 2.38916V4.38916C2.58687 4.38916 2.35156 3.94552 2.35156 3.65283H4.35156Z" fill="#919191" mask="url(#path-3-inside-2_20591_719)"/>
<mask id="path-5-inside-3_20591_719" fill="white">
<path d="M4.49805 3.38916C4.36861 3.38916 4.26367 3.50721 4.26367 3.65283V7.60675C4.26367 7.75237 4.36861 7.87042 4.49805 7.87042C4.62748 7.87042 4.73242 7.75237 4.73242 7.60675V3.65283C4.73242 3.50721 4.62748 3.38916 4.49805 3.38916Z"/>
</mask>
<path d="M4.49805 3.38916C4.36861 3.38916 4.26367 3.50721 4.26367 3.65283V7.60675C4.26367 7.75237 4.36861 7.87042 4.49805 7.87042C4.62748 7.87042 4.73242 7.75237 4.73242 7.60675V3.65283C4.73242 3.50721 4.62748 3.38916 4.49805 3.38916Z" fill="#919191"/>
<path d="M4.49805 2.38916C3.70885 2.38916 3.26367 3.06891 3.26367 3.65283H5.26367C5.26367 3.94552 5.02837 4.38916 4.49805 4.38916V2.38916ZM3.26367 3.65283V7.60675H5.26367V3.65283H3.26367ZM3.26367 7.60675C3.26367 8.19067 3.70885 8.87042 4.49805 8.87042V6.87042C5.02837 6.87042 5.26367 7.31406 5.26367 7.60675H3.26367ZM4.49805 8.87042C5.28724 8.87042 5.73242 8.19067 5.73242 7.60675H3.73242C3.73242 7.31406 3.96773 6.87042 4.49805 6.87042V8.87042ZM5.73242 7.60675V3.65283H3.73242V7.60675H5.73242ZM5.73242 3.65283C5.73242 3.06891 5.28724 2.38916 4.49805 2.38916V4.38916C3.96773 4.38916 3.73242 3.94552 3.73242 3.65283H5.73242Z" fill="#919191" mask="url(#path-5-inside-3_20591_719)"/>
<mask id="path-7-inside-4_20591_719" fill="white">
<path d="M5.87891 3.38916C5.74947 3.38916 5.64453 3.50721 5.64453 3.65283V7.60675C5.64453 7.75237 5.74947 7.87042 5.87891 7.87042C6.00834 7.87042 6.11328 7.75237 6.11328 7.60675V3.65283C6.11328 3.50721 6.00834 3.38916 5.87891 3.38916Z"/>
</mask>
<path d="M5.87891 3.38916C5.74947 3.38916 5.64453 3.50721 5.64453 3.65283V7.60675C5.64453 7.75237 5.74947 7.87042 5.87891 7.87042C6.00834 7.87042 6.11328 7.75237 6.11328 7.60675V3.65283C6.11328 3.50721 6.00834 3.38916 5.87891 3.38916Z" fill="#919191"/>
<path d="M5.87891 2.38916C5.08971 2.38916 4.64453 3.06891 4.64453 3.65283H6.64453C6.64453 3.94552 6.40923 4.38916 5.87891 4.38916V2.38916ZM4.64453 3.65283V7.60675H6.64453V3.65283H4.64453ZM4.64453 7.60675C4.64453 8.19067 5.08971 8.87042 5.87891 8.87042V6.87042C6.40923 6.87042 6.64453 7.31406 6.64453 7.60675H4.64453ZM5.87891 8.87042C6.6681 8.87042 7.11328 8.19067 7.11328 7.60675H5.11328C5.11328 7.31406 5.34859 6.87042 5.87891 6.87042V8.87042ZM7.11328 7.60675V3.65283H5.11328V7.60675H7.11328ZM7.11328 3.65283C7.11328 3.06891 6.6681 2.38916 5.87891 2.38916V4.38916C5.34859 4.38916 5.11328 3.94552 5.11328 3.65283H7.11328Z" fill="#919191" mask="url(#path-7-inside-4_20591_719)"/>
</svg>
