<svg width="26" height="26" viewBox="0 0 26 26" fill="none" xmlns="http://www.w3.org/2000/svg">
<path d="M3.25 4.33333C3.25 4.04602 3.36414 3.77047 3.5673 3.5673C3.77047 3.36414 4.04602 3.25 4.33333 3.25H21.6667C21.954 3.25 22.2295 3.36414 22.4327 3.5673C22.6359 3.77047 22.75 4.04602 22.75 4.33333V7.13483C22.7499 7.42213 22.6358 7.69763 22.4326 7.90075L15.4841 14.8493C15.2809 15.0524 15.1667 15.3279 15.1667 15.6152V18.4167L10.8333 22.75V15.6152C10.8333 15.3279 10.7191 15.0524 10.5159 14.8493L3.56742 7.90075C3.36424 7.69763 3.25006 7.42213 3.25 7.13483V4.33333Z" stroke="white" stroke-width="2" stroke-linecap="round" stroke-linejoin="round"/>
</svg>
