<svg width="24" height="25" viewBox="0 0 24 25" fill="none" xmlns="http://www.w3.org/2000/svg">
<path d="M16.5304 21.319C18.93 21.319 20.8752 19.3738 20.8752 16.9742C20.8752 14.5746 18.93 12.6294 16.5304 12.6294C14.1308 12.6294 12.1855 14.5746 12.1855 16.9742C12.1855 19.3738 14.1308 21.319 16.5304 21.319Z" stroke="white" stroke-width="1.5" stroke-miterlimit="10" stroke-linecap="round" stroke-linejoin="round"/>
<path d="M16.5303 15.1123V18.8364" stroke="white" stroke-width="1.5" stroke-miterlimit="10" stroke-linecap="round" stroke-linejoin="round"/>
<path d="M14.668 16.9741H18.3921" stroke="white" stroke-width="1.5" stroke-miterlimit="10" stroke-linecap="round" stroke-linejoin="round"/>
<path d="M10.944 9.52598C15.4003 9.52598 19.0129 8.55336 19.0129 7.35357C19.0129 6.15378 15.4003 5.18115 10.944 5.18115C6.4876 5.18115 2.875 6.15378 2.875 7.35357C2.875 8.55336 6.4876 9.52598 10.944 9.52598Z" stroke="white" stroke-width="1.5" stroke-miterlimit="10" stroke-linecap="round" stroke-linejoin="round"/>
<path d="M16.4053 12.5052L19.0122 10.1466V7.35352" stroke="white" stroke-width="1.5" stroke-miterlimit="10" stroke-linecap="round" stroke-linejoin="round"/>
<path d="M2.875 7.35352V10.1466L9.70259 16.3535V21.319L12.1853 20.0777V17.5328" stroke="white" stroke-width="1.5" stroke-miterlimit="10" stroke-linecap="round" stroke-linejoin="round"/>
</svg>
