<svg width="36" height="36" viewBox="0 0 36 36" fill="none" xmlns="http://www.w3.org/2000/svg">
<circle cx="18" cy="18" r="18" fill="#0D9488"/>
<path d="M16.5747 10.2168L9.51632 22.0002C9.37079 22.2522 9.29379 22.5379 9.29298 22.8289C9.29216 23.12 9.36756 23.4061 9.51167 23.6589C9.65579 23.9118 9.86359 24.1225 10.1144 24.27C10.3652 24.4176 10.6503 24.497 10.9413 24.5002H25.058C25.349 24.497 25.6341 24.4176 25.8849 24.27C26.1357 24.1225 26.3435 23.9118 26.4876 23.6589C26.6317 23.4061 26.7071 23.12 26.7063 22.8289C26.7055 22.5379 26.6285 22.2522 26.483 22.0002L19.4247 10.2168C19.2761 9.97193 19.0669 9.76944 18.8173 9.62891C18.5677 9.48838 18.2861 9.41455 17.9997 9.41455C17.7132 9.41455 17.4316 9.48838 17.182 9.62891C16.9324 9.76944 16.7232 9.97193 16.5747 10.2168Z" stroke="white" stroke-width="1.25" stroke-linecap="round" stroke-linejoin="round"/>
<path d="M18 14.5V17.8333" stroke="white" stroke-width="1.25" stroke-linecap="round" stroke-linejoin="round"/>
<path d="M18 21.1665H18.0083" stroke="white" stroke-width="1.25" stroke-linecap="round" stroke-linejoin="round"/>
</svg>
