<svg width="17" height="17" viewBox="0 0 17 17" fill="none" xmlns="http://www.w3.org/2000/svg">
<g clip-path="url(#clip0_12151_3246)">
<mask id="mask0_12151_3246" style="mask-type:luminance" maskUnits="userSpaceOnUse" x="0" y="0" width="17" height="17">
<path d="M0 0.332033H16.668V17H0V0.332033Z" fill="white"/>
</mask>
<g mask="url(#mask0_12151_3246)">
<path d="M1.95453 15.1768H14.7159C15.4351 15.1768 16.0181 14.5937 16.0181 13.8746C16.0181 13.6215 15.9459 13.3852 15.821 13.1854L9.44027 2.76788C9.21021 2.39979 8.80132 2.15491 8.33523 2.15491C7.86915 2.15491 7.46026 2.39979 7.2302 2.76788L0.849495 13.1854C0.72455 13.3852 0.652344 13.6215 0.652344 13.8746C0.652344 14.5937 1.23533 15.1768 1.95453 15.1768Z" fill="#FC4848" fill-opacity="0.16" stroke="#FC4848" stroke-miterlimit="10"/>
<path d="M8.33475 12.02C8.38933 12.02 8.43359 11.9757 8.43359 11.9211C8.43359 11.8665 8.38933 11.8223 8.33475 11.8223C8.28017 11.8223 8.2359 11.8665 8.2359 11.9211C8.2359 11.9757 8.28017 12.02 8.33475 12.02Z" fill="white" stroke="white" stroke-width="1.5"/>
<path d="M8.33594 9.96826V6.06133V9.96826Z" fill="white"/>
<path d="M8.33594 9.96826V6.06133" stroke="white" stroke-width="1.5" stroke-miterlimit="10" stroke-linecap="round"/>
</g>
</g>
<defs>
<clipPath id="clip0_12151_3246">
<rect width="16.668" height="16.668" fill="white" transform="translate(0 0.332031)"/>
</clipPath>
</defs>
</svg>
