<svg width="20" height="20" viewBox="0 0 20 20" fill="none" xmlns="http://www.w3.org/2000/svg">
<g clip-path="url(#clip0_17259_5396)">
<path d="M3.57143 0C1.60522 0 0 1.60522 0 3.57143V16.4286C0 18.3948 1.60522 20 3.57143 20H16.4286C18.3948 20 20 18.3948 20 16.4286V9.28571C20 9.09627 19.9247 8.91459 19.7908 8.78064C19.6568 8.64668 19.4752 8.57143 19.2857 8.57143C19.0963 8.57143 18.9146 8.64668 18.7806 8.78064C18.6467 8.91459 18.5714 9.09627 18.5714 9.28571V16.4286C18.5714 17.6281 17.6281 18.5714 16.4286 18.5714H3.57143C2.37193 18.5714 1.42857 17.6281 1.42857 16.4286V3.57143C1.42857 2.37193 2.37193 1.42857 3.57143 1.42857H10C10.1894 1.42857 10.3711 1.35332 10.5051 1.21936C10.639 1.08541 10.7143 0.903726 10.7143 0.714286C10.7143 0.524845 10.639 0.343164 10.5051 0.209209C10.3711 0.0752549 10.1894 0 10 0H3.57143Z" fill="#1674E6"/>
<path d="M16.9533 1.48514e-07C16.1707 -0.000242209 15.387 0.296139 14.7937 0.888672L14.0892 1.5918L18.2926 6.01423L19.1045 5.20089C20.2907 4.01822 20.2942 2.07624 19.1115 0.890067C19.1111 0.890067 19.1106 0.890067 19.1101 0.890067C18.5172 0.297155 17.7359 0.000242506 16.9533 1.48514e-07ZM13.0791 2.60184L7.77501 7.90039C7.66066 8.0145 7.58837 8.16401 7.56993 8.3245L7.14722 12.0522C7.13498 12.159 7.14702 12.2672 7.18245 12.3688C7.21787 12.4703 7.27576 12.5626 7.35181 12.6386C7.42785 12.7146 7.52008 12.7725 7.62162 12.808C7.72316 12.8434 7.83139 12.8554 7.93824 12.8432L11.6659 12.4205C11.8262 12.4024 11.9757 12.3306 12.09 12.2168L17.2811 7.02427L13.0791 2.60184Z" fill="#1674E6"/>
</g>
<defs>
<clipPath id="clip0_17259_5396">
<rect width="20" height="20" fill="white"/>
</clipPath>
</defs>
</svg>
