<svg width="47" height="40" viewBox="0 0 47 40" fill="none" xmlns="http://www.w3.org/2000/svg">
<path d="M41 0H1C0.734784 0 0.48043 0.105356 0.292893 0.292892C0.105357 0.480429 0 0.734784 0 1V3.49C0 3.62132 0.0258657 3.75136 0.0761204 3.87268C0.126375 3.99401 0.200035 4.10425 0.292893 4.19711C0.385752 4.28997 0.495991 4.36362 0.617316 4.41388C0.738642 4.46413 0.868678 4.49 1 4.49H41C41.2652 4.49 41.5196 4.38464 41.7071 4.19711C41.8946 4.00957 42 3.75522 42 3.49V1C42 0.734784 41.8946 0.480429 41.7071 0.292892C41.5196 0.105356 41.2652 0 41 0ZM3.5 6.49L17.71 22.24C17.8731 22.4249 17.9621 22.6635 17.96 22.91V38.22C17.9588 38.3894 18.0006 38.5564 18.0816 38.7052C18.1627 38.8541 18.2801 38.9799 18.4231 39.0708C18.5661 39.1618 18.7298 39.215 18.8989 39.2253C19.068 39.2357 19.237 39.2029 19.39 39.13L23.46 37.2C23.6336 37.1197 23.7805 36.9912 23.8833 36.8299C23.9861 36.6687 24.0405 36.4813 24.04 36.29V22.91C24.0379 22.6635 24.1269 22.4249 24.29 22.24L38.52 6.49H3.5Z" fill="white"/>
<path d="M39.9803 32.7647C40.3449 32.7647 40.6946 32.6199 40.9524 32.3621C41.2103 32.1043 41.3551 31.7546 41.3551 31.39C41.3551 31.0254 41.2102 30.6757 40.9524 30.4179L37.2196 26.685L40.9622 22.9425C41.22 22.6847 41.3648 22.335 41.3648 21.9704C41.3648 21.6058 41.22 21.2561 40.9622 20.9983C40.7043 20.7405 40.3547 20.5956 39.9901 20.5956C39.6255 20.5956 39.2758 20.7405 39.018 20.9983L35.2754 24.7409L31.5328 20.9983C31.275 20.7405 30.9253 20.5956 30.5607 20.5956C30.1961 20.5956 29.8464 20.7405 29.5886 20.9983C29.3308 21.2561 29.186 21.6058 29.186 21.9704C29.186 22.335 29.3308 22.6847 29.5886 22.9425L33.3312 26.685L29.5983 30.4179C29.3405 30.6757 29.1957 31.0254 29.1957 31.39C29.1957 31.7546 29.3405 32.1043 29.5983 32.3621C29.8562 32.6199 30.2058 32.7647 30.5704 32.7647C30.9351 32.7647 31.2847 32.6199 31.5425 32.3621L35.2754 28.6292L39.0082 32.3621C39.2661 32.6199 39.6157 32.7647 39.9803 32.7647Z" fill="white"/>
</svg>
