<svg width="44" height="40" viewBox="0 0 44 40" fill="none" xmlns="http://www.w3.org/2000/svg">
<path d="M41 0H1C0.734784 0 0.48043 0.105356 0.292893 0.292892C0.105357 0.480429 0 0.734784 0 1V3.49C0 3.62132 0.0258657 3.75136 0.0761204 3.87268C0.126375 3.99401 0.200035 4.10425 0.292893 4.19711C0.385752 4.28997 0.495991 4.36362 0.617316 4.41388C0.738642 4.46413 0.868678 4.49 1 4.49H41C41.2652 4.49 41.5196 4.38464 41.7071 4.19711C41.8946 4.00957 42 3.75522 42 3.49V1C42 0.734784 41.8946 0.480429 41.7071 0.292892C41.5196 0.105356 41.2652 0 41 0ZM3.5 6.49L17.71 22.24C17.8731 22.4249 17.9621 22.6635 17.96 22.91V38.22C17.9588 38.3894 18.0006 38.5564 18.0816 38.7052C18.1627 38.8541 18.2801 38.9799 18.4231 39.0708C18.5661 39.1618 18.7298 39.215 18.8989 39.2253C19.068 39.2357 19.237 39.2029 19.39 39.13L23.46 37.2C23.6336 37.1197 23.7805 36.9912 23.8833 36.8299C23.9861 36.6687 24.0405 36.4813 24.04 36.29V22.91C24.0379 22.6635 24.1269 22.4249 24.29 22.24L38.52 6.49H3.5Z" fill="white"/>
<path fill-rule="evenodd" clip-rule="evenodd" d="M35.4998 22.4452C33.2604 22.4452 31.4451 24.2606 31.4451 26.4998C31.4451 28.7391 33.2605 30.5545 35.4998 30.5545C37.7391 30.5545 39.5545 28.7391 39.5545 26.4998C39.5545 24.2606 37.7391 22.4452 35.4998 22.4452ZM34.6148 18.046C35.2296 17.9821 35.8379 17.985 36.4521 18.0534C36.6695 18.0775 36.829 18.2414 36.8475 18.4593L36.9584 19.7661C37.055 20.905 38.3896 21.4706 39.2746 20.7361L40.2832 19.8991C40.4508 19.76 40.6831 19.7593 40.8522 19.8966C41.3289 20.2837 41.7613 20.7204 42.1445 21.2003C42.2817 21.3722 42.2801 21.6005 42.1381 21.769L41.2931 22.7708C40.5548 23.6458 41.1049 24.9879 42.2453 25.0938L43.5509 25.2151C43.7671 25.2352 43.9316 25.3992 43.954 25.615C44.0179 26.2294 44.015 26.8382 43.9466 27.4523C43.9225 27.6696 43.7586 27.8291 43.5406 27.8476L42.2337 27.9585C41.0817 28.056 40.5364 29.3984 41.2637 30.2747L42.1008 31.2833C42.2399 31.4509 42.2405 31.6833 42.1033 31.8522C41.7164 32.3288 41.2794 32.7616 40.7996 33.1445C40.6277 33.2817 40.3995 33.2801 40.231 33.1381L39.2292 32.2932C38.3551 31.5559 37.0118 32.1067 36.9061 33.2454L36.7847 34.5509C36.7649 34.765 36.5994 34.9317 36.3849 34.954C35.7705 35.0179 35.1616 35.015 34.5476 34.9466C34.3303 34.9225 34.1707 34.7585 34.1523 34.5406L34.0414 33.2338C33.945 32.0978 32.6113 31.5286 31.7262 32.263L30.7166 33.1009C30.549 33.24 30.3166 33.2407 30.1477 33.1034C29.671 32.7165 29.2383 32.2795 28.8554 31.7996C28.7182 31.6277 28.7197 31.3994 28.8618 31.231L29.7067 30.2292C30.4449 29.3541 29.8951 28.0121 28.7545 27.9062L27.4491 27.7849C27.2358 27.7651 27.0681 27.5979 27.0459 27.385C26.9822 26.7704 26.9849 26.1619 27.0533 25.5477C27.0775 25.3304 27.2414 25.1708 27.4592 25.1524L28.7662 25.0415C29.9056 24.9449 30.4706 23.6102 29.7362 22.7253L28.8992 21.7167C28.7601 21.5491 28.7594 21.3167 28.8967 21.1478C29.2837 20.6712 29.7206 20.2385 30.2004 19.8555C30.3723 19.7183 30.6006 19.7198 30.7691 19.8619L31.7709 20.7068C32.6461 21.445 33.9881 20.8951 34.0939 19.7546L34.2153 18.4492C34.2352 18.2351 34.4007 18.0683 34.6151 18.0461L34.6148 18.046Z" fill="white"/>
</svg>
