<svg width="27" height="27" viewBox="0 0 27 27" fill="none" xmlns="http://www.w3.org/2000/svg">
<path d="M17.2065 19.8225L19.2416 19.8225C19.4428 19.8225 19.6059 19.6594 19.606 19.4582C19.6059 19.2571 19.4429 19.0939 19.2416 19.0938H17.4446L17.6784 18.3783L18.6352 18.3783C18.8364 18.3783 18.9996 18.2152 18.9996 18.014C18.9995 17.8128 18.8365 17.6497 18.6352 17.6496L17.9165 17.6496L18.5343 15.7587C23.5069 16.1412 23.0104 16.1036 23.1239 16.1041C24.5152 16.1115 25.6531 14.9845 25.6606 13.592C25.6683 12.1307 24.4319 10.9613 22.968 11.058L18.412 11.3592L17.8345 9.52859L18.6886 9.52856C18.8898 9.52856 19.0529 9.36544 19.0529 9.16422C19.0529 8.96302 18.8898 8.79996 18.6886 8.79988L17.6046 8.7999L17.3472 7.98399L19.3649 7.99062C19.5661 7.99129 19.7297 7.82868 19.7304 7.62749C19.7311 7.42629 19.5685 7.2626 19.3673 7.26199L17.1171 7.25462L15.6613 2.64009C15.613 2.48709 15.4702 2.38358 15.3097 2.38539L12.8688 2.41316C12.6567 2.41563 12.4916 2.5981 12.5101 2.80921L13.2876 11.6979L8.01976 12.0462L6.27369 9.44703C6.20635 9.34666 6.09388 9.28648 5.97321 9.28586L4.81254 9.27971C4.61137 9.2786 4.44735 9.44102 4.4463 9.64209L4.43226 12.2833L4.38156 12.2867C3.75891 12.3282 3.26854 12.8494 3.26519 13.4732C3.26187 14.0958 3.74518 14.6235 4.36904 14.6713C4.38604 14.6726 4.40263 14.6738 4.41958 14.6751L4.40526 17.3802C4.4042 17.5814 4.56645 17.7453 4.76764 17.7464L5.92831 17.7526C6.04972 17.7532 6.16349 17.6933 6.23168 17.5929L8.02476 14.9516C10.099 15.1107 11.8871 15.2479 13.4277 15.3662L12.4153 24.2815C12.3909 24.4961 12.5572 24.6836 12.7715 24.687L15.3338 24.7276C15.4935 24.7302 15.6362 24.6283 15.6859 24.4765L17.2065 19.8225ZM5.17297 10.0103L5.16117 12.2867L5.16117 12.235L5.17297 10.0103ZM5.13582 17.0197L5.73796 17.0898L7.18755 14.8875L5.73796 17.0229L5.13582 17.0197ZM3.99385 13.4771C3.99517 13.2335 4.18673 13.0298 4.42991 13.0137L15.8544 12.2585L18.1773 12.1223C18.2168 12.12 18.2539 12.1111 18.2885 12.0976L23.0161 11.7851C24.0658 11.7157 24.9374 12.5525 24.932 13.5881C24.9267 14.579 24.1174 15.3808 23.1278 15.3756C23.0444 15.3752 23.5581 15.4141 18.309 15.0106L18.3049 15.0101C17.6985 14.9636 17.2009 14.9254 16.7924 14.894C14.0445 14.6829 10.0977 14.3798 4.42478 13.9448C4.18188 13.9261 3.99251 13.7207 3.99385 13.4771Z" fill="#707070"/>
</svg>
