<svg width="16" height="17" viewBox="0 0 16 17" fill="none" xmlns="http://www.w3.org/2000/svg">
<path d="M13.0303 6.94444C12.8213 6.94444 12.6209 6.8625 12.4732 6.71664C12.3254 6.57078 12.2424 6.37295 12.2424 6.16667C12.2424 5.96039 12.3254 5.76256 12.4732 5.61669C12.6209 5.47083 12.8213 5.38889 13.0303 5.38889C13.2393 5.38889 13.4397 5.47083 13.5874 5.61669C13.7352 5.76256 13.8182 5.96039 13.8182 6.16667C13.8182 6.37295 13.7352 6.57078 13.5874 6.71664C13.4397 6.8625 13.2393 6.94444 13.0303 6.94444ZM8.30303 6.94444H3.57576V3.05556H8.30303M14.4248 4.79L14.4327 4.78222L11.5018 1.88889L10.6667 2.71333L12.3291 4.35444C11.5885 4.61111 11.0606 5.33444 11.0606 6.16667C11.0606 6.42201 11.1116 6.67486 11.2105 6.91077C11.3095 7.14668 11.4546 7.36104 11.6375 7.5416C12.0069 7.90625 12.5079 8.11111 13.0303 8.11111C13.3139 8.11111 13.5739 8.04889 13.8182 7.94778V13.5556C13.8182 13.7618 13.7352 13.9597 13.5874 14.1055C13.4397 14.2514 13.2393 14.3333 13.0303 14.3333C12.8213 14.3333 12.6209 14.2514 12.4732 14.1055C12.3254 13.9597 12.2424 13.7618 12.2424 13.5556V10.0556C12.2424 9.643 12.0764 9.24734 11.7809 8.95561C11.4854 8.66389 11.0846 8.5 10.6667 8.5H9.87879V3.05556C9.87879 2.643 9.71277 2.24733 9.41726 1.95561C9.12175 1.66389 8.72095 1.5 8.30303 1.5H3.57576C2.70121 1.5 2 2.19222 2 3.05556V15.5H9.87879V9.66667H11.0606V13.5556C11.0606 14.0713 11.2681 14.5658 11.6375 14.9305C12.0069 15.2951 12.5079 15.5 13.0303 15.5C13.289 15.5 13.5451 15.4497 13.7841 15.352C14.023 15.2543 14.2402 15.111 14.4231 14.9305C14.606 14.7499 14.7511 14.5356 14.8501 14.2997C14.9491 14.0638 15 13.8109 15 13.5556V6.16667C15 5.63 14.7794 5.14 14.4248 4.79Z" fill="#A3A3A3"/>
</svg>
