<svg width="15" height="15" viewBox="0 0 15 15" fill="none" xmlns="http://www.w3.org/2000/svg">
<g clip-path="url(#clip0_9996_24492)">
<path d="M7.5 11.5526C7.5 12.3116 7.695 13.0263 8.0325 13.6379C7.62 13.7189 7.1925 13.7632 6.75 13.7632C4.95979 13.7632 3.2429 13.0645 1.97703 11.8208C0.711159 10.5772 0 8.89038 0 7.13158C0 5.37278 0.711159 3.68601 1.97703 2.44234C3.2429 1.19868 4.95979 0.5 6.75 0.5C8.34 0.5 9.8025 1.04526 10.965 1.97368L10.9567 1.96708C11.3392 2.29129 11.6767 2.63024 12.0142 3.00603L12.0225 2.99789C12.9796 4.1704 13.5008 5.62863 13.5 7.13158V7.38947C13.02 7.22737 12.525 7.13158 12 7.13158C9.5175 7.13158 7.5 9.11368 7.5 11.5526ZM12.75 10.8158V8.60526H11.25V10.8158H9V12.2895H11.25V14.5H12.75V12.2895H15V10.8158H12.75Z" fill="#A3A3A3"/>
<path d="M7.05859 4V7.44531L5.0733 8.26562" stroke="white" stroke-linecap="round" stroke-linejoin="round"/>
</g>
<defs>
<clipPath id="clip0_9996_24492">
<rect width="15" height="14" fill="white" transform="translate(0 0.5)"/>
</clipPath>
</defs>
</svg>
