<svg width="14" height="15" viewBox="0 0 14 15" fill="none" xmlns="http://www.w3.org/2000/svg">
<g clip-path="url(#clip0_9996_24506)">
<path d="M13.2455 13.7455C13.018 13.973 12.6482 13.973 12.4207 13.7455L11.5958 12.9207L10.7704 13.7455C10.5464 13.9771 10.1772 13.9835 9.94559 13.7601C9.714 13.5361 9.70759 13.1668 9.931 12.9353C9.93567 12.9306 9.94034 12.9253 9.94559 12.9207L10.7704 12.0958L9.94559 11.2704C9.714 11.0464 9.70759 10.6772 9.931 10.4456C10.155 10.214 10.5243 10.2076 10.7558 10.431C10.7605 10.4357 10.7658 10.4403 10.7704 10.4456L11.5958 11.2704L12.4207 10.4456C12.6447 10.214 13.0139 10.2076 13.2455 10.431C13.4771 10.655 13.4835 11.0243 13.2601 11.2558C13.2554 11.2605 13.2508 11.2658 13.2455 11.2704L12.4207 12.0958L13.2455 12.9207C13.4742 13.1476 13.4771 13.5151 13.2502 13.7438C13.249 13.7449 13.2484 13.7461 13.2455 13.7455Z" fill="#A3A3A3"/>
<path d="M8.18736 12.1752C8.18503 10.2519 9.74194 8.6909 11.6646 8.68799C12.413 8.68682 13.1422 8.92715 13.743 9.3734C14.7773 5.64882 12.5962 1.79123 8.87219 0.756985C5.14819 -0.277265 1.29119 1.90323 0.256944 5.62782C-0.777306 9.3524 1.40378 13.2106 5.12778 14.2448C6.35278 14.5849 7.64719 14.5849 8.87219 14.2448C8.42769 13.6463 8.18736 12.9207 8.18736 12.1752ZM7.58361 7.51257C7.58361 7.66774 7.52178 7.8159 7.41211 7.92557L5.65919 9.67907C5.42703 9.90307 5.05719 9.89665 4.83319 9.66449C4.61444 9.43815 4.61444 9.07882 4.83319 8.85249L6.41519 7.27049V4.59065C6.41519 4.26807 6.67653 4.00615 6.99969 4.00615C7.32228 4.00615 7.58361 4.26807 7.58361 4.59065V7.51257Z" fill="#A3A3A3"/>
</g>
<defs>
<clipPath id="clip0_9996_24506">
<rect width="14" height="14" fill="white" transform="translate(0 0.5)"/>
</clipPath>
</defs>
</svg>
