<svg width="16" height="17" viewBox="0 0 16 17" fill="none" xmlns="http://www.w3.org/2000/svg">
<g clip-path="url(#clip0_9996_24485)">
<path d="M7.99844 0.5C5.38228 0.5 3.23828 2.6376 3.23828 5.24656C3.23828 6.25744 3.56116 7.19696 4.10756 7.96912L7.41748 13.6912C7.881 14.2968 8.18916 14.1818 8.5746 13.6592L12.2255 7.4464C12.2991 7.31296 12.357 7.17088 12.4074 7.02576C12.639 6.46117 12.7581 5.8568 12.7581 5.24656C12.7583 2.6376 10.6149 0.5 7.99844 0.5ZM7.99844 2.724C9.4074 2.724 10.5277 3.84176 10.5277 5.24656C10.5277 6.65136 9.4074 7.7688 7.99844 7.7688C6.58964 7.7688 5.46884 6.65168 5.46884 5.24672C5.46884 3.84176 6.58964 2.72416 7.99828 2.72416" fill="#A3A3A3"/>
<path d="M11.0276 8.32812L11.02 8.34828L11.0267 8.32988L11.0276 8.32812ZM5.44252 11.552C3.18236 11.8713 1.60156 12.6353 1.60156 13.76C1.60156 15.2748 4.24284 16.5028 8.00156 16.5028C11.7603 16.5028 14.4016 15.2748 14.4016 13.76C14.4016 12.6353 12.8209 11.8713 10.5609 11.552L10.2478 12.0851C11.9512 12.3214 13.1216 12.818 13.1216 13.3944C13.1216 14.2024 10.8292 14.8572 8.00156 14.8572C5.17388 14.8572 2.88156 14.2024 2.88156 13.3944C2.8814 12.82 4.04412 12.3238 5.75276 12.0865L5.44252 11.552Z" fill="#A3A3A3"/>
</g>
<defs>
<clipPath id="clip0_9996_24485">
<rect width="16" height="16" fill="white" transform="translate(0 0.5)"/>
</clipPath>
</defs>
</svg>
