<svg width="187" height="285" viewBox="0 0 187 285" fill="none" xmlns="http://www.w3.org/2000/svg">
<path d="M170.271 106.628C161.783 106.628 153.296 106.447 144.809 106.628C142.43 106.805 140.041 106.426 137.845 105.522C135.649 104.618 133.709 103.216 132.189 101.433C122.771 90.937 113.167 80.621 103.712 70.1967C101.287 67.2019 98.1777 64.794 94.6285 63.163C80.0733 57.1032 65.6298 65.9043 63.4335 82.4605C60.381 105.221 57.6263 128.017 54.5366 150.777C53.8995 154.518 54.2479 158.354 55.5494 161.93C56.851 165.505 59.0635 168.704 61.9817 171.229C74.8617 183.168 87.5557 195.324 100.399 207.299C101.544 208.252 102.468 209.43 103.11 210.754C103.751 212.079 104.096 213.52 104.121 214.982C104.717 232.44 105.61 249.898 106.317 267.392C106.764 278.213 113.316 284.814 123.59 284.634C133.864 284.454 139.895 277.131 139.485 266.238C138.741 248.131 137.922 230.096 137.028 212.133C136.792 205.475 135.017 198.953 131.834 193.048C128.651 187.142 124.142 182.004 118.639 178.01C113.167 173.826 107.732 169.642 102.185 165.566C100.88 164.801 99.8327 163.684 99.1716 162.352C98.5105 161.019 98.2642 159.529 98.4627 158.064C100.398 143.636 102.185 128.883 104.419 112.291C108.514 116.691 111.566 119.505 114.209 122.859C117.106 126.573 120.906 129.534 125.271 131.479C129.636 133.424 134.43 134.291 139.225 134.005C149.685 133.788 160.108 134.005 170.569 134.005C180.434 134.005 186.613 128.558 186.613 120.334C186.613 112.11 180.098 106.88 170.271 106.628Z" fill="#1C1C1C"/>
<path d="M44.6428 145.857C46.0276 142.31 46.8193 138.572 46.9881 134.783C49.6683 117.109 52.2369 99.3983 54.4332 84.0324C54.4332 73.2113 49.4077 66.2498 41.1809 64.5545C36.9222 63.6781 32.6062 63.0876 28.2636 62.7871C25.8866 62.4149 23.4555 62.5295 21.127 63.1234C18.7985 63.7173 16.6243 64.7773 14.7444 66.2352C12.8646 67.6931 11.3209 69.5164 10.2128 71.5878C9.10465 73.6591 8.45671 75.9324 8.31072 78.2612C5.5188 96.7652 2.8757 115.305 0.195453 133.845C-0.0651509 135.713 -0.0651509 137.605 0.195453 139.472C1.53557 148.742 7.34278 152.566 23.1264 154.838C33.7357 156.353 40.9203 153.287 44.6428 145.857Z" fill="#234977"/>
<path d="M53.3057 178.527C44.4832 206.301 35.9585 233.029 27.4711 259.757C26.9127 261.56 26.2426 263.364 25.7959 265.167C24.8947 269.114 25.5383 273.243 27.6019 276.756C29.6654 280.268 33.0016 282.913 36.9636 284.176C39.0419 284.854 41.2404 285.118 43.4266 284.952C45.6128 284.786 47.7418 284.193 49.6856 283.209C51.6293 282.225 53.3478 280.871 54.7375 279.227C56.1273 277.583 57.1598 275.684 57.7728 273.644C65.2179 251.425 72.3652 229.133 79.6986 206.914C80.1529 205.968 80.2715 204.904 80.0358 203.886C79.8001 202.868 79.2234 201.954 78.3957 201.287C70.2805 194.037 62.277 186.679 53.3057 178.527Z" fill="#1C1C1C"/>
<path d="M98.0922 51.8384C101.681 52.0072 105.268 51.4743 108.639 50.2713C112.011 49.0684 115.098 47.22 117.716 44.8364C120.335 42.4528 122.431 39.5827 123.881 36.3973C125.33 33.2119 126.103 29.7763 126.153 26.2954C126.203 22.8144 125.529 19.3593 124.172 16.1361C122.814 12.9128 120.801 9.98735 118.252 7.53405C115.703 5.08075 112.67 3.14985 109.334 1.85642C105.999 0.562993 102.429 -0.0664601 98.8366 0.00554922C91.8998 0.14461 85.2899 2.88832 80.4005 7.65819C75.511 12.4281 72.7242 18.8513 72.6276 25.5735C72.531 32.2958 75.1323 38.7917 79.8829 43.6916C84.6334 48.5914 91.1621 51.5123 98.0922 51.8384Z" fill="#1C1C1C"/>
<path d="M171.699 138.518C167.604 138.518 167.604 143.64 167.455 146.273C166.264 168.324 165.023 190.374 163.733 212.425C162.442 234.476 161.201 256.335 160.01 278.001C160.01 280.887 159.303 284.385 163.733 284.566C167.455 284.566 167.455 281.897 167.455 279.227C169.937 235.126 172.419 191.012 174.9 146.886C175.496 143.964 176.129 138.626 171.699 138.518Z" fill="#1C1C1C"/>
<path d="M173.49 101.331C175.836 101.331 177.846 101.331 177.92 97.1113C177.92 91.2318 178.404 85.3524 178.59 79.4729C178.59 76.2627 177.548 73.6656 175.091 73.3771C172.634 73.0885 170.885 75.8659 170.699 79.2926C170.699 82.07 170.512 87.6969 170.438 87.6969C170.438 90.5104 170.215 93.3239 169.991 96.1013C169.768 99.6722 170.475 101.476 173.49 101.331Z" fill="#1C1C1C"/>
</svg>
