<svg width="22" height="22" viewBox="0 0 22 22" fill="none" xmlns="http://www.w3.org/2000/svg">
<g clip-path="url(#clip0_6616_29929)">
<path d="M7.77734 6.05859C8.01462 6.05859 8.20703 5.86618 8.20703 5.62891V4.76953C8.20703 4.53226 8.01462 4.33984 7.77734 4.33984C7.54007 4.33984 7.34766 4.53226 7.34766 4.76953V5.62891C7.34766 5.86618 7.54007 6.05859 7.77734 6.05859Z" fill="#707070"/>
<path d="M9.92578 6.05859C10.1631 6.05859 10.3555 5.86618 10.3555 5.62891V4.76953C10.3555 4.53226 10.1631 4.33984 9.92578 4.33984C9.68851 4.33984 9.49609 4.53226 9.49609 4.76953V5.62891C9.49609 5.86618 9.68851 6.05859 9.92578 6.05859Z" fill="#707070"/>
<path d="M12.0742 6.05859C12.3115 6.05859 12.5039 5.86618 12.5039 5.62891V4.76953C12.5039 4.53226 12.3115 4.33984 12.0742 4.33984C11.8369 4.33984 11.6445 4.53226 11.6445 4.76953V5.62891C11.6445 5.86618 11.8369 6.05859 12.0742 6.05859Z" fill="#707070"/>
<path d="M14.2227 6.05859C14.4599 6.05859 14.6523 5.86618 14.6523 5.62891V4.76953C14.6523 4.53226 14.4599 4.33984 14.2227 4.33984C13.9854 4.33984 13.793 4.53226 13.793 4.76953V5.62891C13.793 5.86618 13.9854 6.05859 14.2227 6.05859Z" fill="#707070"/>
<path d="M7.77734 8.63672C8.01462 8.63672 8.20703 8.4443 8.20703 8.20703V7.34766C8.20703 7.11038 8.01462 6.91797 7.77734 6.91797C7.54007 6.91797 7.34766 7.11038 7.34766 7.34766V8.20703C7.34766 8.4443 7.54007 8.63672 7.77734 8.63672Z" fill="#707070"/>
<path d="M9.92578 8.63672C10.1631 8.63672 10.3555 8.4443 10.3555 8.20703V7.34766C10.3555 7.11038 10.1631 6.91797 9.92578 6.91797C9.68851 6.91797 9.49609 7.11038 9.49609 7.34766V8.20703C9.49609 8.4443 9.68851 8.63672 9.92578 8.63672Z" fill="#707070"/>
<path d="M12.0742 8.63672C12.3115 8.63672 12.5039 8.4443 12.5039 8.20703V7.34766C12.5039 7.11038 12.3115 6.91797 12.0742 6.91797C11.8369 6.91797 11.6445 7.11038 11.6445 7.34766V8.20703C11.6445 8.4443 11.8369 8.63672 12.0742 8.63672Z" fill="#707070"/>
<path d="M14.2227 8.63672C14.4599 8.63672 14.6523 8.4443 14.6523 8.20703V7.34766C14.6523 7.11038 14.4599 6.91797 14.2227 6.91797C13.9854 6.91797 13.793 7.11038 13.793 7.34766V8.20703C13.793 8.4443 13.9854 8.63672 14.2227 8.63672Z" fill="#707070"/>
<path d="M7.77734 11.2148C8.01462 11.2148 8.20703 11.0224 8.20703 10.7852V9.92578C8.20703 9.68851 8.01462 9.49609 7.77734 9.49609C7.54007 9.49609 7.34766 9.68851 7.34766 9.92578V10.7852C7.34766 11.0224 7.54007 11.2148 7.77734 11.2148Z" fill="#707070"/>
<path d="M9.92578 11.2148C10.1631 11.2148 10.3555 11.0224 10.3555 10.7852V9.92578C10.3555 9.68851 10.1631 9.49609 9.92578 9.49609C9.68851 9.49609 9.49609 9.68851 9.49609 9.92578V10.7852C9.49609 11.0224 9.68851 11.2148 9.92578 11.2148Z" fill="#707070"/>
<path d="M12.0742 11.2148C12.3115 11.2148 12.5039 11.0224 12.5039 10.7852V9.92578C12.5039 9.68851 12.3115 9.49609 12.0742 9.49609C11.8369 9.49609 11.6445 9.68851 11.6445 9.92578V10.7852C11.6445 11.0224 11.8369 11.2148 12.0742 11.2148Z" fill="#707070"/>
<path d="M14.2227 11.2148C14.4599 11.2148 14.6523 11.0224 14.6523 10.7852V9.92578C14.6523 9.68851 14.4599 9.49609 14.2227 9.49609C13.9854 9.49609 13.793 9.68851 13.793 9.92578V10.7852C13.793 11.0224 13.9854 11.2148 14.2227 11.2148Z" fill="#707070"/>
<path d="M7.77734 13.793C8.01462 13.793 8.20703 13.6006 8.20703 13.3633V12.5039C8.20703 12.2666 8.01462 12.0742 7.77734 12.0742C7.54007 12.0742 7.34766 12.2666 7.34766 12.5039V13.3633C7.34766 13.6006 7.54007 13.793 7.77734 13.793Z" fill="#707070"/>
<path d="M9.92578 13.793C10.1631 13.793 10.3555 13.6006 10.3555 13.3633V12.5039C10.3555 12.2666 10.1631 12.0742 9.92578 12.0742C9.68851 12.0742 9.49609 12.2666 9.49609 12.5039V13.3633C9.49609 13.6006 9.68851 13.793 9.92578 13.793Z" fill="#707070"/>
<path d="M12.0742 13.793C12.3115 13.793 12.5039 13.6006 12.5039 13.3633V12.5039C12.5039 12.2666 12.3115 12.0742 12.0742 12.0742C11.8369 12.0742 11.6445 12.2666 11.6445 12.5039V13.3633C11.6445 13.6006 11.8369 13.793 12.0742 13.793Z" fill="#707070"/>
<path d="M14.2227 13.793C14.4599 13.793 14.6523 13.6006 14.6523 13.3633V12.5039C14.6523 12.2666 14.4599 12.0742 14.2227 12.0742C13.9854 12.0742 13.793 12.2666 13.793 12.5039V13.3633C13.793 13.6006 13.9854 13.793 14.2227 13.793Z" fill="#707070"/>
<path d="M21.5273 6.91797H17.2305V2.62109H18.0898C18.3271 2.62109 18.5195 2.42868 18.5195 2.19141V0.472656C18.5195 0.235383 18.3271 0.0429688 18.0898 0.0429688H3.91016C3.67288 0.0429688 3.48047 0.235383 3.48047 0.472656V2.19141C3.48047 2.42868 3.67288 2.62109 3.91016 2.62109H4.76953V6.91797H0.472656C0.235383 6.91797 0.0429688 7.11038 0.0429688 7.34766V9.06641C0.0429688 9.30368 0.235383 9.49609 0.472656 9.49609V21.5273C0.472656 21.7646 0.66507 21.957 0.902344 21.957H21.0977C21.3349 21.957 21.5273 21.7646 21.5273 21.5273V9.49609C21.7646 9.49609 21.957 9.30368 21.957 9.06641V7.34766C21.957 7.11038 21.7646 6.91797 21.5273 6.91797ZM3.48047 19.8086C3.48047 20.0459 3.28805 20.2383 3.05078 20.2383C2.81351 20.2383 2.62109 20.0459 2.62109 19.8086V19.3789C2.62109 19.1416 2.81351 18.9492 3.05078 18.9492C3.28805 18.9492 3.48047 19.1416 3.48047 19.3789V19.8086ZM3.48047 17.6602C3.48047 17.8974 3.28805 18.0898 3.05078 18.0898C2.81351 18.0898 2.62109 17.8974 2.62109 17.6602V17.2305C2.62109 16.9932 2.81351 16.8008 3.05078 16.8008C3.28805 16.8008 3.48047 16.9932 3.48047 17.2305V17.6602ZM3.48047 15.5117C3.48047 15.749 3.28805 15.9414 3.05078 15.9414C2.81351 15.9414 2.62109 15.749 2.62109 15.5117V15.082C2.62109 14.8448 2.81351 14.6523 3.05078 14.6523C3.28805 14.6523 3.48047 14.8448 3.48047 15.082V15.5117ZM3.48047 13.3633C3.48047 13.6006 3.28805 13.793 3.05078 13.793C2.81351 13.793 2.62109 13.6006 2.62109 13.3633V12.9336C2.62109 12.6963 2.81351 12.5039 3.05078 12.5039C3.28805 12.5039 3.48047 12.6963 3.48047 12.9336V13.3633ZM3.48047 11.2148C3.48047 11.4521 3.28805 11.6445 3.05078 11.6445C2.81351 11.6445 2.62109 11.4521 2.62109 11.2148V10.7852C2.62109 10.5479 2.81351 10.3555 3.05078 10.3555C3.28805 10.3555 3.48047 10.5479 3.48047 10.7852V11.2148ZM4.76953 8.63672H0.902344V7.77734H4.76953V8.63672ZM16.3711 21.0977H13.5781V16.3711C13.5781 16.1338 13.3857 15.9414 13.1484 15.9414H8.85156C8.61429 15.9414 8.42188 16.1338 8.42188 16.3711V21.0977H5.62891C5.62891 19.0413 5.62891 4.68295 5.62891 2.62109H16.3711V21.0977ZM4.33984 1.76172V0.902344H17.6602V1.76172C17.2086 1.76172 4.82122 1.76172 4.33984 1.76172ZM19.3789 19.8086C19.3789 20.0459 19.1865 20.2383 18.9492 20.2383C18.7119 20.2383 18.5195 20.0459 18.5195 19.8086V19.3789C18.5195 19.1416 18.7119 18.9492 18.9492 18.9492C19.1865 18.9492 19.3789 19.1416 19.3789 19.3789V19.8086ZM19.3789 17.6602C19.3789 17.8974 19.1865 18.0898 18.9492 18.0898C18.7119 18.0898 18.5195 17.8974 18.5195 17.6602V17.2305C18.5195 16.9932 18.7119 16.8008 18.9492 16.8008C19.1865 16.8008 19.3789 16.9932 19.3789 17.2305V17.6602ZM19.3789 15.5117C19.3789 15.749 19.1865 15.9414 18.9492 15.9414C18.7119 15.9414 18.5195 15.749 18.5195 15.5117V15.082C18.5195 14.8448 18.7119 14.6523 18.9492 14.6523C19.1865 14.6523 19.3789 14.8448 19.3789 15.082V15.5117ZM19.3789 13.3633C19.3789 13.6006 19.1865 13.793 18.9492 13.793C18.7119 13.793 18.5195 13.6006 18.5195 13.3633V12.9336C18.5195 12.6963 18.7119 12.5039 18.9492 12.5039C19.1865 12.5039 19.3789 12.6963 19.3789 12.9336V13.3633ZM19.3789 11.2148C19.3789 11.4521 19.1865 11.6445 18.9492 11.6445C18.7119 11.6445 18.5195 11.4521 18.5195 11.2148V10.7852C18.5195 10.5479 18.7119 10.3555 18.9492 10.3555C19.1865 10.3555 19.3789 10.5479 19.3789 10.7852V11.2148ZM21.0977 8.63672H17.2305V7.77734H21.0977V8.63672Z" fill="#707070"/>
</g>
<defs>
<clipPath id="clip0_6616_29929">
<rect width="22" height="22" fill="white"/>
</clipPath>
</defs>
</svg>
