<svg width="20" height="20" viewBox="0 0 20 20" fill="none" xmlns="http://www.w3.org/2000/svg">
<g clip-path="url(#clip0_6616_29840)">
<path d="M5.3874 16.918C5.23221 17.187 5.08733 17.4319 4.95629 17.6388C4.70342 18.0363 4.265 18.2769 3.79396 18.2769C3.32292 18.2769 2.8845 18.0362 2.63164 17.6388C2.50059 17.4319 2.35572 17.187 2.20052 16.918C0.7588 17.1905 0 17.7664 0 18.2148C0 18.8942 1.62106 19.6565 3.79392 19.6565C5.96682 19.6565 7.58785 18.8942 7.58785 18.2148C7.58789 17.7664 6.82909 17.1905 5.3874 16.918Z" fill="#707070"/>
<path d="M3.79396 5.86328C1.69542 5.86863 -0.00230285 7.57253 2.34475e-06 9.67104C2.34475e-06 11.13 1.94871 15.2861 3.2145 17.2693C3.33953 17.4689 3.55844 17.59 3.79393 17.59C4.02941 17.59 4.24836 17.4689 4.37335 17.2693C5.63914 15.2861 7.58785 11.13 7.58785 9.67104C7.59019 7.57253 5.89247 5.86863 3.79396 5.86328ZM3.79396 12.4164C2.27007 12.4164 1.03472 11.1811 1.03472 9.65721C1.03472 8.13331 2.27007 6.89796 3.79396 6.89796C5.31786 6.89796 6.55321 8.13331 6.55321 9.65721C6.55114 11.1803 5.317 12.4145 3.79396 12.4164Z" fill="#707070"/>
<path d="M3.79405 7.58594C2.65114 7.58594 1.72461 8.51243 1.72461 9.65538C1.72461 10.7983 2.6511 11.7248 3.79405 11.7248C4.93696 11.7248 5.86349 10.7983 5.86349 9.65538C5.86255 8.51282 4.93657 7.58684 3.79405 7.58594Z" fill="#707070"/>
<path d="M16.9007 9.65516C18.2079 9.65516 19.315 9.024 19.315 8.27556C19.315 7.85132 18.9356 7.43744 18.332 7.17188C18.1285 7.55126 17.9319 7.88926 17.7733 8.14107C17.5836 8.43965 17.2544 8.62048 16.9006 8.62048C16.5469 8.62048 16.2177 8.43962 16.028 8.14107C15.8694 7.8893 15.6728 7.55129 15.4693 7.17188C14.8657 7.43744 14.4863 7.85132 14.4863 8.27556C14.4864 9.02396 15.5935 9.65516 16.9007 9.65516Z" fill="#707070"/>
<path d="M16.9007 7.92558C17.0165 7.92558 17.1249 7.8685 17.1904 7.77297C18.025 6.45889 19.315 3.72035 19.315 2.76843C19.3168 1.43262 18.2365 0.347657 16.9007 0.34375C15.5648 0.347657 14.4845 1.43258 14.4863 2.76843C14.4863 3.72035 15.7763 6.45889 16.6109 7.77297C16.6765 7.8685 16.7848 7.92558 16.9007 7.92558ZM15.1762 2.75807C15.1762 1.80564 15.9483 1.03355 16.9007 1.03355C17.8531 1.03355 18.6252 1.80564 18.6252 2.75807C18.6249 3.71035 17.853 4.48224 16.9007 4.48259C15.9483 4.48259 15.1762 3.71051 15.1762 2.75807Z" fill="#707070"/>
<path d="M17.9347 2.75738C17.933 2.18663 17.4707 1.72434 16.9 1.72266C16.3285 1.72266 15.8652 2.18592 15.8652 2.75738C15.8652 3.32883 16.3285 3.7921 16.9 3.7921C17.4714 3.7921 17.9347 3.32883 17.9347 2.75738Z" fill="#707070"/>
<path d="M8.96718 17.9336H8.62226C8.43179 17.9336 8.27734 18.088 8.27734 18.2785C8.27734 18.469 8.43175 18.6234 8.62226 18.6234H8.96718C9.15766 18.6234 9.3121 18.469 9.3121 18.2785C9.3121 18.088 9.15769 17.9336 8.96718 17.9336Z" fill="#707070"/>
<path d="M13.1306 17.9336H12.4367C12.2462 17.9336 12.0918 18.088 12.0918 18.2785C12.0918 18.469 12.2462 18.6234 12.4367 18.6234H13.1306C13.3211 18.6234 13.4755 18.469 13.4755 18.2785C13.4755 18.088 13.3211 17.9336 13.1306 17.9336Z" fill="#707070"/>
<path d="M12.4305 11.3801C12.4305 11.1896 12.2761 11.0352 12.0856 11.0352H11.3918C11.2013 11.0352 11.0469 11.1896 11.0469 11.3801C11.0469 11.5705 11.2013 11.725 11.3918 11.725H12.0856C12.2761 11.725 12.4305 11.5705 12.4305 11.3801Z" fill="#707070"/>
<path d="M11.009 8.61953H11.7028C11.8933 8.61953 12.0478 8.46512 12.0478 8.27461C12.0478 8.08414 11.8934 7.92969 11.7028 7.92969H11.009C10.8185 7.92969 10.6641 8.0841 10.6641 8.27461C10.6641 8.46512 10.8185 8.61953 11.009 8.61953Z" fill="#707070"/>
<path d="M9.39167 9.67971C9.5399 9.67959 9.6715 9.58492 9.71873 9.44442C9.77644 9.27329 9.87173 9.1172 9.99762 8.98768C10.1303 8.85093 10.1271 8.63253 9.99035 8.4998C9.85361 8.36708 9.6352 8.37032 9.50247 8.50707C9.30509 8.71086 9.15552 8.95607 9.0646 9.22484C9.02952 9.3301 9.04714 9.44579 9.11188 9.53585C9.17666 9.62595 9.28075 9.67944 9.39167 9.67971Z" fill="#707070"/>
<path d="M18.9594 12.7241C18.7978 12.8248 18.7484 13.0375 18.8491 13.1992C18.9591 13.3758 19.0509 13.5631 19.1233 13.7583C19.1733 13.8936 19.3023 13.9835 19.4466 13.9836C19.5594 13.9834 19.6651 13.9282 19.7295 13.8355C19.7939 13.7429 19.809 13.6246 19.7699 13.5188C19.6814 13.2799 19.569 13.0506 19.4345 12.8344C19.3337 12.6728 19.121 12.6234 18.9594 12.7241Z" fill="#707070"/>
<path d="M11.0485 17.9336H10.3547C10.1642 17.9336 10.0098 18.088 10.0098 18.2785C10.0098 18.469 10.1642 18.6234 10.3547 18.6234H11.0485C11.239 18.6234 11.3935 18.469 11.3935 18.2785C11.3935 18.088 11.2391 17.9336 11.0485 17.9336Z" fill="#707070"/>
<path d="M19.6725 14.6606C19.4832 14.6513 19.3219 14.7965 19.3113 14.9858C19.3012 15.1934 19.2699 15.3995 19.2179 15.6008C19.1913 15.7042 19.214 15.814 19.2794 15.8983C19.3449 15.9827 19.4457 16.032 19.5524 16.0319C19.7095 16.0316 19.8466 15.9253 19.8862 15.7732C19.9496 15.5264 19.9879 15.2739 20.0003 15.0194C20.0082 14.8301 19.8618 14.6698 19.6725 14.6606Z" fill="#707070"/>
<path d="M14.4978 11.3801C14.4919 11.1871 14.3332 11.0341 14.1401 11.0352H13.4719C13.2814 11.0352 13.127 11.1896 13.127 11.3801C13.127 11.5706 13.2814 11.725 13.4719 11.725H14.1657C14.2559 11.7245 14.342 11.6876 14.4046 11.6226C14.4671 11.5577 14.5008 11.4702 14.4978 11.3801Z" fill="#707070"/>
<path d="M19.1562 16.6496C19.0052 16.5336 18.7888 16.5618 18.6727 16.7127C18.5455 16.878 18.4023 17.0304 18.2452 17.1675C18.1368 17.262 18.0984 17.4138 18.1489 17.5485C18.1994 17.6832 18.3281 17.7724 18.4719 17.7723C18.5553 17.7724 18.6359 17.7422 18.6986 17.6873C18.8901 17.5201 19.0647 17.3345 19.2197 17.133C19.3355 16.9819 19.3071 16.7656 19.1562 16.6496Z" fill="#707070"/>
<path d="M16.5947 11.3826C16.596 11.1921 16.4426 11.0366 16.2521 11.0353L15.5539 11.0352C15.3634 11.0352 15.209 11.1896 15.209 11.3801C15.209 11.5705 15.3634 11.725 15.5539 11.725L16.2427 11.7252H16.2474C16.4379 11.7264 16.5934 11.5731 16.5947 11.3826Z" fill="#707070"/>
<path d="M10.0477 11.4928C10.2018 11.493 10.3373 11.3908 10.3797 11.2426C10.422 11.0945 10.3609 10.9362 10.2299 10.8549C10.0765 10.7594 9.94612 10.631 9.84833 10.479C9.74537 10.3186 9.53189 10.2721 9.37154 10.3751C9.21119 10.478 9.16466 10.6915 9.26765 10.8519C9.42128 11.09 9.62566 11.2911 9.86618 11.441C9.92061 11.4749 9.98351 11.4929 10.0477 11.4928Z" fill="#707070"/>
<path d="M15.2107 17.9336H14.5168C14.3263 17.9336 14.1719 18.088 14.1719 18.2785C14.1719 18.469 14.3263 18.6234 14.5168 18.6234H15.2107C15.4011 18.6234 15.5556 18.469 15.5556 18.2785C15.5555 18.088 15.4011 17.9336 15.2107 17.9336Z" fill="#707070"/>
<path d="M18.1964 12.3597C18.3467 12.3599 18.4798 12.2627 18.5254 12.1196C18.5711 11.9764 18.5188 11.8201 18.3961 11.7333C18.1886 11.5863 17.9669 11.4605 17.7343 11.3576C17.6216 11.3078 17.4909 11.3219 17.3914 11.3945C17.292 11.4672 17.2388 11.5875 17.252 11.7099C17.2652 11.8324 17.3428 11.9386 17.4554 11.9884C17.6459 12.0728 17.8274 12.176 17.9974 12.2964C18.0556 12.3376 18.1251 12.3597 18.1964 12.3597Z" fill="#707070"/>
<path d="M17.1683 17.7828C16.9705 17.8473 16.7668 17.8917 16.56 17.9151C16.3783 17.9357 16.2443 18.0945 16.2545 18.2771C16.2646 18.4597 16.4155 18.6026 16.5984 18.6028C16.6114 18.6028 16.6245 18.6021 16.6375 18.6006C16.8906 18.5718 17.1402 18.5175 17.3825 18.4385C17.5636 18.3794 17.6625 18.1846 17.6033 18.0035C17.5442 17.8225 17.3494 17.7236 17.1683 17.7828Z" fill="#707070"/>
<path d="M13.1066 8.61953H13.4516C13.642 8.61953 13.7965 8.46512 13.7965 8.27461C13.7965 8.08414 13.6421 7.92969 13.4516 7.92969H13.1066C12.9162 7.92969 12.7617 8.0841 12.7617 8.27461C12.7618 8.46512 12.9162 8.61953 13.1066 8.61953Z" fill="#707070"/>
</g>
<defs>
<clipPath id="clip0_6616_29840">
<rect width="20" height="20" fill="white"/>
</clipPath>
</defs>
</svg>
