<svg width="16" height="16" viewBox="0 0 16 16" fill="none" xmlns="http://www.w3.org/2000/svg">
<path d="M8.05961 4.18658C7.54132 4.18658 7.12109 3.76641 7.12109 3.24806V1.37114C7.12109 0.85284 7.54126 0.432617 8.05961 0.432617C8.57791 0.432617 8.99813 0.852782 8.99813 1.37114V3.24812C8.99813 3.76641 8.57791 4.18658 8.05961 4.18658Z" fill="#687798" fill-opacity="0.28"/>
<path d="M5.31993 5.32042C4.95342 5.68693 4.35923 5.68693 3.99272 5.32042L2.66551 3.99321C2.299 3.6267 2.299 3.03251 2.66551 2.666C3.03202 2.29949 3.62621 2.29949 3.99272 2.666L5.31993 3.99321C5.68644 4.35966 5.68644 4.95391 5.31993 5.32042Z" fill="#687798" fill-opacity="0.26"/>
<path d="M4.18761 8.05766C4.18761 8.57596 3.76745 8.99618 3.24909 8.99618H1.37211C0.853817 8.99618 0.433594 8.57601 0.433594 8.05766C0.433594 7.53936 0.853759 7.11914 1.37211 7.11914H3.24909C3.76745 7.1192 4.18761 7.53936 4.18761 8.05766Z" fill="#687798" fill-opacity="0.26"/>
<path d="M5.31993 10.7953C5.68644 11.1619 5.68644 11.7561 5.31993 12.1226L3.99272 13.4498C3.62621 13.8163 3.03202 13.8163 2.66551 13.4498C2.299 13.0833 2.299 12.4891 2.66551 12.1226L3.99272 10.7953C4.35917 10.4289 4.95342 10.4289 5.31993 10.7953Z" fill="#687798" fill-opacity="0.26"/>
<path d="M8.05961 11.9292C8.57791 11.9292 8.99813 12.3494 8.99813 12.8677V14.7447C8.99813 15.263 8.57797 15.6832 8.05961 15.6832C7.54132 15.6832 7.12109 15.2631 7.12109 14.7447V12.8677C7.12109 12.3494 7.54132 11.9292 8.05961 11.9292Z" fill="#687798" fill-opacity="0.8"/>
<path d="M10.7944 10.7954C11.1609 10.4289 11.7552 10.4289 12.1216 10.7954L13.4488 12.1226C13.8153 12.4891 13.8153 13.0833 13.4488 13.4498C13.0823 13.8163 12.4881 13.8163 12.1216 13.4498L10.7944 12.1226C10.4279 11.7561 10.4279 11.1619 10.7944 10.7954Z" fill="#687798"/>
<path d="M11.9297 8.05766C11.9297 7.53936 12.3499 7.11914 12.8682 7.11914H14.7452C15.2635 7.11914 15.6837 7.53931 15.6837 8.05766C15.6837 8.57596 15.2635 8.99618 14.7452 8.99618H12.8682C12.3499 8.99618 11.9297 8.57601 11.9297 8.05766Z" fill="#687798"/>
<path d="M10.7944 5.32042C10.4279 4.95391 10.4279 4.35972 10.7944 3.99321L12.1216 2.666C12.4881 2.29949 13.0823 2.29949 13.4488 2.666C13.8153 3.03251 13.8153 3.6267 13.4488 3.99321L12.1216 5.32042C11.7552 5.68693 11.1609 5.68693 10.7944 5.32042Z" fill="#6E82AC"/>
</svg>
