<svg width="18" height="18" viewBox="0 0 18 18" fill="none" xmlns="http://www.w3.org/2000/svg">
<g clip-path="url(#clip0_17255_5382)">
<path d="M5.60202 11.7047H14.8182C14.8834 11.7047 14.946 11.7306 14.9922 11.7768C15.0383 11.8229 15.0643 11.8855 15.0643 11.9508C15.0643 12.016 15.0383 12.0786 14.9922 12.1248C14.946 12.1709 14.8834 12.1969 14.8182 12.1969H5.60202C5.53676 12.1969 5.47416 12.1709 5.42801 12.1248C5.38186 12.0786 5.35593 12.016 5.35593 11.9508C5.35593 11.8855 5.38186 11.8229 5.42801 11.7768C5.47416 11.7306 5.53676 11.7047 5.60202 11.7047ZM16.9029 5.28469V16.49C16.9025 16.8903 16.7434 17.2741 16.4603 17.5572C16.1773 17.8402 15.7936 17.9995 15.3933 18H5.02715C4.62682 17.9995 4.24303 17.8403 3.95996 17.5572C3.67689 17.2742 3.51765 16.8904 3.51719 16.49V10.1303H1.62086C1.48174 10.13 1.34843 10.0745 1.25015 9.97605C1.15188 9.87759 1.09669 9.74415 1.09668 9.60504V5.56383C1.09663 5.4247 1.15181 5.29123 1.25009 5.19275C1.34838 5.09427 1.48173 5.03883 1.62086 5.03859H3.51719V1.51066C3.51759 1.11026 3.67678 0.726351 3.95984 0.443153C4.24291 0.159956 4.62674 0.000586269 5.02715 6.40615e-10L11.6182 6.40615e-10C11.6506 -2.33117e-06 11.6826 0.00636111 11.7124 0.018727C11.7423 0.0310928 11.7694 0.0492189 11.7923 0.0720703L16.8309 5.11066C16.8537 5.13351 16.8719 5.16064 16.8842 5.1905C16.8966 5.22036 16.9029 5.25237 16.9029 5.28469ZM4.42007 9.02109C4.48534 9.02109 4.54793 8.99517 4.59408 8.94901C4.64024 8.90286 4.66616 8.84027 4.66616 8.775C4.66616 8.70973 4.64024 8.64714 4.59408 8.60099C4.54793 8.55483 4.48534 8.52891 4.42007 8.52891H3.39062V6.39397C3.39062 6.3287 3.3647 6.26611 3.31855 6.21996C3.27239 6.17381 3.2098 6.14788 3.14453 6.14788C3.07926 6.14788 3.01667 6.17381 2.97052 6.21996C2.92437 6.26611 2.89844 6.3287 2.89844 6.39397V8.77475C2.89844 8.84002 2.92437 8.90262 2.97052 8.94877C3.01667 8.99492 3.07926 9.02085 3.14453 9.02085L4.42007 9.02109ZM16.4107 5.53113H12.3217C12.0701 5.53091 11.8288 5.43089 11.6508 5.25301C11.4728 5.07513 11.3726 4.83392 11.3721 4.58227V0.492188H5.02715C4.75724 0.492653 4.49853 0.600128 4.30774 0.791049C4.11695 0.98197 4.00965 1.24075 4.00938 1.51066V5.03859H10.6346C10.7737 5.03889 10.907 5.09436 11.0053 5.19282C11.1035 5.29129 11.1587 5.42472 11.1587 5.56383V9.60504C11.1587 9.74413 11.1035 9.87753 11.0052 9.97598C10.9069 10.0744 10.7737 10.1299 10.6346 10.1303H4.00938V16.49C4.00972 16.7599 4.11706 17.0185 4.30785 17.2093C4.49865 17.4001 4.75732 17.5075 5.02715 17.5078H15.3933C15.6631 17.5075 15.9217 17.4001 16.1125 17.2093C16.3032 17.0185 16.4105 16.7598 16.4107 16.49V5.53113ZM5.60698 9.02109H6.21895C6.41407 9.021 6.60118 8.94352 6.73925 8.80564C6.87731 8.66776 6.95505 8.48075 6.9554 8.28562V6.88331C6.95505 6.68819 6.87731 6.50117 6.73925 6.36329C6.60119 6.2254 6.41407 6.14791 6.21895 6.14781H5.60723C5.41224 6.14804 5.2253 6.22561 5.08743 6.36349C4.94956 6.50138 4.87201 6.68832 4.87179 6.88331V8.28545C4.87196 8.48042 4.94946 8.66737 5.08728 8.80528C5.22511 8.94319 5.41201 9.02081 5.60698 9.02109ZM7.76557 8.28464V6.88331C7.76577 6.81871 7.79158 6.75683 7.83735 6.71124C7.88312 6.66565 7.9451 6.64008 8.0097 6.64014H8.62159C8.68607 6.6402 8.74788 6.66584 8.79347 6.71143C8.83906 6.75702 8.8647 6.81884 8.86477 6.88331C8.86477 6.94858 8.8907 7.01118 8.93685 7.05733C8.983 7.10348 9.0456 7.12941 9.11086 7.12941C9.17613 7.12941 9.23873 7.10348 9.28488 7.05733C9.33103 7.01118 9.35696 6.94858 9.35696 6.88331C9.35674 6.68832 9.27919 6.50137 9.14131 6.36348C9.00343 6.22559 8.81648 6.14803 8.62149 6.14781H8.00977C7.81465 6.14791 7.62753 6.2254 7.48947 6.36329C7.3514 6.50117 7.27367 6.68819 7.27332 6.88331V8.28446C7.27348 8.47974 7.35111 8.66697 7.48917 8.80507C7.62722 8.94317 7.81443 9.02086 8.0097 9.02109H8.62159C8.81672 9.02075 9.00374 8.94302 9.14162 8.80495C9.2795 8.66689 9.35698 8.47976 9.35706 8.28464V7.64764C9.35706 7.58238 9.33113 7.51978 9.28498 7.47363C9.23883 7.42748 9.17624 7.40155 9.11097 7.40155H8.25688C8.19161 7.40155 8.12902 7.42748 8.08287 7.47363C8.03672 7.51978 8.01079 7.58238 8.01079 7.64764C8.01079 7.71291 8.03672 7.77551 8.08287 7.82166C8.12902 7.86781 8.19161 7.89374 8.25688 7.89374H8.86477V8.28439C8.86483 8.34899 8.83925 8.41098 8.79366 8.45674C8.74808 8.50251 8.68619 8.52832 8.62159 8.52852H8.00987C7.94513 8.52849 7.88305 8.50278 7.83725 8.45702C7.79144 8.41127 7.76567 8.34921 7.76557 8.28446V8.28464ZM6.21895 8.52859C6.28354 8.52866 6.34553 8.50309 6.3913 8.45751C6.43708 8.41193 6.4629 8.35005 6.46311 8.28545V6.88331C6.46291 6.81871 6.43709 6.75682 6.39132 6.71123C6.34554 6.66564 6.28355 6.64007 6.21895 6.64014H5.60723C5.54276 6.64021 5.48095 6.66586 5.43537 6.71145C5.38979 6.75703 5.36415 6.81884 5.36409 6.88331V8.28545C5.36416 8.34991 5.3898 8.41171 5.43538 8.45729C5.48096 8.50288 5.54276 8.52852 5.60723 8.52859H6.21895ZM14.8182 13.5503H5.60202C5.53676 13.5503 5.47416 13.5762 5.42801 13.6224C5.38186 13.6685 5.35593 13.7311 5.35593 13.7964C5.35593 13.8616 5.38186 13.9242 5.42801 13.9704C5.47416 14.0165 5.53676 14.0425 5.60202 14.0425H14.8182C14.8834 14.0425 14.946 14.0165 14.9922 13.9704C15.0383 13.9242 15.0643 13.8616 15.0643 13.7964C15.0643 13.7311 15.0383 13.6685 14.9922 13.6224C14.946 13.5762 14.8834 13.5503 14.8182 13.5503ZM14.8182 15.396H5.60202C5.53676 15.396 5.47416 15.4219 5.42801 15.4681C5.38186 15.5142 5.35593 15.5768 5.35593 15.6421C5.35593 15.7073 5.38186 15.7699 5.42801 15.8161C5.47416 15.8622 5.53676 15.8882 5.60202 15.8882H14.8182C14.8834 15.8882 14.946 15.8622 14.9922 15.8161C15.0383 15.7699 15.0643 15.7073 15.0643 15.6421C15.0643 15.5768 15.0383 15.5142 14.9922 15.4681C14.946 15.4219 14.8834 15.396 14.8182 15.396Z" fill="#929EB0"/>
</g>
<defs>
<clipPath id="clip0_17255_5382">
<rect width="18" height="18" fill="white"/>
</clipPath>
</defs>
</svg>
