<svg width="20" height="20" viewBox="0 0 20 20" fill="none" xmlns="http://www.w3.org/2000/svg">
<g clip-path="url(#clip0_6537_28465)">
<path d="M4.98836 14.6484H1.25977L1.26059 14.7143C1.26309 14.9185 1.37176 15.1066 1.54727 15.2108L3.5807 16.4186L4.78852 18.452C4.89277 18.6275 5.08086 18.7361 5.285 18.7387L7.64988 18.768L9.71266 19.9251C9.89082 20.025 10.1079 20.025 10.286 19.9251L12.3488 18.768L14.7137 18.7387C14.9178 18.7361 15.1059 18.6275 15.2102 18.452L16.418 16.4186L18.4514 15.2108C18.6269 15.1066 18.7355 14.9185 18.7381 14.7143L18.7389 14.6484H15.0103C12.3029 17.5661 7.69242 17.5626 4.98836 14.6484Z" fill="#EF5923"/>
<path d="M19.9251 9.71332L18.768 7.65066L18.7541 6.52344H1.246L1.23205 7.65066L0.0749414 9.71332C-0.0249805 9.89141 -0.0249805 10.1086 0.0749414 10.2867L1.23201 12.3493L1.246 13.4766H18.7541L18.768 12.3493L19.9251 10.2867C20.025 10.1086 20.025 9.89141 19.9251 9.71332ZM7.46096 11.875C7.46096 12.1989 7.19795 12.461 6.87506 12.461C6.68279 12.461 6.49822 12.3661 6.38752 12.2L4.96096 10.0602V11.875C4.96096 12.1986 4.69861 12.4609 4.37502 12.4609C4.05143 12.4609 3.78908 12.1986 3.78908 11.875V8.125C3.78908 7.8668 3.95811 7.63906 4.20521 7.56422C4.45225 7.48949 4.71928 7.58512 4.86252 7.8L6.28908 9.93977V8.125C6.28908 7.80141 6.55143 7.53906 6.87502 7.53906C7.19861 7.53906 7.46096 7.80141 7.46096 8.125V11.875ZM10.3125 9.41406C10.6361 9.41406 10.8985 9.67641 10.8985 10C10.8985 10.3236 10.6361 10.5859 10.3125 10.5859H9.64846V11.2891H10.625C10.9486 11.2891 11.211 11.5514 11.211 11.875C11.211 12.1986 10.9486 12.4609 10.625 12.4609H9.06252C8.73893 12.4609 8.47658 12.1986 8.47658 11.875V8.125C8.47658 7.80141 8.73893 7.53906 9.06252 7.53906H10.625C10.9486 7.53906 11.211 7.80141 11.211 8.125C11.211 8.44859 10.9486 8.71094 10.625 8.71094H9.64846V9.41406H10.3125ZM16.2089 8.17367L15.8964 11.9237C15.8742 12.1904 15.6741 12.4081 15.4102 12.4527C15.147 12.4972 14.8861 12.3582 14.7771 12.113L14.0625 10.5052L13.3479 12.113C13.2393 12.3575 12.9786 12.4973 12.7148 12.4527C12.4509 12.4081 12.2508 12.1904 12.2286 11.9237L11.9161 8.17367C11.8892 7.85117 12.1289 7.56797 12.4513 7.54109C12.7743 7.51422 13.0571 7.75387 13.0839 8.07633L13.2064 9.54605L13.5271 8.82453C13.6211 8.61293 13.831 8.47656 14.0625 8.47656C14.294 8.47656 14.5039 8.61293 14.5979 8.82453L14.9186 9.54605L15.0411 8.07633C15.068 7.75387 15.3516 7.51414 15.6737 7.54109C15.9962 7.56797 16.2358 7.85117 16.2089 8.17367Z" fill="#EF5923"/>
<path d="M13.2361 14.6484H6.76367C8.70812 16.0033 11.2936 16.0019 13.2361 14.6484Z" fill="#EF5923"/>
<path d="M15.0103 5.35155H18.7389L18.738 5.28569C18.7355 5.08151 18.6269 4.89343 18.4514 4.78917L16.4179 3.58124L15.2101 1.54796C15.1059 1.37245 14.9178 1.2639 14.7136 1.26132L12.3487 1.23194L10.286 0.0749121C10.1079 -0.0249707 9.8907 -0.0249707 9.71262 0.0749121L7.64984 1.23198L5.28496 1.26136C5.08082 1.2639 4.89273 1.37249 4.78848 1.548L3.58066 3.58128L1.54719 4.78921C1.37168 4.89347 1.26309 5.08155 1.26055 5.28573L1.25977 5.35155H4.98836C7.69566 2.43386 12.3063 2.43741 15.0103 5.35155Z" fill="#EF5923"/>
<path d="M6.76367 5.35156H13.2361C11.2915 3.99664 8.70609 3.99816 6.76367 5.35156Z" fill="#EF5923"/>
</g>
<defs>
<clipPath id="clip0_6537_28465">
<rect width="20" height="20" fill="white"/>
</clipPath>
</defs>
</svg>
