<svg width="22" height="22" viewBox="0 0 22 22" fill="none" xmlns="http://www.w3.org/2000/svg">
<path d="M19.8918 11.2748L18.0585 9.4415C17.6918 9.07484 17.1418 9.07484 16.7751 9.4415L14.9418 11.2748C14.5751 11.6415 14.5751 12.1915 14.9418 12.5582C15.3085 12.9248 15.8585 12.9248 16.2251 12.5582L16.6307 12.1915C15.8974 14.5748 13.4751 16.4998 11.0001 16.4998C9.53346 16.4998 8.15846 15.9498 7.15013 14.9415C6.78346 14.5748 6.23346 14.5748 5.8668 14.9415C5.50013 15.3082 5.50013 15.8582 5.8668 16.2248C7.2418 17.5998 9.07513 18.3332 11.0001 18.3332C14.6668 18.3332 17.6918 15.6748 18.2418 12.1915L18.6085 12.5582C18.7918 12.7415 19.0668 12.8332 19.2501 12.8332C19.4335 12.8332 19.7085 12.7415 19.8918 12.5582C20.2585 12.1915 20.2585 11.6415 19.8918 11.2748Z" fill="#8490A1"/>
<path d="M16.133 5.77484C14.758 4.39984 12.9247 3.6665 10.9997 3.6665C7.33301 3.6665 4.30801 6.32484 3.75801 9.80817L3.39134 9.4415C3.02467 9.07484 2.47467 9.07484 2.10801 9.4415C1.74134 9.80817 1.74134 10.3582 2.10801 10.7248L3.94134 12.5582C4.12467 12.7415 4.30801 12.8332 4.58301 12.8332C4.85801 12.8332 5.04134 12.7415 5.22467 12.5582L7.05801 10.7248C7.42467 10.3582 7.5 10 7.15022 9.4415C6.78355 9.07484 6.5 9 5.86737 9.4415L5.68301 9.53317C6.41634 7.14984 8.52467 5.49984 10.9997 5.49984C12.4663 5.49984 13.8413 6.04984 14.8497 7.05817C15.2163 7.42484 15.7663 7.42484 16.133 7.05817C16.4997 6.6915 16.4997 6.1415 16.133 5.77484Z" fill="#8490A1"/>
</svg>
