<svg width="26" height="26" viewBox="0 0 26 26" fill="none" xmlns="http://www.w3.org/2000/svg">
<path d="M25.1465 16.4533C25.1343 16.3639 25.1221 16.2746 25.1058 16.1892C25.1018 16.1364 25.0896 16.0877 25.0774 16.0389C25.0612 15.9374 25.0368 15.8399 25.0124 15.7424C24.984 15.6327 24.9515 15.523 24.9149 15.4174C24.8824 15.3158 24.8499 15.2143 24.8093 15.1168C24.728 14.9014 24.6305 14.6943 24.5208 14.4952C24.5127 14.483 24.5087 14.4708 24.5046 14.4627C24.5034 14.4607 24.5022 14.4586 24.5009 14.4562L21.3558 7.74209L21.3521 7.73113C21.283 7.54831 21.2058 7.36956 21.1083 7.19081C21.1043 7.17863 21.0962 7.16644 21.088 7.15425C20.6818 6.43519 20.0562 5.88269 19.3249 5.56581L18.943 4.74519C18.939 4.74113 18.939 4.73706 18.9349 4.733C18.8983 4.63956 18.8577 4.55425 18.813 4.46487C18.809 4.45675 18.8049 4.44863 18.7968 4.4405C18.423 3.77831 17.7243 3.368 16.9646 3.368C15.8027 3.368 14.8562 4.31456 14.8562 5.47644V6.81706C14.4215 7.42238 14.1655 8.16581 14.1655 8.96613V9.82209H11.8337V8.96531C11.8337 8.165 11.5777 7.42156 11.143 6.81625V5.47563C11.143 4.31375 10.1965 3.36719 9.03459 3.36719C8.27897 3.36719 7.57616 3.7775 7.20241 4.43563C7.19428 4.44781 7.19022 4.45594 7.18616 4.46406C7.13334 4.56156 7.08866 4.65906 7.06428 4.73219C7.06022 4.73625 7.06022 4.74031 7.05616 4.74438L6.67428 5.565C5.94303 5.88188 5.31741 6.43438 4.91116 7.15344C4.90303 7.16563 4.89897 7.17781 4.89084 7.19C4.79334 7.36875 4.71209 7.5475 4.65928 7.70188C4.65603 7.70634 4.65644 7.71244 4.65481 7.71731L1.48566 14.4834C1.48363 14.4871 1.48078 14.4907 1.47875 14.4944C1.05219 15.2744 0.8125 16.1681 0.8125 17.1188C0.8125 20.1575 3.28656 22.6316 6.32531 22.6316C9.22594 22.6316 11.6106 20.3769 11.8178 17.525H14.1822C14.3894 20.3769 16.7741 22.6316 19.6747 22.6316C22.7134 22.6316 25.1875 20.1575 25.1875 17.1188C25.1875 16.9969 25.1834 16.875 25.1753 16.7531C25.1672 16.6516 25.1591 16.5541 25.1469 16.4525L25.1465 16.4533ZM20.3893 7.57675C20.3974 7.58488 20.4015 7.593 20.4055 7.60112C20.4787 7.73519 20.5396 7.86925 20.5883 8.01144C20.5924 8.02362 20.5965 8.03581 20.6005 8.048L20.6042 8.05369L22.6911 12.5086H22.6887C22.5099 12.3908 22.323 12.2811 22.128 12.1836C22.0508 12.143 21.9737 12.1105 21.8924 12.0739C21.8599 12.0577 21.8274 12.0455 21.7908 12.0293C21.6933 11.9886 21.5918 11.948 21.4902 11.9155C21.3805 11.8749 21.2749 11.8424 21.1652 11.8139C21.153 11.8099 21.1368 11.8058 21.1246 11.8018C21.0108 11.7692 20.8971 11.7408 20.7833 11.7205C20.6899 11.7002 20.5965 11.6839 20.503 11.6718C20.438 11.6596 20.369 11.6514 20.2999 11.6433C20.2512 11.6352 20.1983 11.6311 20.1455 11.6271C20.0927 11.623 20.0399 11.6189 19.9871 11.6189C19.8815 11.6108 19.7799 11.6068 19.6743 11.6068C19.1177 11.6068 18.5815 11.688 18.0737 11.8464C18.0452 11.8505 18.0208 11.8586 17.9965 11.8708C16.729 12.273 15.6646 13.1261 14.978 14.2393V8.96653C14.978 8.29216 15.2137 7.66653 15.5996 7.17497C16.1318 6.50872 16.9483 6.07809 17.8624 6.07809C18.1996 6.07809 18.5327 6.13903 18.8415 6.25278C18.8699 6.26091 18.8983 6.26903 18.9268 6.28528C19.5402 6.52497 20.0602 6.9755 20.3893 7.57675ZM11.8337 15.2959H14.1655V16.7133H11.8337V15.2959ZM14.1655 10.6354V14.4838H11.8337V10.6354H14.1655ZM5.60991 7.57675C5.93897 6.9755 6.45897 6.52456 7.07241 6.28488C7.10084 6.26863 7.12928 6.2605 7.15772 6.25238C7.46647 6.13863 7.79959 6.07769 8.13678 6.07769C9.05084 6.07769 9.86741 6.50831 10.3996 7.17456C10.7855 7.66613 11.0212 8.29175 11.0212 8.96613V14.2393C10.3346 13.1261 9.26616 12.273 7.99866 11.8708C7.97428 11.8586 7.94991 11.8505 7.92147 11.8464C7.41772 11.688 6.88147 11.6068 6.32491 11.6068C5.21259 11.6068 4.17747 11.9395 3.3085 12.5074L5.39825 8.04638C5.39947 8.04353 5.39906 8.04028 5.40028 8.03744C5.40394 8.0285 5.408 8.01916 5.41084 8.01144C5.45959 7.87331 5.52053 7.73925 5.58959 7.60112C5.59772 7.593 5.60178 7.58488 5.60991 7.57675ZM6.32491 21.8199C3.73303 21.8199 1.62459 19.7114 1.62459 17.1196C1.62459 16.2957 1.8395 15.5202 2.21284 14.8462C2.21284 14.8458 2.21366 14.8454 2.21366 14.845C2.21366 14.8442 2.21406 14.8438 2.21447 14.8429C3.01884 13.3975 4.55813 12.4193 6.32491 12.4193C6.79534 12.4193 7.24953 12.4883 7.67934 12.6175C7.68341 12.6191 7.68787 12.6199 7.69194 12.6216C7.71306 12.6313 7.73419 12.639 7.75897 12.6427C9.64803 13.2521 11.0212 15.0274 11.0212 17.1196C11.0212 19.7114 8.91678 21.8199 6.32491 21.8199ZM19.6743 21.8199C17.9721 21.8199 16.4812 20.9099 15.6565 19.553C15.5915 19.4474 15.5305 19.3377 15.4777 19.2239C15.3599 19.0005 15.2665 18.7608 15.1893 18.5171C15.1243 18.3099 15.0755 18.0986 15.039 17.8793C15.0227 17.7818 15.0105 17.6842 15.0024 17.5827C14.9862 17.4486 14.978 17.3146 14.978 17.1764V17.1756V17.1188C14.978 16.9567 14.9862 16.7986 15.0024 16.6443C15.0105 16.563 15.0187 16.4818 15.0308 16.4046C15.0674 16.173 15.1202 15.9455 15.1893 15.7261C15.2583 15.5068 15.3437 15.2914 15.4412 15.0843C15.5752 14.8121 15.7337 14.5521 15.9124 14.3124C16.0424 14.1336 16.1927 13.963 16.3552 13.8005C16.5624 13.5852 16.798 13.3942 17.0499 13.2236C17.4155 12.9758 17.8137 12.7808 18.2402 12.6427C18.2524 12.6386 18.2646 12.6346 18.2768 12.6305C18.2886 12.6277 18.2971 12.6248 18.306 12.6216C18.3105 12.6199 18.315 12.6195 18.3194 12.6175C18.7497 12.4879 19.2038 12.4188 19.6743 12.4188C19.7962 12.4188 19.918 12.4229 20.0358 12.4351C20.1252 12.4392 20.2187 12.4473 20.308 12.4635C20.4137 12.4757 20.5193 12.492 20.6208 12.5163C20.698 12.5285 20.7712 12.5488 20.8483 12.5692C20.9133 12.5854 20.9743 12.6017 21.0393 12.622C21.279 12.6951 21.5105 12.7845 21.734 12.8942C21.7949 12.9267 21.8558 12.9551 21.9127 12.9876C21.9777 13.0242 22.0427 13.0607 22.1077 13.1013C22.1727 13.1379 22.2377 13.1785 22.2987 13.2232C22.3352 13.2476 22.3718 13.272 22.4043 13.2963C22.4652 13.337 22.5221 13.3776 22.579 13.4263C22.648 13.4792 22.7171 13.536 22.7821 13.5929C22.8024 13.6132 22.8227 13.6295 22.843 13.6498C22.9121 13.7107 22.9771 13.7798 23.0421 13.8448C23.1071 13.9098 23.168 13.9748 23.2208 14.0398C23.3468 14.186 23.4646 14.3363 23.5702 14.4948C23.6149 14.5557 23.6555 14.6207 23.6921 14.6857C23.7246 14.7345 23.753 14.7832 23.7815 14.836C23.7835 14.8397 23.7843 14.8409 23.7851 14.8433C23.7868 14.8466 23.788 14.8494 23.7896 14.8527C23.7908 14.8551 23.7932 14.8572 23.7945 14.8596C23.7953 14.8612 23.7961 14.8628 23.7977 14.8645C23.8912 15.0392 23.9765 15.2179 24.0496 15.4048C24.078 15.4698 24.1024 15.5388 24.1268 15.6079C24.1877 15.7907 24.2405 15.9817 24.2771 16.1726C24.2893 16.2213 24.2974 16.2701 24.3055 16.3188C24.3177 16.3798 24.3258 16.4367 24.334 16.4976C24.3421 16.5626 24.3502 16.6317 24.3543 16.7007C24.3624 16.7617 24.3665 16.8185 24.3665 16.8795C24.3705 16.9567 24.3746 17.0379 24.3746 17.1192C24.3746 19.711 22.2662 21.8199 19.6743 21.8199Z" fill="#707070"/>
<path d="M23.3836 16.7219C23.3755 16.665 23.3714 16.6081 23.3592 16.5513C23.3511 16.4903 23.3389 16.4294 23.3267 16.3684C23.3145 16.3075 23.3023 16.2506 23.2861 16.1897C23.2658 16.1166 23.2455 16.0434 23.2211 15.9703C23.1967 15.8931 23.1723 15.82 23.1398 15.7469C23.1155 15.6819 23.087 15.6169 23.0545 15.5478C23.018 15.4706 22.9814 15.3975 22.9408 15.3244C22.9002 15.2513 22.8555 15.1781 22.8108 15.1091C22.7661 15.0359 22.7173 14.9669 22.6686 14.9019C22.6686 14.8978 22.6645 14.8938 22.6605 14.8897C22.5589 14.7597 22.4533 14.6378 22.3436 14.52C22.2908 14.4672 22.238 14.4103 22.1811 14.3616C22.177 14.3534 22.1689 14.3494 22.1648 14.3494C22.1039 14.2966 22.0389 14.2438 21.9739 14.1909C21.913 14.1422 21.8439 14.0934 21.7789 14.0447C21.5798 13.9025 21.3605 13.7847 21.133 13.6913C21.0558 13.6588 20.9786 13.6263 20.9014 13.6019C20.7836 13.5572 20.6658 13.5247 20.5439 13.4963C20.4261 13.4678 20.3042 13.4475 20.1783 13.4272C20.0117 13.4028 19.8452 13.3906 19.6745 13.3906C18.6467 13.3906 17.7123 13.8091 17.042 14.4875C16.3636 15.1619 15.9492 16.0922 15.9492 17.12C15.9492 19.1756 17.6189 20.8494 19.6745 20.8494C21.7302 20.8494 23.4039 19.1756 23.4039 17.12C23.4039 17.0428 23.3998 16.9656 23.3958 16.8844C23.3917 16.8316 23.3877 16.7747 23.3836 16.7219ZM18.4152 17.12C18.4152 17.3434 18.2323 17.5262 18.0089 17.5262C17.7855 17.5262 17.6027 17.3434 17.6027 17.12C17.6027 15.9784 18.533 15.0481 19.6745 15.0481C19.898 15.0481 20.0808 15.2269 20.0808 15.4544C20.0808 15.6778 19.898 15.8606 19.6745 15.8606C18.9798 15.8606 18.4152 16.4253 18.4152 17.12Z" fill="#707070"/>
<path d="M10.0301 16.7219C10.022 16.665 10.0179 16.6081 10.0057 16.5513C9.99758 16.4903 9.98539 16.4294 9.9732 16.3684C9.96102 16.3075 9.94883 16.2506 9.93258 16.1897C9.91227 16.1166 9.89195 16.0434 9.86758 15.9703C9.8432 15.8931 9.81883 15.82 9.78633 15.7469C9.76195 15.6819 9.73351 15.6169 9.70101 15.5478C9.66852 15.4706 9.62789 15.3975 9.58727 15.3244C9.54664 15.2513 9.50195 15.1781 9.45727 15.1091C9.41258 15.0359 9.36383 14.9669 9.31508 14.9019C9.31508 14.8978 9.31102 14.8938 9.30695 14.8897C9.2582 14.8247 9.20945 14.7638 9.1607 14.7069C9.04695 14.5728 8.92102 14.4428 8.78695 14.325C8.73414 14.2803 8.68133 14.2356 8.62445 14.1909C8.56352 14.1381 8.49445 14.0894 8.42539 14.0447C8.32789 13.9756 8.22227 13.9106 8.11664 13.8537C8.11664 13.851 8.11529 13.8497 8.11258 13.8497C8.00695 13.7928 7.89727 13.74 7.78352 13.6913C7.70633 13.6588 7.62914 13.6263 7.55195 13.6019C7.43414 13.5572 7.31633 13.5247 7.19445 13.4963C7.07664 13.4678 6.95477 13.4475 6.82883 13.4272C6.66227 13.4028 6.4957 13.3906 6.32508 13.3906C5.29727 13.3906 4.36289 13.8091 3.68852 14.4875C3.01414 15.1619 2.5957 16.0922 2.5957 17.12C2.5957 19.1756 4.26945 20.8494 6.32508 20.8494C8.3807 20.8494 10.0504 19.1756 10.0504 17.12C10.0504 17.0428 10.0463 16.9656 10.0423 16.8844C10.0382 16.8316 10.0341 16.7747 10.0301 16.7219ZM5.06164 17.12C5.06164 17.3434 4.88289 17.5262 4.65539 17.5262C4.43195 17.5262 4.24914 17.3434 4.24914 17.12C4.24914 15.9784 5.17945 15.0481 6.32508 15.0481C6.54852 15.0481 6.73133 15.2269 6.73133 15.4544C6.73133 15.6778 6.54852 15.8606 6.32508 15.8606C5.63039 15.8606 5.06164 16.4253 5.06164 17.12Z" fill="#707070"/>
</svg>
