<svg width="10" height="13" viewBox="0 0 10 13" fill="none" xmlns="http://www.w3.org/2000/svg">
<path d="M0.299219 7.09766H0.199219" stroke="#B0B0B0" stroke-width="0.1"/>
<path d="M6.74526 2.29922H2.14526C1.26193 2.44922 -0.344738 3.61922 0.295262 7.09922C0.295262 5.73922 1.69526 4.96589 2.39526 4.74922H6.84526V5.89922L9.64526 3.29922L6.74526 0.699219V2.29922Z" fill="#B0B0B0"/>
<path fill-rule="evenodd" clip-rule="evenodd" d="M6.69447 0.586914L9.71865 3.29825L6.79447 6.01356V4.79889H2.40207C2.05766 4.90666 1.54352 5.15028 1.11526 5.53245C0.684408 5.91694 0.344473 6.43773 0.344473 7.09889L0.245298 7.10794C-0.0761934 5.35983 0.165297 4.18442 0.604953 3.42509C1.04437 2.66617 1.67956 2.32713 2.1361 2.2496L2.14026 2.24889H6.69447V0.586914ZM6.79447 0.810875V2.34889H2.14873C1.72214 2.42273 1.11488 2.74398 0.691493 3.4752C0.298389 4.15413 0.0619242 5.19013 0.282003 6.71495C0.385176 6.19687 0.689423 5.77843 1.04868 5.45784C1.49244 5.06184 2.02411 4.81119 2.37969 4.70113L2.38691 4.69889H6.89447V5.78423L9.5703 3.29954L6.79447 0.810875Z" fill="#B0B0B0"/>
<path d="M3.29771 10.7486H7.89771C8.78104 10.5986 10.3877 9.42863 9.74771 5.94863C9.74771 7.30863 8.34771 8.08197 7.64771 8.29863H3.19771V7.14863L0.397705 9.74863L3.29771 12.3486V10.7486Z" fill="#B0B0B0"/>
<path fill-rule="evenodd" clip-rule="evenodd" d="M3.34459 12.46L0.320411 9.74863L3.24459 7.03332V8.24798H7.63699C7.9814 8.14022 8.49554 7.89659 8.9238 7.51442C9.35465 7.12994 9.69459 6.60915 9.69459 5.94798L9.79376 5.93894C10.1153 7.68704 9.87377 8.86246 9.43411 9.62178C8.99469 10.3807 8.35951 10.7197 7.90296 10.7973L7.8988 10.798H3.34459V12.46ZM3.24459 12.236V10.698H7.89033C8.31692 10.6241 8.92419 10.3029 9.34757 9.57168C9.74067 8.89275 9.97714 7.85674 9.75706 6.33193C9.65389 6.85001 9.34964 7.26844 8.99038 7.58904C8.54663 7.98503 8.01496 8.23568 7.65937 8.34575L7.65215 8.34798H3.14459V7.26264L0.468767 9.74733L3.24459 12.236Z" fill="#B0B0B0"/>
<path d="M0.23662 7.28928C0.244252 7.29007 0.251883 7.29033 0.259515 7.29033C0.386094 7.29033 0.496357 7.19902 0.518462 7.07191C0.533725 6.98428 0.915304 4.92218 2.89083 4.92218H6.57504V5.97481C6.57504 6.07902 6.63636 6.17323 6.73188 6.2156C6.82715 6.2577 6.9382 6.23981 7.0153 6.16954L9.91004 3.53797C9.96478 3.48797 9.99609 3.41744 9.99609 3.34323C9.99609 3.26902 9.96478 3.19849 9.91004 3.14849L7.0153 0.516913C6.9382 0.44665 6.82688 0.428492 6.73188 0.470861C6.63636 0.513229 6.57504 0.607439 6.57504 0.71165V2.02744H2.89083C1.32188 2.02744 -0.00390625 3.2327 -0.00390625 4.65902V7.02744C-0.00390625 7.16402 0.100567 7.2777 0.23662 7.28928ZM0.52241 4.65902C0.52241 3.51797 1.60715 2.55376 2.89083 2.55376H6.8382C6.98373 2.55376 7.10136 2.43586 7.10136 2.2906V1.30665L9.34188 3.34323L7.10136 5.37981V4.65902C7.10136 4.51376 6.98373 4.39586 6.8382 4.39586H2.89083C1.66373 4.39586 0.939252 5.0527 0.52241 5.70455V4.65902Z" fill="#B0B0B0"/>
<path d="M0.195312 7.09883V4.94883C0.228646 4.13216 0.665313 2.45883 2.14531 2.29883" stroke="#B0B0B0" stroke-width="0.1"/>
<path d="M9.75557 5.71308C9.62004 5.70019 9.49715 5.79545 9.47373 5.93045C9.4582 6.01808 9.07688 8.08019 7.10136 8.08019H3.6803V7.02756C3.6803 6.92545 3.62109 6.83256 3.52873 6.78913C3.43609 6.74598 3.32715 6.75992 3.24873 6.82545L0.0908305 9.45703C0.0308305 9.50703 -0.00390625 9.58098 -0.00390625 9.65913C-0.00390625 9.73729 0.0308305 9.81124 0.0908305 9.86124L3.24873 12.4928C3.29688 12.5331 3.35688 12.5539 3.41715 12.5539C3.45504 12.5539 3.4932 12.5457 3.52873 12.5291C3.62109 12.4857 3.6803 12.3928 3.6803 12.2907V10.9749H7.10136C8.67057 10.9749 9.99609 9.76966 9.99609 8.34334V5.97492C9.99609 5.83834 9.89162 5.72466 9.75557 5.71308ZM9.46978 8.34334C9.46978 9.4844 8.3853 10.4486 7.10136 10.4486H3.41715C3.27188 10.4486 3.15399 10.5665 3.15399 10.7118V11.7289L0.670304 9.65913L3.15399 7.5894V8.34334C3.15399 8.48861 3.27188 8.6065 3.41715 8.6065H7.10136C8.32846 8.6065 9.05294 7.94966 9.46978 7.29782V8.34334Z" fill="#B0B0B0"/>
</svg>
