<svg width="24" height="22" viewBox="0 0 24 22" fill="none" xmlns="http://www.w3.org/2000/svg">
<path d="M9.96111 9.46714H21.9389C22.4066 9.46714 22.9827 9.96858 22.9827 10.8531V18.0398C22.9827 18.9244 22.4066 19.4258 21.9389 19.4258H9.96111C9.49341 19.4258 8.91733 18.9244 8.91733 18.0398V10.8531C8.91733 9.96858 9.49341 9.46714 9.96111 9.46714Z" stroke="#8E9CB1" stroke-width="1.33467" stroke-linecap="round" stroke-linejoin="round"/>
<path d="M11.6719 8.79961V5.37739C11.6719 4.24285 12.1226 3.15478 12.9248 2.35254C13.727 1.5503 14.8151 1.09961 15.9497 1.09961C17.0842 1.09961 18.1723 1.5503 18.9745 2.35254C19.7767 3.15478 20.2274 4.24285 20.2274 5.37739V8.79961" stroke="#8E9CB1" stroke-width="1.33467" stroke-linecap="round" stroke-linejoin="round"/>
<path d="M4.03255 10.0646H16.8659C17.367 10.0646 17.9842 10.6019 17.9842 11.5496V19.2496C17.9842 20.1974 17.367 20.7346 16.8659 20.7346H4.03255C3.53144 20.7346 2.91422 20.1974 2.91422 19.2496V11.5496C2.91422 10.6019 3.53144 10.0646 4.03255 10.0646Z" fill="#1E293B" stroke="#8E9CB1" stroke-width="1.43" stroke-linecap="round" stroke-linejoin="round"/>
<path d="M5.86523 9.34961V5.68294C5.86523 4.46737 6.34812 3.30158 7.20766 2.44204C8.0672 1.58249 9.23299 1.09961 10.4486 1.09961C11.6641 1.09961 12.8299 1.58249 13.6895 2.44204C14.549 3.30158 15.0319 4.46737 15.0319 5.68294V9.34961" fill="#1E293B"/>
<path d="M5.86523 9.34961V5.68294C5.86523 4.46737 6.34812 3.30158 7.20766 2.44204C8.0672 1.58249 9.23299 1.09961 10.4486 1.09961C11.6641 1.09961 12.8299 1.58249 13.6895 2.44204C14.549 3.30158 15.0319 4.46737 15.0319 5.68294V9.34961" stroke="#8E9CB1" stroke-width="1.43" stroke-linecap="round" stroke-linejoin="round"/>
</svg>
