<svg width="22" height="22" viewBox="0 0 22 22" fill="none" xmlns="http://www.w3.org/2000/svg">
<g clip-path="url(#clip0_5280_51460)">
<path fill-rule="evenodd" clip-rule="evenodd" d="M13.0977 8.70005C13.0721 8.95951 13.04 9.22613 13.0009 9.5H14.0009C14.6881 9.5 15.2943 9.65306 15.6544 10.0347H19.7405C19.7569 10.0347 19.8279 10.0392 19.9252 10.1559C20.0248 10.2754 20.117 10.4823 20.117 10.7534V17.94C20.117 18.2111 20.0248 18.418 19.9252 18.5375C19.8279 18.6542 19.7569 18.6587 19.7405 18.6587H16.3656L16.4291 19.9934H19.7405C20.6856 19.9934 21.4516 19.0741 21.4516 17.94V10.7534C21.4516 9.61936 20.6856 8.70005 19.7405 8.70005H18.6964V5.27763C18.6964 3.96611 18.1754 2.7083 17.248 1.78091C16.3206 0.853521 15.0628 0.33252 13.7513 0.33252C12.7405 0.33252 11.7617 0.641971 10.9414 1.20841C11.2485 1.40662 11.5826 1.72725 11.8966 2.17996C12.4524 1.84719 13.0926 1.66719 13.7513 1.66719C14.7089 1.66719 15.6272 2.04757 16.3043 2.72466C16.9814 3.40175 17.3617 4.32008 17.3617 5.27763V8.69985L13.0977 8.70005Z" fill="#8E9CB1"/>
<path d="M1.83317 9.96484H14.6665C15.1676 9.96484 15.7848 10.5021 15.7848 11.4498V19.1498C15.7848 20.0975 15.1676 20.6348 14.6665 20.6348H1.83317C1.33206 20.6348 0.714844 20.0975 0.714844 19.1498V11.4498C0.714844 10.5021 1.33206 9.96484 1.83317 9.96484Z" stroke="#8E9CB1" stroke-width="1.43" stroke-linecap="round" stroke-linejoin="round"/>
<path d="M3.66602 9.25V5.58333C3.66602 4.36776 4.1489 3.20197 5.00844 2.34243C5.86798 1.48289 7.03377 1 8.24935 1C9.46492 1 10.6307 1.48289 11.4903 2.34243C12.3498 3.20197 12.8327 4.36776 12.8327 5.58333V9.25" stroke="#8E9CB1" stroke-width="1.43" stroke-linecap="round" stroke-linejoin="round"/>
</g>
<defs>
<clipPath id="clip0_5280_51460">
<rect width="22" height="22" fill="white"/>
</clipPath>
</defs>
</svg>
