<svg width="20" height="19" viewBox="0 0 20 19" fill="none" xmlns="http://www.w3.org/2000/svg">
<path d="M10 5C10.2833 5 10.521 4.904 10.713 4.712C10.905 4.52 11.0007 4.28267 11 4C10.9993 3.71733 10.9033 3.48 10.712 3.288C10.5207 3.096 10.2833 3 10 3C9.71667 3 9.47934 3.096 9.288 3.288C9.09667 3.48 9.00067 3.71733 9 4C8.99934 4.28267 9.09534 4.52033 9.288 4.713C9.48067 4.90567 9.718 5.00133 10 5ZM10 13C10.2833 13 10.521 12.904 10.713 12.712C10.905 12.52 11.0007 12.2827 11 12V8C11 7.71667 10.904 7.47933 10.712 7.288C10.52 7.09667 10.2827 7.00067 10 7C9.71734 6.99933 9.48 7.09533 9.288 7.288C9.096 7.48067 9 7.718 9 8V12C9 12.2833 9.096 12.521 9.288 12.713C9.48 12.905 9.71734 13.0007 10 13ZM4 16L1.7 18.3C1.38334 18.6167 1.02067 18.6877 0.612002 18.513C0.203335 18.3383 -0.000665038 18.0257 1.62866e-06 17.575V2C1.62866e-06 1.45 0.196002 0.979333 0.588002 0.588C0.980002 0.196667 1.45067 0.000666667 2 0H18C18.55 0 19.021 0.196 19.413 0.588C19.805 0.98 20.0007 1.45067 20 2V14C20 14.55 19.8043 15.021 19.413 15.413C19.0217 15.805 18.5507 16.0007 18 16H4Z" fill="url(#paint0_linear_12151_3240)"/>
<defs>
<linearGradient id="paint0_linear_12151_3240" x1="10" y1="0" x2="10" y2="18.6061" gradientUnits="userSpaceOnUse">
<stop stop-color="#80C2FF"/>
<stop offset="1" stop-color="#4D7499"/>
</linearGradient>
</defs>
</svg>
