<svg width="22" height="22" viewBox="0 0 22 22" fill="none" xmlns="http://www.w3.org/2000/svg">
<path d="M3.66634 3.66675C3.18011 3.66675 2.7138 3.8599 2.36998 4.20372C2.02616 4.54754 1.83301 5.01385 1.83301 5.50008V9.16675C2.31924 9.16675 2.78555 9.3599 3.12937 9.70372C3.47319 10.0475 3.66634 10.5139 3.66634 11.0001C3.66634 11.4863 3.47319 11.9526 3.12937 12.2964C2.78555 12.6403 2.31924 12.8334 1.83301 12.8334V16.5001C1.83301 16.9863 2.02616 17.4526 2.36998 17.7964C2.7138 18.1403 3.18011 18.3334 3.66634 18.3334H18.333C18.8192 18.3334 19.2856 18.1403 19.6294 17.7964C19.9732 17.4526 20.1663 16.9863 20.1663 16.5001V12.8334C19.6801 12.8334 19.2138 12.6403 18.87 12.2964C18.5262 11.9526 18.333 11.4863 18.333 11.0001C18.333 10.5139 18.5262 10.0475 18.87 9.70372C19.2138 9.3599 19.6801 9.16675 20.1663 9.16675V5.50008C20.1663 5.01385 19.9732 4.54754 19.6294 4.20372C19.2856 3.8599 18.8192 3.66675 18.333 3.66675H3.66634ZM14.208 6.41675L15.583 7.79175L7.79134 15.5834L6.41634 14.2084L14.208 6.41675ZM8.07551 6.45341C8.97384 6.45341 9.69801 7.17758 9.69801 8.07592C9.69801 8.50623 9.52707 8.91892 9.22279 9.2232C8.91851 9.52747 8.50582 9.69841 8.07551 9.69841C7.17718 9.69841 6.45301 8.97425 6.45301 8.07592C6.45301 7.6456 6.62395 7.23291 6.92823 6.92863C7.23251 6.62436 7.64519 6.45341 8.07551 6.45341ZM13.9238 12.3017C14.8222 12.3017 15.5463 13.0259 15.5463 13.9242C15.5463 14.3546 15.3754 14.7673 15.0711 15.0715C14.7668 15.3758 14.3542 15.5467 13.9238 15.5467C13.0255 15.5467 12.3013 14.8226 12.3013 13.9242C12.3013 13.4939 12.4723 13.0812 12.7766 12.777C13.0808 12.4727 13.4935 12.3017 13.9238 12.3017Z" fill="#929EB0"/>
</svg>
