<svg width="22" height="22" viewBox="0 0 22 22" fill="none" xmlns="http://www.w3.org/2000/svg">
    <path d="M11.005 1.1647C5.64392 1.1647 1.16693 5.64972 1.16693 11.006C1.16899 12.945 1.74208 14.8403 2.81466 16.4556L1.16211 20.8522L6.69042 19.8523C8.03435 20.5069 9.51016 20.8456 11.005 20.8425C16.371 20.8457 20.8544 16.3672 20.8544 11.0076C20.8544 5.65454 16.3694 1.16148 11.005 1.1647Z" stroke="#687798" stroke-width="2.28571" stroke-linecap="round" stroke-linejoin="round"/>
    <path d="M11.552 15.3436C12.8847 16.1973 14.272 15.5751 15.2397 14.8534C15.9068 14.355 15.8859 13.3953 15.3153 12.7877L14.19 11.5901C13.764 12.0161 12.9313 12.2282 12.3542 12.0514C11.1116 11.6736 10.5907 11.0274 10.1679 10.3683C9.68406 9.61279 10.2322 8.4843 10.6582 8.0583L9.40435 6.91373C8.87547 6.43147 8.07331 6.3511 7.61195 6.89766C6.69887 7.97953 6.13302 9.62404 6.80336 10.6705C8.00901 12.5498 9.67281 14.138 11.552 15.3436Z" stroke="#687798" stroke-width="1.2" stroke-linecap="round" stroke-linejoin="round"/>
</svg>