<svg width="280" height="185" viewBox="0 0 280 185" fill="none" xmlns="http://www.w3.org/2000/svg">
<path d="M173.979 112.585H272.302C272.434 112.585 272.569 112.572 272.698 112.544C280.094 110.953 279.885 104.594 278.002 101.927C262.046 82.172 237.296 76.0197 225.74 75.07L56.9347 75.9221C56.3441 75.925 55.7823 75.6668 55.4 75.2165L36.1987 52.6017C34.4887 50.5877 31.9801 49.4268 29.3381 49.4268H4.01779C2.367 49.4268 1.42697 51.3137 2.42133 52.6315L47.0624 111.79C47.4403 112.291 48.0314 112.585 48.6588 112.585H173.979Z" fill="#DADADA"/>
<path d="M131.914 143.229L185.538 104.042C187.1 102.9 186.292 100.427 184.358 100.427H123.939C123.375 100.427 122.836 100.666 122.457 101.085L85.2386 142.198C84.0747 143.483 84.987 145.54 86.7213 145.54H124.833C127.379 145.54 129.858 144.73 131.914 143.229Z" fill="#C2C2C2"/>
<path d="M45.9552 121.118L64.2889 103.884C65.609 102.643 64.7308 100.427 62.919 100.427H49.4211C48.8348 100.427 48.278 100.684 47.898 101.131L32.3073 119.45C31.202 120.748 32.125 122.746 33.8304 122.746H41.8458C43.3729 122.746 44.8425 122.164 45.9552 121.118Z" fill="#C2C2C2"/>
<path d="M242.448 96.5201C246.247 97.2799 265.327 97.6332 271.5 97C258.963 85.2231 238.966 78.4749 232.001 78C233.141 90.9166 238.491 96.2035 242.448 96.5201Z" fill="white"/>
<rect width="8.54774" height="8.54774" rx="2" transform="matrix(-1 0 0 1 205.117 81.7178)" fill="white"/>
<rect width="8.54774" height="8.54774" rx="2" transform="matrix(-1 0 0 1 187.078 81.7178)" fill="white"/>
<rect width="8.54774" height="8.54774" rx="2" transform="matrix(-1 0 0 1 169.031 81.7178)" fill="white"/>
<rect width="8.54774" height="8.54774" rx="2" transform="matrix(-1 0 0 1 150.984 81.7178)" fill="white"/>
<rect width="8.54774" height="8.54774" rx="2" transform="matrix(-1 0 0 1 132.938 81.7178)" fill="white"/>
<rect width="8.54774" height="8.54774" rx="2" transform="matrix(-1 0 0 1 114.047 81.7178)" fill="white"/>
<path d="M131.33 45.1572L162.344 70.6543C163.069 71.2504 162.648 72.4268 161.709 72.4268H125.119C124.816 72.4268 124.53 72.2896 124.34 72.0537L103.118 45.6806C102.065 44.372 102.997 42.4268 104.676 42.4268H123.709C126.489 42.4268 129.183 43.3918 131.33 45.1572Z" fill="#C2C2C2"/>
<path d="M206.852 171.427H263.975" stroke="#9F9F9F" stroke-linecap="round"/>
<path d="M12.9688 23.9326H60.3391" stroke="#9F9F9F" stroke-linecap="round"/>
<path d="M12.9688 10H60.3391" stroke="#9F9F9F" stroke-linecap="round"/>
<path d="M199.68 171.427L195.5 171.427" stroke="#9F9F9F" stroke-linecap="round"/>
<path d="M7.79688 23.9326L3.61714 23.9326" stroke="#9F9F9F" stroke-linecap="round"/>
<path d="M7.79688 10L3.61714 10" stroke="#9F9F9F" stroke-linecap="round"/>
<path d="M69.5 177.95H16.5M73 171.95C73 168.45 70.5 161.45 60.5 161.45C59.8333 158.95 56.2 154.05 47 154.45C43.8333 154.783 37 157.25 35 164.45C32 164.283 25.9 165.55 25.5 171.95H3.5" stroke="#9F9F9F" stroke-linecap="round"/>
<path d="M29.5 183.927H11.5" stroke="#9F9F9F" stroke-linecap="round"/>
<path d="M132.5 24.5231H185.5M129 18.5231C129 15.0231 131.5 8.02307 141.5 8.02307C142.167 5.52307 145.8 0.623073 155 1.02307C158.167 1.35653 165 3.82344 167 11.0234C170 10.8565 176.1 12.1228 176.5 18.5231H198.5" stroke="#9F9F9F" stroke-linecap="round"/>
<path d="M172.5 30.5H190.5" stroke="#9F9F9F" stroke-linecap="round"/>
</svg>
