<svg width="282" height="60" viewBox="0 0 282 60" fill="none" xmlns="http://www.w3.org/2000/svg">
<path fill-rule="evenodd" clip-rule="evenodd" d="M193.988 54.7901C194.718 55.3001 195.598 55.6301 196.578 55.6301C198.958 55.6301 200.878 53.8001 200.888 51.5301C200.888 50.1601 200.168 48.9301 199.078 48.1901C195.368 45.6101 192.938 41.4101 192.948 36.7001C192.948 28.8601 199.618 22.5101 207.848 22.5101C216.058 22.5101 222.718 28.8801 222.718 36.7301C222.718 38.0701 222.388 39.5501 222.038 40.8501C221.668 42.1601 221.068 43.4101 220.288 44.5601C219.498 45.7001 218.538 46.7301 217.458 47.5901C216.358 48.4701 215.138 49.1801 213.818 49.6901C212.448 50.2101 210.998 50.5101 209.568 50.7901C208.698 50.9601 207.858 51.1301 207.128 51.6601C206.478 52.1401 205.928 52.8201 205.668 53.5701C205.528 53.9901 205.428 54.4701 205.428 54.9101C205.428 57.1801 207.348 59.0201 209.728 59.0201L210.218 58.9901C222.048 57.8701 231.318 48.3201 231.318 36.7301C231.318 24.3701 220.818 14.3401 207.858 14.3301C194.888 14.3301 184.358 24.3401 184.348 36.7001C184.348 44.1501 188.148 50.7301 193.988 54.7901Z" fill="#234775"/>
<path fill-rule="evenodd" clip-rule="evenodd" d="M35.3179 17.17C28.5779 13.43 20.7179 13.24 14.0679 16C13.2379 16.35 12.4979 16.93 12.0179 17.72C10.8179 19.68 11.5079 22.19 13.5679 23.34C14.8079 24.02 16.2679 24.04 17.4979 23.52C21.7079 21.76 26.7179 21.86 30.9779 24.25C38.0979 28.2 40.4979 36.9 36.3479 43.66C32.2179 50.43 23.0879 52.73 15.9779 48.78C11.2379 46.14 8.62786 40.96 8.62786 36.5L8.65786 4.29999V4.09C8.65786 1.82 6.74786 0 4.36786 0C1.98786 0 0.0578633 1.81999 0.0578633 4.07999V4.29999L0.0478633 35.07C-0.502137 43.26 3.70786 51.44 11.6479 55.86C22.8579 62.08 37.2279 58.47 43.7479 47.79C50.2779 37.11 46.4979 23.4 35.2979 17.17H35.3179Z" fill="#234775"/>
<path fill-rule="evenodd" clip-rule="evenodd" d="M146.538 34.5702C146.558 34.1502 146.578 33.7302 146.588 33.2802C146.588 20.9102 136.828 14.7102 124.718 14.7002C120.308 14.7002 116.268 15.8602 112.918 17.9502C112.338 16.3302 110.748 15.1902 108.868 15.1902C106.488 15.1902 104.558 17.0202 104.558 19.2802V19.4902L104.538 54.5002V54.7102C104.528 56.9802 106.458 58.8002 108.828 58.8002C111.198 58.8002 113.138 56.9802 113.138 54.7202V54.5102V34.7702C113.178 33.4202 113.288 32.0602 113.498 31.3502C114.408 28.2902 115.238 26.1402 117.548 24.8402C119.618 23.6802 121.998 22.8902 124.718 22.9002C132.398 22.9002 137.928 26.4102 137.918 34.6502C137.918 34.9202 137.938 35.1802 137.958 35.4302L137.938 54.5402V54.7402C137.938 57.0002 139.858 58.8402 142.228 58.8402C144.598 58.8402 146.538 57.0202 146.538 54.7502L146.518 54.5302L146.538 34.5902V34.5702Z" fill="#234775"/>
<path fill-rule="evenodd" clip-rule="evenodd" d="M281.728 34.6598C281.758 34.2398 281.768 33.8198 281.778 33.3598C281.778 20.9998 272.008 14.7798 259.898 14.7798C255.488 14.7798 251.458 15.9498 248.108 18.0198C247.528 16.4098 245.928 15.2698 244.058 15.2698C241.678 15.2498 239.758 17.0898 239.748 19.3498L239.768 19.5498L239.748 54.5698L239.728 54.7698C239.728 57.0398 241.648 58.8698 244.028 58.8698C246.408 58.8698 248.338 57.0498 248.338 54.7798V54.5698V34.8298C248.378 33.4698 248.488 32.1198 248.688 31.3998C249.598 28.3398 250.448 26.1898 252.738 24.8898C254.808 23.7298 257.178 22.9398 259.898 22.9398C267.578 22.9498 273.128 26.4598 273.118 34.6898C273.118 34.9598 273.128 35.2198 273.148 35.4798V54.5798L273.128 54.7898C273.128 57.0498 275.058 58.8798 277.418 58.8798C279.808 58.8798 281.728 57.0498 281.728 54.7898L281.708 54.5898L281.728 34.6298V34.6598Z" fill="#234775"/>
<path fill-rule="evenodd" clip-rule="evenodd" d="M179.708 14.6898H164.728V8.1098V7.89981C164.738 5.63981 162.818 3.7998 160.448 3.7998C158.078 3.7998 156.138 5.6298 156.138 7.8898L156.158 8.08981L156.118 45.3298C156.268 60.0198 171.528 58.7798 175.348 58.7898L175.788 58.7298C177.878 58.4598 179.508 56.7598 179.508 54.6798C179.508 52.4298 177.588 50.5998 175.208 50.5998H175.138C164.918 50.5698 164.698 45.4898 164.698 45.1398V26.8998C164.728 24.6698 166.658 22.8598 168.998 22.8598H179.248L179.688 22.8898C182.068 22.8898 183.978 21.0598 183.978 18.7998C183.978 16.5398 182.068 14.6898 179.688 14.6898H179.708Z" fill="#234775"/>
<path fill-rule="evenodd" clip-rule="evenodd" d="M74.8779 50.7298C68.4079 50.7298 62.9279 46.7998 60.8679 41.3198L53.0679 44.7998C56.5179 53.0598 64.9679 58.8999 74.8679 58.9099C80.4479 58.9099 85.5579 57.0598 89.5879 53.9598L84.8479 47.0698C82.1979 49.3398 78.6979 50.7298 74.8779 50.7198V50.7298Z" fill="#EA581F"/>
<path fill-rule="evenodd" clip-rule="evenodd" d="M59.988 36.5C59.988 29.13 65.928 23.05 73.488 22.38H73.518C75.668 22.16 77.328 20.42 77.328 18.32C77.328 16.07 75.408 14.23 73.028 14.23L72.518 14.25C60.658 15.39 51.418 24.9 51.408 36.49C51.408 39.43 51.998 42.24 53.068 44.8L60.868 41.32C60.308 39.82 59.988 38.21 59.988 36.5Z" fill="#C0272D"/>
<path fill-rule="evenodd" clip-rule="evenodd" d="M98.3579 36.5299C98.3779 29.1099 94.5679 22.5299 88.7279 18.4399C87.9979 17.9299 87.1279 17.6299 86.1379 17.6299C83.7579 17.6299 81.8279 19.4399 81.8279 21.6999C81.8279 23.0799 82.5479 24.2899 83.6479 25.0499C87.3679 27.6299 89.7679 31.8099 89.7679 36.5199C89.7679 40.7199 87.8579 44.4899 84.8379 47.0799L89.5779 53.9699C94.9279 49.8699 98.3379 43.5899 98.3479 36.5299H98.3579Z" fill="#F59A18"/>
</svg>
