<svg width="270" height="257" viewBox="0 0 270 257" fill="none" xmlns="http://www.w3.org/2000/svg">
<path fill-rule="evenodd" clip-rule="evenodd" d="M134.641 209.4C97.5405 209.4 66.1005 186.84 54.2605 155.44L9.53052 175.41C29.3005 222.78 77.8205 256.32 134.62 256.36C166.65 256.36 195.97 245.74 219.05 227.96L191.851 188.44C176.651 201.47 156.601 209.43 134.651 209.4H134.641Z" fill="#EA581F"/>
<path fill-rule="evenodd" clip-rule="evenodd" d="M49.2104 127.78C49.2504 85.49 83.2803 50.62 126.68 46.79H126.83C139.16 45.51 148.69 35.54 148.71 23.48C148.71 10.59 137.7 0 124.03 0L121.11 0.12C53.0803 6.64 0.040349 61.24 0.000348969 127.73C-0.039651 144.59 3.36037 160.7 9.52037 175.4L54.2604 155.43C51.0504 146.8 49.2004 137.57 49.2004 127.77L49.2104 127.78Z" fill="#C0272D"/>
<path fill-rule="evenodd" clip-rule="evenodd" d="M269.35 127.93C269.45 85.3502 247.6 47.6402 214.11 24.1602C209.91 21.2502 204.91 19.4902 199.25 19.4902C185.6 19.4902 174.54 29.8802 174.54 42.8602C174.54 50.7702 178.67 57.7402 184.99 62.0802C206.3 76.8902 220.1 100.85 220.1 127.88C220.1 151.97 209.15 173.62 191.83 188.45L219.04 227.97C249.74 204.47 269.31 168.4 269.34 127.93H269.35Z" fill="#F59A18"/>
</svg>
